<?xml version="1.0" encoding="utf-8" standalone="no"?>
<!DOCTYPE svg PUBLIC "-//W3C//DTD SVG 1.1//EN"
  "http://www.w3.org/Graphics/SVG/1.1/DTD/svg11.dtd">
<svg xmlns:xlink="http://www.w3.org/1999/xlink" width="847.82125pt" height="399.429375pt" viewBox="0 0 847.82125 399.429375" xmlns="http://www.w3.org/2000/svg" version="1.1">
 <metadata>
  <rdf:RDF xmlns:dc="http://purl.org/dc/elements/1.1/" xmlns:cc="http://creativecommons.org/ns#" xmlns:rdf="http://www.w3.org/1999/02/22-rdf-syntax-ns#">
   <cc:Work>
    <dc:type rdf:resource="http://purl.org/dc/dcmitype/StillImage"/>
    <dc:date>2025-05-27T11:42:52.359424</dc:date>
    <dc:format>image/svg+xml</dc:format>
    <dc:creator>
     <cc:Agent>
      <dc:title>Matplotlib v3.10.1, https://matplotlib.org/</dc:title>
     </cc:Agent>
    </dc:creator>
   </cc:Work>
  </rdf:RDF>
 </metadata>
 <defs>
  <style type="text/css">*{stroke-linejoin: round; stroke-linecap: butt}</style>
 </defs>
 <g id="figure_1">
  <g id="patch_1">
   <path d="M 0 399.429375 
L 847.82125 399.429375 
L 847.82125 0 
L 0 0 
z
" style="fill: #ffffff"/>
  </g>
  <g id="axes_1">
   <g id="patch_2">
    <path d="M 59.42125 357.6 
L 414.512159 357.6 
L 414.512159 24.96 
L 59.42125 24.96 
z
" style="fill: #ffffff"/>
   </g>
   <g id="matplotlib.axis_1">
    <g id="xtick_1">
     <g id="line2d_1">
      <path d="M 62.111333 357.6 
L 62.111333 24.96 
" clip-path="url(#pa18729d49c)" style="fill: none; stroke: #b0b0b0; stroke-width: 0.8; stroke-linecap: square"/>
     </g>
     <g id="line2d_2">
      <defs>
       <path id="mb5c5a50a0b" d="M 0 0 
L 0 -3.5 
" style="stroke: #000000; stroke-width: 0.8"/>
      </defs>
      <g>
       <use xlink:href="#mb5c5a50a0b" x="62.111333" y="357.6" style="stroke: #000000; stroke-width: 0.8"/>
      </g>
     </g>
     <g id="line2d_3">
      <defs>
       <path id="m0886eaecc4" d="M 0 0 
L 0 3.5 
" style="stroke: #000000; stroke-width: 0.8"/>
      </defs>
      <g>
       <use xlink:href="#m0886eaecc4" x="62.111333" y="24.96" style="stroke: #000000; stroke-width: 0.8"/>
      </g>
     </g>
     <g id="text_1">
      <!-- 17.5 -->
      <g transform="translate(46.525395 371.737812) scale(0.14 -0.14)">
       <defs>
        <path id="DejaVuSans-31" d="M 794 531 
L 1825 531 
L 1825 4091 
L 703 3866 
L 703 4441 
L 1819 4666 
L 2450 4666 
L 2450 531 
L 3481 531 
L 3481 0 
L 794 0 
L 794 531 
z
" transform="scale(0.015625)"/>
        <path id="DejaVuSans-37" d="M 525 4666 
L 3525 4666 
L 3525 4397 
L 1831 0 
L 1172 0 
L 2766 4134 
L 525 4134 
L 525 4666 
z
" transform="scale(0.015625)"/>
        <path id="DejaVuSans-2e" d="M 684 794 
L 1344 794 
L 1344 0 
L 684 0 
L 684 794 
z
" transform="scale(0.015625)"/>
        <path id="DejaVuSans-35" d="M 691 4666 
L 3169 4666 
L 3169 4134 
L 1269 4134 
L 1269 2991 
Q 1406 3038 1543 3061 
Q 1681 3084 1819 3084 
Q 2600 3084 3056 2656 
Q 3513 2228 3513 1497 
Q 3513 744 3044 326 
Q 2575 -91 1722 -91 
Q 1428 -91 1123 -41 
Q 819 9 494 109 
L 494 744 
Q 775 591 1075 516 
Q 1375 441 1709 441 
Q 2250 441 2565 725 
Q 2881 1009 2881 1497 
Q 2881 1984 2565 2268 
Q 2250 2553 1709 2553 
Q 1456 2553 1204 2497 
Q 953 2441 691 2322 
L 691 4666 
z
" transform="scale(0.015625)"/>
       </defs>
       <use xlink:href="#DejaVuSans-31"/>
       <use xlink:href="#DejaVuSans-37" transform="translate(63.623047 0)"/>
       <use xlink:href="#DejaVuSans-2e" transform="translate(127.246094 0)"/>
       <use xlink:href="#DejaVuSans-35" transform="translate(159.033203 0)"/>
      </g>
     </g>
    </g>
    <g id="xtick_2">
     <g id="line2d_4">
      <path d="M 129.363399 357.6 
L 129.363399 24.96 
" clip-path="url(#pa18729d49c)" style="fill: none; stroke: #b0b0b0; stroke-width: 0.8; stroke-linecap: square"/>
     </g>
     <g id="line2d_5">
      <g>
       <use xlink:href="#mb5c5a50a0b" x="129.363399" y="357.6" style="stroke: #000000; stroke-width: 0.8"/>
      </g>
     </g>
     <g id="line2d_6">
      <g>
       <use xlink:href="#m0886eaecc4" x="129.363399" y="24.96" style="stroke: #000000; stroke-width: 0.8"/>
      </g>
     </g>
     <g id="text_2">
      <!-- 18.0 -->
      <g transform="translate(113.777461 371.737812) scale(0.14 -0.14)">
       <defs>
        <path id="DejaVuSans-38" d="M 2034 2216 
Q 1584 2216 1326 1975 
Q 1069 1734 1069 1313 
Q 1069 891 1326 650 
Q 1584 409 2034 409 
Q 2484 409 2743 651 
Q 3003 894 3003 1313 
Q 3003 1734 2745 1975 
Q 2488 2216 2034 2216 
z
M 1403 2484 
Q 997 2584 770 2862 
Q 544 3141 544 3541 
Q 544 4100 942 4425 
Q 1341 4750 2034 4750 
Q 2731 4750 3128 4425 
Q 3525 4100 3525 3541 
Q 3525 3141 3298 2862 
Q 3072 2584 2669 2484 
Q 3125 2378 3379 2068 
Q 3634 1759 3634 1313 
Q 3634 634 3220 271 
Q 2806 -91 2034 -91 
Q 1263 -91 848 271 
Q 434 634 434 1313 
Q 434 1759 690 2068 
Q 947 2378 1403 2484 
z
M 1172 3481 
Q 1172 3119 1398 2916 
Q 1625 2713 2034 2713 
Q 2441 2713 2670 2916 
Q 2900 3119 2900 3481 
Q 2900 3844 2670 4047 
Q 2441 4250 2034 4250 
Q 1625 4250 1398 4047 
Q 1172 3844 1172 3481 
z
" transform="scale(0.015625)"/>
        <path id="DejaVuSans-30" d="M 2034 4250 
Q 1547 4250 1301 3770 
Q 1056 3291 1056 2328 
Q 1056 1369 1301 889 
Q 1547 409 2034 409 
Q 2525 409 2770 889 
Q 3016 1369 3016 2328 
Q 3016 3291 2770 3770 
Q 2525 4250 2034 4250 
z
M 2034 4750 
Q 2819 4750 3233 4129 
Q 3647 3509 3647 2328 
Q 3647 1150 3233 529 
Q 2819 -91 2034 -91 
Q 1250 -91 836 529 
Q 422 1150 422 2328 
Q 422 3509 836 4129 
Q 1250 4750 2034 4750 
z
" transform="scale(0.015625)"/>
       </defs>
       <use xlink:href="#DejaVuSans-31"/>
       <use xlink:href="#DejaVuSans-38" transform="translate(63.623047 0)"/>
       <use xlink:href="#DejaVuSans-2e" transform="translate(127.246094 0)"/>
       <use xlink:href="#DejaVuSans-30" transform="translate(159.033203 0)"/>
      </g>
     </g>
    </g>
    <g id="xtick_3">
     <g id="line2d_7">
      <path d="M 196.615465 357.6 
L 196.615465 24.96 
" clip-path="url(#pa18729d49c)" style="fill: none; stroke: #b0b0b0; stroke-width: 0.8; stroke-linecap: square"/>
     </g>
     <g id="line2d_8">
      <g>
       <use xlink:href="#mb5c5a50a0b" x="196.615465" y="357.6" style="stroke: #000000; stroke-width: 0.8"/>
      </g>
     </g>
     <g id="line2d_9">
      <g>
       <use xlink:href="#m0886eaecc4" x="196.615465" y="24.96" style="stroke: #000000; stroke-width: 0.8"/>
      </g>
     </g>
     <g id="text_3">
      <!-- 18.5 -->
      <g transform="translate(181.029527 371.737812) scale(0.14 -0.14)">
       <use xlink:href="#DejaVuSans-31"/>
       <use xlink:href="#DejaVuSans-38" transform="translate(63.623047 0)"/>
       <use xlink:href="#DejaVuSans-2e" transform="translate(127.246094 0)"/>
       <use xlink:href="#DejaVuSans-35" transform="translate(159.033203 0)"/>
      </g>
     </g>
    </g>
    <g id="xtick_4">
     <g id="line2d_10">
      <path d="M 263.867531 357.6 
L 263.867531 24.96 
" clip-path="url(#pa18729d49c)" style="fill: none; stroke: #b0b0b0; stroke-width: 0.8; stroke-linecap: square"/>
     </g>
     <g id="line2d_11">
      <g>
       <use xlink:href="#mb5c5a50a0b" x="263.867531" y="357.6" style="stroke: #000000; stroke-width: 0.8"/>
      </g>
     </g>
     <g id="line2d_12">
      <g>
       <use xlink:href="#m0886eaecc4" x="263.867531" y="24.96" style="stroke: #000000; stroke-width: 0.8"/>
      </g>
     </g>
     <g id="text_4">
      <!-- 19.0 -->
      <g transform="translate(248.281593 371.737812) scale(0.14 -0.14)">
       <defs>
        <path id="DejaVuSans-39" d="M 703 97 
L 703 672 
Q 941 559 1184 500 
Q 1428 441 1663 441 
Q 2288 441 2617 861 
Q 2947 1281 2994 2138 
Q 2813 1869 2534 1725 
Q 2256 1581 1919 1581 
Q 1219 1581 811 2004 
Q 403 2428 403 3163 
Q 403 3881 828 4315 
Q 1253 4750 1959 4750 
Q 2769 4750 3195 4129 
Q 3622 3509 3622 2328 
Q 3622 1225 3098 567 
Q 2575 -91 1691 -91 
Q 1453 -91 1209 -44 
Q 966 3 703 97 
z
M 1959 2075 
Q 2384 2075 2632 2365 
Q 2881 2656 2881 3163 
Q 2881 3666 2632 3958 
Q 2384 4250 1959 4250 
Q 1534 4250 1286 3958 
Q 1038 3666 1038 3163 
Q 1038 2656 1286 2365 
Q 1534 2075 1959 2075 
z
" transform="scale(0.015625)"/>
       </defs>
       <use xlink:href="#DejaVuSans-31"/>
       <use xlink:href="#DejaVuSans-39" transform="translate(63.623047 0)"/>
       <use xlink:href="#DejaVuSans-2e" transform="translate(127.246094 0)"/>
       <use xlink:href="#DejaVuSans-30" transform="translate(159.033203 0)"/>
      </g>
     </g>
    </g>
    <g id="xtick_5">
     <g id="line2d_13">
      <path d="M 331.119597 357.6 
L 331.119597 24.96 
" clip-path="url(#pa18729d49c)" style="fill: none; stroke: #b0b0b0; stroke-width: 0.8; stroke-linecap: square"/>
     </g>
     <g id="line2d_14">
      <g>
       <use xlink:href="#mb5c5a50a0b" x="331.119597" y="357.6" style="stroke: #000000; stroke-width: 0.8"/>
      </g>
     </g>
     <g id="line2d_15">
      <g>
       <use xlink:href="#m0886eaecc4" x="331.119597" y="24.96" style="stroke: #000000; stroke-width: 0.8"/>
      </g>
     </g>
     <g id="text_5">
      <!-- 19.5 -->
      <g transform="translate(315.53366 371.737812) scale(0.14 -0.14)">
       <use xlink:href="#DejaVuSans-31"/>
       <use xlink:href="#DejaVuSans-39" transform="translate(63.623047 0)"/>
       <use xlink:href="#DejaVuSans-2e" transform="translate(127.246094 0)"/>
       <use xlink:href="#DejaVuSans-35" transform="translate(159.033203 0)"/>
      </g>
     </g>
    </g>
    <g id="xtick_6">
     <g id="line2d_16">
      <path d="M 398.371663 357.6 
L 398.371663 24.96 
" clip-path="url(#pa18729d49c)" style="fill: none; stroke: #b0b0b0; stroke-width: 0.8; stroke-linecap: square"/>
     </g>
     <g id="line2d_17">
      <g>
       <use xlink:href="#mb5c5a50a0b" x="398.371663" y="357.6" style="stroke: #000000; stroke-width: 0.8"/>
      </g>
     </g>
     <g id="line2d_18">
      <g>
       <use xlink:href="#m0886eaecc4" x="398.371663" y="24.96" style="stroke: #000000; stroke-width: 0.8"/>
      </g>
     </g>
     <g id="text_6">
      <!-- 20.0 -->
      <g transform="translate(382.785726 371.737812) scale(0.14 -0.14)">
       <defs>
        <path id="DejaVuSans-32" d="M 1228 531 
L 3431 531 
L 3431 0 
L 469 0 
L 469 531 
Q 828 903 1448 1529 
Q 2069 2156 2228 2338 
Q 2531 2678 2651 2914 
Q 2772 3150 2772 3378 
Q 2772 3750 2511 3984 
Q 2250 4219 1831 4219 
Q 1534 4219 1204 4116 
Q 875 4013 500 3803 
L 500 4441 
Q 881 4594 1212 4672 
Q 1544 4750 1819 4750 
Q 2544 4750 2975 4387 
Q 3406 4025 3406 3419 
Q 3406 3131 3298 2873 
Q 3191 2616 2906 2266 
Q 2828 2175 2409 1742 
Q 1991 1309 1228 531 
z
" transform="scale(0.015625)"/>
       </defs>
       <use xlink:href="#DejaVuSans-32"/>
       <use xlink:href="#DejaVuSans-30" transform="translate(63.623047 0)"/>
       <use xlink:href="#DejaVuSans-2e" transform="translate(127.246094 0)"/>
       <use xlink:href="#DejaVuSans-30" transform="translate(159.033203 0)"/>
      </g>
     </g>
    </g>
    <g id="text_7">
     <!-- Angle of attack $\alpha$ (°) -->
     <g transform="translate(165.846705 389.289375) scale(0.14 -0.14)">
      <defs>
       <path id="DejaVuSans-41" d="M 2188 4044 
L 1331 1722 
L 3047 1722 
L 2188 4044 
z
M 1831 4666 
L 2547 4666 
L 4325 0 
L 3669 0 
L 3244 1197 
L 1141 1197 
L 716 0 
L 50 0 
L 1831 4666 
z
" transform="scale(0.015625)"/>
       <path id="DejaVuSans-6e" d="M 3513 2113 
L 3513 0 
L 2938 0 
L 2938 2094 
Q 2938 2591 2744 2837 
Q 2550 3084 2163 3084 
Q 1697 3084 1428 2787 
Q 1159 2491 1159 1978 
L 1159 0 
L 581 0 
L 581 3500 
L 1159 3500 
L 1159 2956 
Q 1366 3272 1645 3428 
Q 1925 3584 2291 3584 
Q 2894 3584 3203 3211 
Q 3513 2838 3513 2113 
z
" transform="scale(0.015625)"/>
       <path id="DejaVuSans-67" d="M 2906 1791 
Q 2906 2416 2648 2759 
Q 2391 3103 1925 3103 
Q 1463 3103 1205 2759 
Q 947 2416 947 1791 
Q 947 1169 1205 825 
Q 1463 481 1925 481 
Q 2391 481 2648 825 
Q 2906 1169 2906 1791 
z
M 3481 434 
Q 3481 -459 3084 -895 
Q 2688 -1331 1869 -1331 
Q 1566 -1331 1297 -1286 
Q 1028 -1241 775 -1147 
L 775 -588 
Q 1028 -725 1275 -790 
Q 1522 -856 1778 -856 
Q 2344 -856 2625 -561 
Q 2906 -266 2906 331 
L 2906 616 
Q 2728 306 2450 153 
Q 2172 0 1784 0 
Q 1141 0 747 490 
Q 353 981 353 1791 
Q 353 2603 747 3093 
Q 1141 3584 1784 3584 
Q 2172 3584 2450 3431 
Q 2728 3278 2906 2969 
L 2906 3500 
L 3481 3500 
L 3481 434 
z
" transform="scale(0.015625)"/>
       <path id="DejaVuSans-6c" d="M 603 4863 
L 1178 4863 
L 1178 0 
L 603 0 
L 603 4863 
z
" transform="scale(0.015625)"/>
       <path id="DejaVuSans-65" d="M 3597 1894 
L 3597 1613 
L 953 1613 
Q 991 1019 1311 708 
Q 1631 397 2203 397 
Q 2534 397 2845 478 
Q 3156 559 3463 722 
L 3463 178 
Q 3153 47 2828 -22 
Q 2503 -91 2169 -91 
Q 1331 -91 842 396 
Q 353 884 353 1716 
Q 353 2575 817 3079 
Q 1281 3584 2069 3584 
Q 2775 3584 3186 3129 
Q 3597 2675 3597 1894 
z
M 3022 2063 
Q 3016 2534 2758 2815 
Q 2500 3097 2075 3097 
Q 1594 3097 1305 2825 
Q 1016 2553 972 2059 
L 3022 2063 
z
" transform="scale(0.015625)"/>
       <path id="DejaVuSans-20" transform="scale(0.015625)"/>
       <path id="DejaVuSans-6f" d="M 1959 3097 
Q 1497 3097 1228 2736 
Q 959 2375 959 1747 
Q 959 1119 1226 758 
Q 1494 397 1959 397 
Q 2419 397 2687 759 
Q 2956 1122 2956 1747 
Q 2956 2369 2687 2733 
Q 2419 3097 1959 3097 
z
M 1959 3584 
Q 2709 3584 3137 3096 
Q 3566 2609 3566 1747 
Q 3566 888 3137 398 
Q 2709 -91 1959 -91 
Q 1206 -91 779 398 
Q 353 888 353 1747 
Q 353 2609 779 3096 
Q 1206 3584 1959 3584 
z
" transform="scale(0.015625)"/>
       <path id="DejaVuSans-66" d="M 2375 4863 
L 2375 4384 
L 1825 4384 
Q 1516 4384 1395 4259 
Q 1275 4134 1275 3809 
L 1275 3500 
L 2222 3500 
L 2222 3053 
L 1275 3053 
L 1275 0 
L 697 0 
L 697 3053 
L 147 3053 
L 147 3500 
L 697 3500 
L 697 3744 
Q 697 4328 969 4595 
Q 1241 4863 1831 4863 
L 2375 4863 
z
" transform="scale(0.015625)"/>
       <path id="DejaVuSans-61" d="M 2194 1759 
Q 1497 1759 1228 1600 
Q 959 1441 959 1056 
Q 959 750 1161 570 
Q 1363 391 1709 391 
Q 2188 391 2477 730 
Q 2766 1069 2766 1631 
L 2766 1759 
L 2194 1759 
z
M 3341 1997 
L 3341 0 
L 2766 0 
L 2766 531 
Q 2569 213 2275 61 
Q 1981 -91 1556 -91 
Q 1019 -91 701 211 
Q 384 513 384 1019 
Q 384 1609 779 1909 
Q 1175 2209 1959 2209 
L 2766 2209 
L 2766 2266 
Q 2766 2663 2505 2880 
Q 2244 3097 1772 3097 
Q 1472 3097 1187 3025 
Q 903 2953 641 2809 
L 641 3341 
Q 956 3463 1253 3523 
Q 1550 3584 1831 3584 
Q 2591 3584 2966 3190 
Q 3341 2797 3341 1997 
z
" transform="scale(0.015625)"/>
       <path id="DejaVuSans-74" d="M 1172 4494 
L 1172 3500 
L 2356 3500 
L 2356 3053 
L 1172 3053 
L 1172 1153 
Q 1172 725 1289 603 
Q 1406 481 1766 481 
L 2356 481 
L 2356 0 
L 1766 0 
Q 1100 0 847 248 
Q 594 497 594 1153 
L 594 3053 
L 172 3053 
L 172 3500 
L 594 3500 
L 594 4494 
L 1172 4494 
z
" transform="scale(0.015625)"/>
       <path id="DejaVuSans-63" d="M 3122 3366 
L 3122 2828 
Q 2878 2963 2633 3030 
Q 2388 3097 2138 3097 
Q 1578 3097 1268 2742 
Q 959 2388 959 1747 
Q 959 1106 1268 751 
Q 1578 397 2138 397 
Q 2388 397 2633 464 
Q 2878 531 3122 666 
L 3122 134 
Q 2881 22 2623 -34 
Q 2366 -91 2075 -91 
Q 1284 -91 818 406 
Q 353 903 353 1747 
Q 353 2603 823 3093 
Q 1294 3584 2113 3584 
Q 2378 3584 2631 3529 
Q 2884 3475 3122 3366 
z
" transform="scale(0.015625)"/>
       <path id="DejaVuSans-6b" d="M 581 4863 
L 1159 4863 
L 1159 1991 
L 2875 3500 
L 3609 3500 
L 1753 1863 
L 3688 0 
L 2938 0 
L 1159 1709 
L 1159 0 
L 581 0 
L 581 4863 
z
" transform="scale(0.015625)"/>
       <path id="DejaVuSans-Oblique-3b1" d="M 2619 1628 
L 2622 2350 
Q 2625 3088 2069 3091 
Q 1653 3094 1394 2747 
Q 1069 2319 959 1747 
Q 825 1059 994 731 
Q 1169 397 1547 397 
Q 1966 397 2319 1063 
L 2619 1628 
z
M 2166 3578 
Q 3141 3594 3128 2584 
Q 3128 2584 3616 3500 
L 4128 3500 
L 3119 1603 
L 3109 919 
Q 3109 766 3194 638 
Q 3291 488 3391 488 
L 3669 488 
L 3575 0 
L 3228 0 
Q 2934 0 2722 263 
Q 2622 394 2619 669 
Q 2416 334 2066 50 
Q 1900 -81 1453 -78 
Q 722 -72 456 397 
Q 184 884 353 1747 
Q 534 2675 1009 3097 
Q 1544 3569 2166 3578 
z
" transform="scale(0.015625)"/>
       <path id="DejaVuSans-28" d="M 1984 4856 
Q 1566 4138 1362 3434 
Q 1159 2731 1159 2009 
Q 1159 1288 1364 580 
Q 1569 -128 1984 -844 
L 1484 -844 
Q 1016 -109 783 600 
Q 550 1309 550 2009 
Q 550 2706 781 3412 
Q 1013 4119 1484 4856 
L 1984 4856 
z
" transform="scale(0.015625)"/>
       <path id="DejaVuSans-b0" d="M 1600 4347 
Q 1350 4347 1178 4173 
Q 1006 4000 1006 3750 
Q 1006 3503 1178 3333 
Q 1350 3163 1600 3163 
Q 1850 3163 2022 3333 
Q 2194 3503 2194 3750 
Q 2194 3997 2020 4172 
Q 1847 4347 1600 4347 
z
M 1600 4750 
Q 1800 4750 1984 4673 
Q 2169 4597 2303 4453 
Q 2447 4313 2519 4134 
Q 2591 3956 2591 3750 
Q 2591 3338 2302 3052 
Q 2013 2766 1594 2766 
Q 1172 2766 890 3047 
Q 609 3328 609 3750 
Q 609 4169 896 4459 
Q 1184 4750 1600 4750 
z
" transform="scale(0.015625)"/>
       <path id="DejaVuSans-29" d="M 513 4856 
L 1013 4856 
Q 1481 4119 1714 3412 
Q 1947 2706 1947 2009 
Q 1947 1309 1714 600 
Q 1481 -109 1013 -844 
L 513 -844 
Q 928 -128 1133 580 
Q 1338 1288 1338 2009 
Q 1338 2731 1133 3434 
Q 928 4138 513 4856 
z
" transform="scale(0.015625)"/>
      </defs>
      <use xlink:href="#DejaVuSans-41" transform="translate(0 0.015625)"/>
      <use xlink:href="#DejaVuSans-6e" transform="translate(68.408203 0.015625)"/>
      <use xlink:href="#DejaVuSans-67" transform="translate(131.787109 0.015625)"/>
      <use xlink:href="#DejaVuSans-6c" transform="translate(195.263672 0.015625)"/>
      <use xlink:href="#DejaVuSans-65" transform="translate(223.046875 0.015625)"/>
      <use xlink:href="#DejaVuSans-20" transform="translate(284.570312 0.015625)"/>
      <use xlink:href="#DejaVuSans-6f" transform="translate(316.357422 0.015625)"/>
      <use xlink:href="#DejaVuSans-66" transform="translate(377.539062 0.015625)"/>
      <use xlink:href="#DejaVuSans-20" transform="translate(412.744141 0.015625)"/>
      <use xlink:href="#DejaVuSans-61" transform="translate(444.53125 0.015625)"/>
      <use xlink:href="#DejaVuSans-74" transform="translate(505.810547 0.015625)"/>
      <use xlink:href="#DejaVuSans-74" transform="translate(545.019531 0.015625)"/>
      <use xlink:href="#DejaVuSans-61" transform="translate(584.228516 0.015625)"/>
      <use xlink:href="#DejaVuSans-63" transform="translate(645.507812 0.015625)"/>
      <use xlink:href="#DejaVuSans-6b" transform="translate(700.488281 0.015625)"/>
      <use xlink:href="#DejaVuSans-20" transform="translate(758.398438 0.015625)"/>
      <use xlink:href="#DejaVuSans-Oblique-3b1" transform="translate(790.185547 0.015625)"/>
      <use xlink:href="#DejaVuSans-20" transform="translate(856.103516 0.015625)"/>
      <use xlink:href="#DejaVuSans-28" transform="translate(887.890625 0.015625)"/>
      <use xlink:href="#DejaVuSans-b0" transform="translate(926.904297 0.015625)"/>
      <use xlink:href="#DejaVuSans-29" transform="translate(976.904297 0.015625)"/>
     </g>
    </g>
   </g>
   <g id="matplotlib.axis_2">
    <g id="ytick_1">
     <g id="line2d_19">
      <path d="M 59.42125 318.017024 
L 414.512159 318.017024 
" clip-path="url(#pa18729d49c)" style="fill: none; stroke: #b0b0b0; stroke-width: 0.8; stroke-linecap: square"/>
     </g>
     <g id="line2d_20">
      <defs>
       <path id="mf18af424fb" d="M 0 0 
L 3.5 0 
" style="stroke: #000000; stroke-width: 0.8"/>
      </defs>
      <g>
       <use xlink:href="#mf18af424fb" x="59.42125" y="318.017024" style="stroke: #000000; stroke-width: 0.8"/>
      </g>
     </g>
     <g id="line2d_21">
      <defs>
       <path id="mae7f631378" d="M 0 0 
L -3.5 0 
" style="stroke: #000000; stroke-width: 0.8"/>
      </defs>
      <g>
       <use xlink:href="#mae7f631378" x="414.512159" y="318.017024" style="stroke: #000000; stroke-width: 0.8"/>
      </g>
     </g>
     <g id="text_8">
      <!-- 0.50 -->
      <g transform="translate(24.749375 323.33593) scale(0.14 -0.14)">
       <use xlink:href="#DejaVuSans-30"/>
       <use xlink:href="#DejaVuSans-2e" transform="translate(63.623047 0)"/>
       <use xlink:href="#DejaVuSans-35" transform="translate(95.410156 0)"/>
       <use xlink:href="#DejaVuSans-30" transform="translate(159.033203 0)"/>
      </g>
     </g>
    </g>
    <g id="ytick_2">
     <g id="line2d_22">
      <path d="M 59.42125 270.451633 
L 414.512159 270.451633 
" clip-path="url(#pa18729d49c)" style="fill: none; stroke: #b0b0b0; stroke-width: 0.8; stroke-linecap: square"/>
     </g>
     <g id="line2d_23">
      <g>
       <use xlink:href="#mf18af424fb" x="59.42125" y="270.451633" style="stroke: #000000; stroke-width: 0.8"/>
      </g>
     </g>
     <g id="line2d_24">
      <g>
       <use xlink:href="#mae7f631378" x="414.512159" y="270.451633" style="stroke: #000000; stroke-width: 0.8"/>
      </g>
     </g>
     <g id="text_9">
      <!-- 0.55 -->
      <g transform="translate(24.749375 275.77054) scale(0.14 -0.14)">
       <use xlink:href="#DejaVuSans-30"/>
       <use xlink:href="#DejaVuSans-2e" transform="translate(63.623047 0)"/>
       <use xlink:href="#DejaVuSans-35" transform="translate(95.410156 0)"/>
       <use xlink:href="#DejaVuSans-35" transform="translate(159.033203 0)"/>
      </g>
     </g>
    </g>
    <g id="ytick_3">
     <g id="line2d_25">
      <path d="M 59.42125 222.886243 
L 414.512159 222.886243 
" clip-path="url(#pa18729d49c)" style="fill: none; stroke: #b0b0b0; stroke-width: 0.8; stroke-linecap: square"/>
     </g>
     <g id="line2d_26">
      <g>
       <use xlink:href="#mf18af424fb" x="59.42125" y="222.886243" style="stroke: #000000; stroke-width: 0.8"/>
      </g>
     </g>
     <g id="line2d_27">
      <g>
       <use xlink:href="#mae7f631378" x="414.512159" y="222.886243" style="stroke: #000000; stroke-width: 0.8"/>
      </g>
     </g>
     <g id="text_10">
      <!-- 0.60 -->
      <g transform="translate(24.749375 228.205149) scale(0.14 -0.14)">
       <defs>
        <path id="DejaVuSans-36" d="M 2113 2584 
Q 1688 2584 1439 2293 
Q 1191 2003 1191 1497 
Q 1191 994 1439 701 
Q 1688 409 2113 409 
Q 2538 409 2786 701 
Q 3034 994 3034 1497 
Q 3034 2003 2786 2293 
Q 2538 2584 2113 2584 
z
M 3366 4563 
L 3366 3988 
Q 3128 4100 2886 4159 
Q 2644 4219 2406 4219 
Q 1781 4219 1451 3797 
Q 1122 3375 1075 2522 
Q 1259 2794 1537 2939 
Q 1816 3084 2150 3084 
Q 2853 3084 3261 2657 
Q 3669 2231 3669 1497 
Q 3669 778 3244 343 
Q 2819 -91 2113 -91 
Q 1303 -91 875 529 
Q 447 1150 447 2328 
Q 447 3434 972 4092 
Q 1497 4750 2381 4750 
Q 2619 4750 2861 4703 
Q 3103 4656 3366 4563 
z
" transform="scale(0.015625)"/>
       </defs>
       <use xlink:href="#DejaVuSans-30"/>
       <use xlink:href="#DejaVuSans-2e" transform="translate(63.623047 0)"/>
       <use xlink:href="#DejaVuSans-36" transform="translate(95.410156 0)"/>
       <use xlink:href="#DejaVuSans-30" transform="translate(159.033203 0)"/>
      </g>
     </g>
    </g>
    <g id="ytick_4">
     <g id="line2d_28">
      <path d="M 59.42125 175.320853 
L 414.512159 175.320853 
" clip-path="url(#pa18729d49c)" style="fill: none; stroke: #b0b0b0; stroke-width: 0.8; stroke-linecap: square"/>
     </g>
     <g id="line2d_29">
      <g>
       <use xlink:href="#mf18af424fb" x="59.42125" y="175.320853" style="stroke: #000000; stroke-width: 0.8"/>
      </g>
     </g>
     <g id="line2d_30">
      <g>
       <use xlink:href="#mae7f631378" x="414.512159" y="175.320853" style="stroke: #000000; stroke-width: 0.8"/>
      </g>
     </g>
     <g id="text_11">
      <!-- 0.65 -->
      <g transform="translate(24.749375 180.639759) scale(0.14 -0.14)">
       <use xlink:href="#DejaVuSans-30"/>
       <use xlink:href="#DejaVuSans-2e" transform="translate(63.623047 0)"/>
       <use xlink:href="#DejaVuSans-36" transform="translate(95.410156 0)"/>
       <use xlink:href="#DejaVuSans-35" transform="translate(159.033203 0)"/>
      </g>
     </g>
    </g>
    <g id="ytick_5">
     <g id="line2d_31">
      <path d="M 59.42125 127.755463 
L 414.512159 127.755463 
" clip-path="url(#pa18729d49c)" style="fill: none; stroke: #b0b0b0; stroke-width: 0.8; stroke-linecap: square"/>
     </g>
     <g id="line2d_32">
      <g>
       <use xlink:href="#mf18af424fb" x="59.42125" y="127.755463" style="stroke: #000000; stroke-width: 0.8"/>
      </g>
     </g>
     <g id="line2d_33">
      <g>
       <use xlink:href="#mae7f631378" x="414.512159" y="127.755463" style="stroke: #000000; stroke-width: 0.8"/>
      </g>
     </g>
     <g id="text_12">
      <!-- 0.70 -->
      <g transform="translate(24.749375 133.074369) scale(0.14 -0.14)">
       <use xlink:href="#DejaVuSans-30"/>
       <use xlink:href="#DejaVuSans-2e" transform="translate(63.623047 0)"/>
       <use xlink:href="#DejaVuSans-37" transform="translate(95.410156 0)"/>
       <use xlink:href="#DejaVuSans-30" transform="translate(159.033203 0)"/>
      </g>
     </g>
    </g>
    <g id="ytick_6">
     <g id="line2d_34">
      <path d="M 59.42125 80.190072 
L 414.512159 80.190072 
" clip-path="url(#pa18729d49c)" style="fill: none; stroke: #b0b0b0; stroke-width: 0.8; stroke-linecap: square"/>
     </g>
     <g id="line2d_35">
      <g>
       <use xlink:href="#mf18af424fb" x="59.42125" y="80.190072" style="stroke: #000000; stroke-width: 0.8"/>
      </g>
     </g>
     <g id="line2d_36">
      <g>
       <use xlink:href="#mae7f631378" x="414.512159" y="80.190072" style="stroke: #000000; stroke-width: 0.8"/>
      </g>
     </g>
     <g id="text_13">
      <!-- 0.75 -->
      <g transform="translate(24.749375 85.508979) scale(0.14 -0.14)">
       <use xlink:href="#DejaVuSans-30"/>
       <use xlink:href="#DejaVuSans-2e" transform="translate(63.623047 0)"/>
       <use xlink:href="#DejaVuSans-37" transform="translate(95.410156 0)"/>
       <use xlink:href="#DejaVuSans-35" transform="translate(159.033203 0)"/>
      </g>
     </g>
    </g>
    <g id="ytick_7">
     <g id="line2d_37">
      <path d="M 59.42125 32.624682 
L 414.512159 32.624682 
" clip-path="url(#pa18729d49c)" style="fill: none; stroke: #b0b0b0; stroke-width: 0.8; stroke-linecap: square"/>
     </g>
     <g id="line2d_38">
      <g>
       <use xlink:href="#mf18af424fb" x="59.42125" y="32.624682" style="stroke: #000000; stroke-width: 0.8"/>
      </g>
     </g>
     <g id="line2d_39">
      <g>
       <use xlink:href="#mae7f631378" x="414.512159" y="32.624682" style="stroke: #000000; stroke-width: 0.8"/>
      </g>
     </g>
     <g id="text_14">
      <!-- 0.80 -->
      <g transform="translate(24.749375 37.943589) scale(0.14 -0.14)">
       <use xlink:href="#DejaVuSans-30"/>
       <use xlink:href="#DejaVuSans-2e" transform="translate(63.623047 0)"/>
       <use xlink:href="#DejaVuSans-38" transform="translate(95.410156 0)"/>
       <use xlink:href="#DejaVuSans-30" transform="translate(159.033203 0)"/>
      </g>
     </g>
    </g>
    <g id="text_15">
     <!-- Lift coefficient $C_L$ -->
     <g transform="translate(17.837812 251.2) rotate(-90) scale(0.14 -0.14)">
      <defs>
       <path id="DejaVuSans-4c" d="M 628 4666 
L 1259 4666 
L 1259 531 
L 3531 531 
L 3531 0 
L 628 0 
L 628 4666 
z
" transform="scale(0.015625)"/>
       <path id="DejaVuSans-69" d="M 603 3500 
L 1178 3500 
L 1178 0 
L 603 0 
L 603 3500 
z
M 603 4863 
L 1178 4863 
L 1178 4134 
L 603 4134 
L 603 4863 
z
" transform="scale(0.015625)"/>
       <path id="DejaVuSans-Oblique-43" d="M 4447 4306 
L 4319 3641 
Q 4019 3944 3683 4091 
Q 3347 4238 2956 4238 
Q 2422 4238 2017 3981 
Q 1613 3725 1319 3200 
Q 1131 2863 1032 2486 
Q 934 2109 934 1728 
Q 934 1091 1264 756 
Q 1594 422 2222 422 
Q 2656 422 3056 561 
Q 3456 700 3834 978 
L 3688 231 
Q 3316 72 2936 -9 
Q 2556 -91 2175 -91 
Q 1278 -91 773 396 
Q 269 884 269 1753 
Q 269 2309 461 2846 
Q 653 3384 1013 3828 
Q 1394 4300 1883 4525 
Q 2372 4750 3022 4750 
Q 3422 4750 3780 4639 
Q 4138 4528 4447 4306 
z
" transform="scale(0.015625)"/>
       <path id="DejaVuSans-Oblique-4c" d="M 1075 4666 
L 1709 4666 
L 909 525 
L 3181 525 
L 3078 0 
L 172 0 
L 1075 4666 
z
" transform="scale(0.015625)"/>
      </defs>
      <use xlink:href="#DejaVuSans-4c" transform="translate(0 0.015625)"/>
      <use xlink:href="#DejaVuSans-69" transform="translate(55.712891 0.015625)"/>
      <use xlink:href="#DejaVuSans-66" transform="translate(83.496094 0.015625)"/>
      <use xlink:href="#DejaVuSans-74" transform="translate(118.701172 0.015625)"/>
      <use xlink:href="#DejaVuSans-20" transform="translate(157.910156 0.015625)"/>
      <use xlink:href="#DejaVuSans-63" transform="translate(189.697266 0.015625)"/>
      <use xlink:href="#DejaVuSans-6f" transform="translate(244.677734 0.015625)"/>
      <use xlink:href="#DejaVuSans-65" transform="translate(305.859375 0.015625)"/>
      <use xlink:href="#DejaVuSans-66" transform="translate(367.382812 0.015625)"/>
      <use xlink:href="#DejaVuSans-66" transform="translate(402.587891 0.015625)"/>
      <use xlink:href="#DejaVuSans-69" transform="translate(437.792969 0.015625)"/>
      <use xlink:href="#DejaVuSans-63" transform="translate(465.576172 0.015625)"/>
      <use xlink:href="#DejaVuSans-69" transform="translate(520.556641 0.015625)"/>
      <use xlink:href="#DejaVuSans-65" transform="translate(548.339844 0.015625)"/>
      <use xlink:href="#DejaVuSans-6e" transform="translate(609.863281 0.015625)"/>
      <use xlink:href="#DejaVuSans-74" transform="translate(673.242188 0.015625)"/>
      <use xlink:href="#DejaVuSans-20" transform="translate(712.451172 0.015625)"/>
      <use xlink:href="#DejaVuSans-Oblique-43" transform="translate(744.238281 0.015625)"/>
      <use xlink:href="#DejaVuSans-Oblique-4c" transform="translate(814.0625 -16.390625) scale(0.7)"/>
     </g>
    </g>
   </g>
   <g id="LineCollection_1">
    <path d="M 75.561746 342.373802 
L 75.561746 84.615538 
" clip-path="url(#pa18729d49c)" style="fill: none; stroke: #b71c1c"/>
    <path d="M 102.462572 341.758826 
L 102.462572 85.108998 
" clip-path="url(#pa18729d49c)" style="fill: none; stroke: #b71c1c"/>
    <path d="M 156.264225 342.34874 
L 156.264225 82.265659 
" clip-path="url(#pa18729d49c)" style="fill: none; stroke: #b71c1c"/>
   </g>
   <g id="line2d_40">
    <defs>
     <path id="m7f4f7728de" d="M 3 0 
L -3 -0 
" style="stroke: #b71c1c"/>
    </defs>
    <g clip-path="url(#pa18729d49c)">
     <use xlink:href="#m7f4f7728de" x="75.561746" y="342.373802" style="fill: #b71c1c; stroke: #b71c1c"/>
     <use xlink:href="#m7f4f7728de" x="102.462572" y="341.758826" style="fill: #b71c1c; stroke: #b71c1c"/>
     <use xlink:href="#m7f4f7728de" x="156.264225" y="342.34874" style="fill: #b71c1c; stroke: #b71c1c"/>
    </g>
   </g>
   <g id="line2d_41">
    <g clip-path="url(#pa18729d49c)">
     <use xlink:href="#m7f4f7728de" x="75.561746" y="84.615538" style="fill: #b71c1c; stroke: #b71c1c"/>
     <use xlink:href="#m7f4f7728de" x="102.462572" y="85.108998" style="fill: #b71c1c; stroke: #b71c1c"/>
     <use xlink:href="#m7f4f7728de" x="156.264225" y="82.265659" style="fill: #b71c1c; stroke: #b71c1c"/>
    </g>
   </g>
   <g id="LineCollection_2">
    <path d="M 183.165052 341.260496 
L 183.165052 81.817982 
" clip-path="url(#pa18729d49c)" style="fill: none; stroke: #1a237e"/>
   </g>
   <g id="line2d_42">
    <defs>
     <path id="m312499b76d" d="M 3 0 
L -3 -0 
" style="stroke: #1a237e"/>
    </defs>
    <g clip-path="url(#pa18729d49c)">
     <use xlink:href="#m312499b76d" x="183.165052" y="341.260496" style="fill: #1a237e; stroke: #1a237e"/>
    </g>
   </g>
   <g id="line2d_43">
    <g clip-path="url(#pa18729d49c)">
     <use xlink:href="#m312499b76d" x="183.165052" y="81.817982" style="fill: #1a237e; stroke: #1a237e"/>
    </g>
   </g>
   <g id="LineCollection_3">
    <path d="M 129.363399 315.440121 
L 129.363399 40.08 
" clip-path="url(#pa18729d49c)" style="fill: none; stroke: #33691e"/>
   </g>
   <g id="line2d_44">
    <defs>
     <path id="mdb4ba096e7" d="M 3 0 
L -3 -0 
" style="stroke: #33691e"/>
    </defs>
    <g clip-path="url(#pa18729d49c)">
     <use xlink:href="#mdb4ba096e7" x="129.363399" y="315.440121" style="fill: #33691e; stroke: #33691e"/>
    </g>
   </g>
   <g id="line2d_45">
    <g clip-path="url(#pa18729d49c)">
     <use xlink:href="#mdb4ba096e7" x="129.363399" y="40.08" style="fill: #33691e; stroke: #33691e"/>
    </g>
   </g>
   <g id="LineCollection_4">
    <path d="M 398.371663 342.48 
L 398.371663 56.243796 
" clip-path="url(#pa18729d49c)" style="fill: none; stroke: #b71c1c"/>
   </g>
   <g id="line2d_46">
    <g clip-path="url(#pa18729d49c)">
     <use xlink:href="#m7f4f7728de" x="398.371663" y="342.48" style="fill: #b71c1c; stroke: #b71c1c"/>
    </g>
   </g>
   <g id="line2d_47">
    <g clip-path="url(#pa18729d49c)">
     <use xlink:href="#m7f4f7728de" x="398.371663" y="56.243796" style="fill: #b71c1c; stroke: #b71c1c"/>
    </g>
   </g>
   <g id="LineCollection_5"/>
   <g id="LineCollection_6"/>
   <g id="line2d_48">
    <defs>
     <path id="m895f221682" d="M 0 3 
C 0.795609 3 1.55874 2.683901 2.12132 2.12132 
C 2.683901 1.55874 3 0.795609 3 0 
C 3 -0.795609 2.683901 -1.55874 2.12132 -2.12132 
C 1.55874 -2.683901 0.795609 -3 0 -3 
C -0.795609 -3 -1.55874 -2.683901 -2.12132 -2.12132 
C -2.683901 -1.55874 -3 -0.795609 -3 0 
C -3 0.795609 -2.683901 1.55874 -2.12132 2.12132 
C -1.55874 2.683901 -0.795609 3 0 3 
z
" style="stroke: #b71c1c"/>
    </defs>
    <g clip-path="url(#pa18729d49c)">
     <use xlink:href="#m895f221682" x="75.561746" y="213.49467" style="fill-opacity: 0; stroke: #b71c1c"/>
     <use xlink:href="#m895f221682" x="102.462572" y="213.433912" style="fill-opacity: 0; stroke: #b71c1c"/>
     <use xlink:href="#m895f221682" x="156.264225" y="212.307199" style="fill-opacity: 0; stroke: #b71c1c"/>
    </g>
   </g>
   <g id="line2d_49">
    <defs>
     <path id="mcbd725bff1" d="M -0 3 
L 3 -3 
L -3 -3 
z
" style="stroke: #1a237e; stroke-linejoin: miter"/>
    </defs>
    <g clip-path="url(#pa18729d49c)">
     <use xlink:href="#mcbd725bff1" x="183.165052" y="211.539239" style="fill-opacity: 0; stroke: #1a237e; stroke-linejoin: miter"/>
    </g>
   </g>
   <g id="line2d_50">
    <defs>
     <path id="m03a130b306" d="M -3 3 
L 3 3 
L 3 -3 
L -3 -3 
z
" style="stroke: #33691e; stroke-linejoin: miter"/>
    </defs>
    <g clip-path="url(#pa18729d49c)">
     <use xlink:href="#m03a130b306" x="129.363399" y="177.76006" style="fill-opacity: 0; stroke: #33691e; stroke-linejoin: miter"/>
    </g>
   </g>
   <g id="line2d_51">
    <g clip-path="url(#pa18729d49c)">
     <use xlink:href="#m895f221682" x="398.371663" y="199.361898" style="fill-opacity: 0; stroke: #b71c1c"/>
    </g>
   </g>
   <g id="line2d_52"/>
   <g id="line2d_53"/>
   <g id="patch_3">
    <path d="M 59.42125 357.6 
L 59.42125 24.96 
" style="fill: none; stroke: #000000; stroke-width: 0.8; stroke-linejoin: miter; stroke-linecap: square"/>
   </g>
   <g id="patch_4">
    <path d="M 414.512159 357.6 
L 414.512159 24.96 
" style="fill: none; stroke: #000000; stroke-width: 0.8; stroke-linejoin: miter; stroke-linecap: square"/>
   </g>
   <g id="patch_5">
    <path d="M 59.42125 357.6 
L 414.512159 357.6 
" style="fill: none; stroke: #000000; stroke-width: 0.8; stroke-linejoin: miter; stroke-linecap: square"/>
   </g>
   <g id="patch_6">
    <path d="M 59.42125 24.96 
L 414.512159 24.96 
" style="fill: none; stroke: #000000; stroke-width: 0.8; stroke-linejoin: miter; stroke-linecap: square"/>
   </g>
   <g id="text_16">
    <!-- NACA4412 -->
    <g transform="translate(199.572486 18.96) scale(0.14 -0.14)">
     <defs>
      <path id="DejaVuSans-4e" d="M 628 4666 
L 1478 4666 
L 3547 763 
L 3547 4666 
L 4159 4666 
L 4159 0 
L 3309 0 
L 1241 3903 
L 1241 0 
L 628 0 
L 628 4666 
z
" transform="scale(0.015625)"/>
      <path id="DejaVuSans-43" d="M 4122 4306 
L 4122 3641 
Q 3803 3938 3442 4084 
Q 3081 4231 2675 4231 
Q 1875 4231 1450 3742 
Q 1025 3253 1025 2328 
Q 1025 1406 1450 917 
Q 1875 428 2675 428 
Q 3081 428 3442 575 
Q 3803 722 4122 1019 
L 4122 359 
Q 3791 134 3420 21 
Q 3050 -91 2638 -91 
Q 1578 -91 968 557 
Q 359 1206 359 2328 
Q 359 3453 968 4101 
Q 1578 4750 2638 4750 
Q 3056 4750 3426 4639 
Q 3797 4528 4122 4306 
z
" transform="scale(0.015625)"/>
      <path id="DejaVuSans-34" d="M 2419 4116 
L 825 1625 
L 2419 1625 
L 2419 4116 
z
M 2253 4666 
L 3047 4666 
L 3047 1625 
L 3713 1625 
L 3713 1100 
L 3047 1100 
L 3047 0 
L 2419 0 
L 2419 1100 
L 313 1100 
L 313 1709 
L 2253 4666 
z
" transform="scale(0.015625)"/>
     </defs>
     <use xlink:href="#DejaVuSans-4e"/>
     <use xlink:href="#DejaVuSans-41" transform="translate(74.804688 0)"/>
     <use xlink:href="#DejaVuSans-43" transform="translate(141.462891 0)"/>
     <use xlink:href="#DejaVuSans-41" transform="translate(211.287109 0)"/>
     <use xlink:href="#DejaVuSans-34" transform="translate(279.695312 0)"/>
     <use xlink:href="#DejaVuSans-34" transform="translate(343.318359 0)"/>
     <use xlink:href="#DejaVuSans-31" transform="translate(406.941406 0)"/>
     <use xlink:href="#DejaVuSans-32" transform="translate(470.564453 0)"/>
    </g>
   </g>
   <g id="legend_1">
    <g id="patch_7">
     <path d="M 67.82125 203.93 
L 176.92125 203.93 
Q 179.32125 203.93 179.32125 201.53 
L 179.32125 181.03 
Q 179.32125 178.63 176.92125 178.63 
L 67.82125 178.63 
Q 65.42125 178.63 65.42125 181.03 
L 65.42125 201.53 
Q 65.42125 203.93 67.82125 203.93 
z
" style="fill: #ffffff; opacity: 0.8; stroke: #cccccc; stroke-linejoin: miter"/>
    </g>
    <g id="text_17">
     <!-- Reynolds number $Re$ -->
     <g transform="translate(70.22125 191.03) scale(0.1 -0.1)">
      <defs>
       <path id="DejaVuSans-52" d="M 2841 2188 
Q 3044 2119 3236 1894 
Q 3428 1669 3622 1275 
L 4263 0 
L 3584 0 
L 2988 1197 
Q 2756 1666 2539 1819 
Q 2322 1972 1947 1972 
L 1259 1972 
L 1259 0 
L 628 0 
L 628 4666 
L 2053 4666 
Q 2853 4666 3247 4331 
Q 3641 3997 3641 3322 
Q 3641 2881 3436 2590 
Q 3231 2300 2841 2188 
z
M 1259 4147 
L 1259 2491 
L 2053 2491 
Q 2509 2491 2742 2702 
Q 2975 2913 2975 3322 
Q 2975 3731 2742 3939 
Q 2509 4147 2053 4147 
L 1259 4147 
z
" transform="scale(0.015625)"/>
       <path id="DejaVuSans-79" d="M 2059 -325 
Q 1816 -950 1584 -1140 
Q 1353 -1331 966 -1331 
L 506 -1331 
L 506 -850 
L 844 -850 
Q 1081 -850 1212 -737 
Q 1344 -625 1503 -206 
L 1606 56 
L 191 3500 
L 800 3500 
L 1894 763 
L 2988 3500 
L 3597 3500 
L 2059 -325 
z
" transform="scale(0.015625)"/>
       <path id="DejaVuSans-64" d="M 2906 2969 
L 2906 4863 
L 3481 4863 
L 3481 0 
L 2906 0 
L 2906 525 
Q 2725 213 2448 61 
Q 2172 -91 1784 -91 
Q 1150 -91 751 415 
Q 353 922 353 1747 
Q 353 2572 751 3078 
Q 1150 3584 1784 3584 
Q 2172 3584 2448 3432 
Q 2725 3281 2906 2969 
z
M 947 1747 
Q 947 1113 1208 752 
Q 1469 391 1925 391 
Q 2381 391 2643 752 
Q 2906 1113 2906 1747 
Q 2906 2381 2643 2742 
Q 2381 3103 1925 3103 
Q 1469 3103 1208 2742 
Q 947 2381 947 1747 
z
" transform="scale(0.015625)"/>
       <path id="DejaVuSans-73" d="M 2834 3397 
L 2834 2853 
Q 2591 2978 2328 3040 
Q 2066 3103 1784 3103 
Q 1356 3103 1142 2972 
Q 928 2841 928 2578 
Q 928 2378 1081 2264 
Q 1234 2150 1697 2047 
L 1894 2003 
Q 2506 1872 2764 1633 
Q 3022 1394 3022 966 
Q 3022 478 2636 193 
Q 2250 -91 1575 -91 
Q 1294 -91 989 -36 
Q 684 19 347 128 
L 347 722 
Q 666 556 975 473 
Q 1284 391 1588 391 
Q 1994 391 2212 530 
Q 2431 669 2431 922 
Q 2431 1156 2273 1281 
Q 2116 1406 1581 1522 
L 1381 1569 
Q 847 1681 609 1914 
Q 372 2147 372 2553 
Q 372 3047 722 3315 
Q 1072 3584 1716 3584 
Q 2034 3584 2315 3537 
Q 2597 3491 2834 3397 
z
" transform="scale(0.015625)"/>
       <path id="DejaVuSans-75" d="M 544 1381 
L 544 3500 
L 1119 3500 
L 1119 1403 
Q 1119 906 1312 657 
Q 1506 409 1894 409 
Q 2359 409 2629 706 
Q 2900 1003 2900 1516 
L 2900 3500 
L 3475 3500 
L 3475 0 
L 2900 0 
L 2900 538 
Q 2691 219 2414 64 
Q 2138 -91 1772 -91 
Q 1169 -91 856 284 
Q 544 659 544 1381 
z
M 1991 3584 
L 1991 3584 
z
" transform="scale(0.015625)"/>
       <path id="DejaVuSans-6d" d="M 3328 2828 
Q 3544 3216 3844 3400 
Q 4144 3584 4550 3584 
Q 5097 3584 5394 3201 
Q 5691 2819 5691 2113 
L 5691 0 
L 5113 0 
L 5113 2094 
Q 5113 2597 4934 2840 
Q 4756 3084 4391 3084 
Q 3944 3084 3684 2787 
Q 3425 2491 3425 1978 
L 3425 0 
L 2847 0 
L 2847 2094 
Q 2847 2600 2669 2842 
Q 2491 3084 2119 3084 
Q 1678 3084 1418 2786 
Q 1159 2488 1159 1978 
L 1159 0 
L 581 0 
L 581 3500 
L 1159 3500 
L 1159 2956 
Q 1356 3278 1631 3431 
Q 1906 3584 2284 3584 
Q 2666 3584 2933 3390 
Q 3200 3197 3328 2828 
z
" transform="scale(0.015625)"/>
       <path id="DejaVuSans-62" d="M 3116 1747 
Q 3116 2381 2855 2742 
Q 2594 3103 2138 3103 
Q 1681 3103 1420 2742 
Q 1159 2381 1159 1747 
Q 1159 1113 1420 752 
Q 1681 391 2138 391 
Q 2594 391 2855 752 
Q 3116 1113 3116 1747 
z
M 1159 2969 
Q 1341 3281 1617 3432 
Q 1894 3584 2278 3584 
Q 2916 3584 3314 3078 
Q 3713 2572 3713 1747 
Q 3713 922 3314 415 
Q 2916 -91 2278 -91 
Q 1894 -91 1617 61 
Q 1341 213 1159 525 
L 1159 0 
L 581 0 
L 581 4863 
L 1159 4863 
L 1159 2969 
z
" transform="scale(0.015625)"/>
       <path id="DejaVuSans-72" d="M 2631 2963 
Q 2534 3019 2420 3045 
Q 2306 3072 2169 3072 
Q 1681 3072 1420 2755 
Q 1159 2438 1159 1844 
L 1159 0 
L 581 0 
L 581 3500 
L 1159 3500 
L 1159 2956 
Q 1341 3275 1631 3429 
Q 1922 3584 2338 3584 
Q 2397 3584 2469 3576 
Q 2541 3569 2628 3553 
L 2631 2963 
z
" transform="scale(0.015625)"/>
       <path id="DejaVuSans-Oblique-52" d="M 1613 4147 
L 1294 2491 
L 2106 2491 
Q 2584 2491 2879 2755 
Q 3175 3019 3175 3444 
Q 3175 3784 2976 3965 
Q 2778 4147 2406 4147 
L 1613 4147 
z
M 2772 2241 
Q 2972 2194 3105 2009 
Q 3238 1825 3413 1275 
L 3809 0 
L 3144 0 
L 2778 1197 
Q 2638 1659 2453 1815 
Q 2269 1972 1888 1972 
L 1191 1972 
L 806 0 
L 172 0 
L 1081 4666 
L 2503 4666 
Q 3150 4666 3495 4373 
Q 3841 4081 3841 3531 
Q 3841 3044 3547 2687 
Q 3253 2331 2772 2241 
z
" transform="scale(0.015625)"/>
       <path id="DejaVuSans-Oblique-65" d="M 3078 2063 
Q 3088 2113 3092 2166 
Q 3097 2219 3097 2272 
Q 3097 2653 2873 2875 
Q 2650 3097 2266 3097 
Q 1838 3097 1509 2826 
Q 1181 2556 1013 2059 
L 3078 2063 
z
M 3578 1613 
L 903 1613 
Q 884 1494 878 1425 
Q 872 1356 872 1306 
Q 872 872 1139 634 
Q 1406 397 1894 397 
Q 2269 397 2603 481 
Q 2938 566 3225 728 
L 3116 159 
Q 2806 34 2476 -28 
Q 2147 -91 1806 -91 
Q 1078 -91 686 257 
Q 294 606 294 1247 
Q 294 1794 489 2264 
Q 684 2734 1063 3103 
Q 1306 3334 1642 3459 
Q 1978 3584 2356 3584 
Q 2950 3584 3301 3228 
Q 3653 2872 3653 2272 
Q 3653 2128 3634 1964 
Q 3616 1800 3578 1613 
z
" transform="scale(0.015625)"/>
      </defs>
      <use xlink:href="#DejaVuSans-52" transform="translate(0 0.015625)"/>
      <use xlink:href="#DejaVuSans-65" transform="translate(69.482422 0.015625)"/>
      <use xlink:href="#DejaVuSans-79" transform="translate(131.005859 0.015625)"/>
      <use xlink:href="#DejaVuSans-6e" transform="translate(190.185547 0.015625)"/>
      <use xlink:href="#DejaVuSans-6f" transform="translate(253.564453 0.015625)"/>
      <use xlink:href="#DejaVuSans-6c" transform="translate(314.746094 0.015625)"/>
      <use xlink:href="#DejaVuSans-64" transform="translate(342.529297 0.015625)"/>
      <use xlink:href="#DejaVuSans-73" transform="translate(406.005859 0.015625)"/>
      <use xlink:href="#DejaVuSans-20" transform="translate(458.105469 0.015625)"/>
      <use xlink:href="#DejaVuSans-6e" transform="translate(489.892578 0.015625)"/>
      <use xlink:href="#DejaVuSans-75" transform="translate(553.271484 0.015625)"/>
      <use xlink:href="#DejaVuSans-6d" transform="translate(616.650391 0.015625)"/>
      <use xlink:href="#DejaVuSans-62" transform="translate(714.0625 0.015625)"/>
      <use xlink:href="#DejaVuSans-65" transform="translate(777.539062 0.015625)"/>
      <use xlink:href="#DejaVuSans-72" transform="translate(839.0625 0.015625)"/>
      <use xlink:href="#DejaVuSans-20" transform="translate(880.175781 0.015625)"/>
      <use xlink:href="#DejaVuSans-Oblique-52" transform="translate(911.962891 0.015625)"/>
      <use xlink:href="#DejaVuSans-Oblique-65" transform="translate(981.445312 0.015625)"/>
     </g>
    </g>
   </g>
  </g>
  <g id="axes_2">
   <g id="patch_8">
    <path d="M 485.530341 357.6 
L 840.62125 357.6 
L 840.62125 24.96 
L 485.530341 24.96 
z
" style="fill: #ffffff"/>
   </g>
   <g id="matplotlib.axis_3">
    <g id="xtick_7">
     <g id="line2d_54">
      <path d="M 501.670837 357.6 
L 501.670837 24.96 
" clip-path="url(#p60440b7c6a)" style="fill: none; stroke: #b0b0b0; stroke-width: 0.8; stroke-linecap: square"/>
     </g>
     <g id="line2d_55">
      <g>
       <use xlink:href="#mb5c5a50a0b" x="501.670837" y="357.6" style="stroke: #000000; stroke-width: 0.8"/>
      </g>
     </g>
     <g id="line2d_56">
      <g>
       <use xlink:href="#m0886eaecc4" x="501.670837" y="24.96" style="stroke: #000000; stroke-width: 0.8"/>
      </g>
     </g>
     <g id="text_18">
      <!-- 18.0 -->
      <g transform="translate(486.084899 371.737812) scale(0.14 -0.14)">
       <use xlink:href="#DejaVuSans-31"/>
       <use xlink:href="#DejaVuSans-38" transform="translate(63.623047 0)"/>
       <use xlink:href="#DejaVuSans-2e" transform="translate(127.246094 0)"/>
       <use xlink:href="#DejaVuSans-30" transform="translate(159.033203 0)"/>
      </g>
     </g>
    </g>
    <g id="xtick_8">
     <g id="line2d_57">
      <path d="M 582.373316 357.6 
L 582.373316 24.96 
" clip-path="url(#p60440b7c6a)" style="fill: none; stroke: #b0b0b0; stroke-width: 0.8; stroke-linecap: square"/>
     </g>
     <g id="line2d_58">
      <g>
       <use xlink:href="#mb5c5a50a0b" x="582.373316" y="357.6" style="stroke: #000000; stroke-width: 0.8"/>
      </g>
     </g>
     <g id="line2d_59">
      <g>
       <use xlink:href="#m0886eaecc4" x="582.373316" y="24.96" style="stroke: #000000; stroke-width: 0.8"/>
      </g>
     </g>
     <g id="text_19">
      <!-- 18.5 -->
      <g transform="translate(566.787379 371.737812) scale(0.14 -0.14)">
       <use xlink:href="#DejaVuSans-31"/>
       <use xlink:href="#DejaVuSans-38" transform="translate(63.623047 0)"/>
       <use xlink:href="#DejaVuSans-2e" transform="translate(127.246094 0)"/>
       <use xlink:href="#DejaVuSans-35" transform="translate(159.033203 0)"/>
      </g>
     </g>
    </g>
    <g id="xtick_9">
     <g id="line2d_60">
      <path d="M 663.075795 357.6 
L 663.075795 24.96 
" clip-path="url(#p60440b7c6a)" style="fill: none; stroke: #b0b0b0; stroke-width: 0.8; stroke-linecap: square"/>
     </g>
     <g id="line2d_61">
      <g>
       <use xlink:href="#mb5c5a50a0b" x="663.075795" y="357.6" style="stroke: #000000; stroke-width: 0.8"/>
      </g>
     </g>
     <g id="line2d_62">
      <g>
       <use xlink:href="#m0886eaecc4" x="663.075795" y="24.96" style="stroke: #000000; stroke-width: 0.8"/>
      </g>
     </g>
     <g id="text_20">
      <!-- 19.0 -->
      <g transform="translate(647.489858 371.737812) scale(0.14 -0.14)">
       <use xlink:href="#DejaVuSans-31"/>
       <use xlink:href="#DejaVuSans-39" transform="translate(63.623047 0)"/>
       <use xlink:href="#DejaVuSans-2e" transform="translate(127.246094 0)"/>
       <use xlink:href="#DejaVuSans-30" transform="translate(159.033203 0)"/>
      </g>
     </g>
    </g>
    <g id="xtick_10">
     <g id="line2d_63">
      <path d="M 743.778275 357.6 
L 743.778275 24.96 
" clip-path="url(#p60440b7c6a)" style="fill: none; stroke: #b0b0b0; stroke-width: 0.8; stroke-linecap: square"/>
     </g>
     <g id="line2d_64">
      <g>
       <use xlink:href="#mb5c5a50a0b" x="743.778275" y="357.6" style="stroke: #000000; stroke-width: 0.8"/>
      </g>
     </g>
     <g id="line2d_65">
      <g>
       <use xlink:href="#m0886eaecc4" x="743.778275" y="24.96" style="stroke: #000000; stroke-width: 0.8"/>
      </g>
     </g>
     <g id="text_21">
      <!-- 19.5 -->
      <g transform="translate(728.192337 371.737812) scale(0.14 -0.14)">
       <use xlink:href="#DejaVuSans-31"/>
       <use xlink:href="#DejaVuSans-39" transform="translate(63.623047 0)"/>
       <use xlink:href="#DejaVuSans-2e" transform="translate(127.246094 0)"/>
       <use xlink:href="#DejaVuSans-35" transform="translate(159.033203 0)"/>
      </g>
     </g>
    </g>
    <g id="xtick_11">
     <g id="line2d_66">
      <path d="M 824.480754 357.6 
L 824.480754 24.96 
" clip-path="url(#p60440b7c6a)" style="fill: none; stroke: #b0b0b0; stroke-width: 0.8; stroke-linecap: square"/>
     </g>
     <g id="line2d_67">
      <g>
       <use xlink:href="#mb5c5a50a0b" x="824.480754" y="357.6" style="stroke: #000000; stroke-width: 0.8"/>
      </g>
     </g>
     <g id="line2d_68">
      <g>
       <use xlink:href="#m0886eaecc4" x="824.480754" y="24.96" style="stroke: #000000; stroke-width: 0.8"/>
      </g>
     </g>
     <g id="text_22">
      <!-- 20.0 -->
      <g transform="translate(808.894817 371.737812) scale(0.14 -0.14)">
       <use xlink:href="#DejaVuSans-32"/>
       <use xlink:href="#DejaVuSans-30" transform="translate(63.623047 0)"/>
       <use xlink:href="#DejaVuSans-2e" transform="translate(127.246094 0)"/>
       <use xlink:href="#DejaVuSans-30" transform="translate(159.033203 0)"/>
      </g>
     </g>
    </g>
    <g id="text_23">
     <!-- Angle of attack $\alpha$ (°) -->
     <g transform="translate(591.955795 389.289375) scale(0.14 -0.14)">
      <use xlink:href="#DejaVuSans-41" transform="translate(0 0.015625)"/>
      <use xlink:href="#DejaVuSans-6e" transform="translate(68.408203 0.015625)"/>
      <use xlink:href="#DejaVuSans-67" transform="translate(131.787109 0.015625)"/>
      <use xlink:href="#DejaVuSans-6c" transform="translate(195.263672 0.015625)"/>
      <use xlink:href="#DejaVuSans-65" transform="translate(223.046875 0.015625)"/>
      <use xlink:href="#DejaVuSans-20" transform="translate(284.570312 0.015625)"/>
      <use xlink:href="#DejaVuSans-6f" transform="translate(316.357422 0.015625)"/>
      <use xlink:href="#DejaVuSans-66" transform="translate(377.539062 0.015625)"/>
      <use xlink:href="#DejaVuSans-20" transform="translate(412.744141 0.015625)"/>
      <use xlink:href="#DejaVuSans-61" transform="translate(444.53125 0.015625)"/>
      <use xlink:href="#DejaVuSans-74" transform="translate(505.810547 0.015625)"/>
      <use xlink:href="#DejaVuSans-74" transform="translate(545.019531 0.015625)"/>
      <use xlink:href="#DejaVuSans-61" transform="translate(584.228516 0.015625)"/>
      <use xlink:href="#DejaVuSans-63" transform="translate(645.507812 0.015625)"/>
      <use xlink:href="#DejaVuSans-6b" transform="translate(700.488281 0.015625)"/>
      <use xlink:href="#DejaVuSans-20" transform="translate(758.398438 0.015625)"/>
      <use xlink:href="#DejaVuSans-Oblique-3b1" transform="translate(790.185547 0.015625)"/>
      <use xlink:href="#DejaVuSans-20" transform="translate(856.103516 0.015625)"/>
      <use xlink:href="#DejaVuSans-28" transform="translate(887.890625 0.015625)"/>
      <use xlink:href="#DejaVuSans-b0" transform="translate(926.904297 0.015625)"/>
      <use xlink:href="#DejaVuSans-29" transform="translate(976.904297 0.015625)"/>
     </g>
    </g>
   </g>
   <g id="matplotlib.axis_4">
    <g id="ytick_8">
     <g id="line2d_69">
      <path d="M 485.530341 344.009051 
L 840.62125 344.009051 
" clip-path="url(#p60440b7c6a)" style="fill: none; stroke: #b0b0b0; stroke-width: 0.8; stroke-linecap: square"/>
     </g>
     <g id="line2d_70">
      <g>
       <use xlink:href="#mf18af424fb" x="485.530341" y="344.009051" style="stroke: #000000; stroke-width: 0.8"/>
      </g>
     </g>
     <g id="line2d_71">
      <g>
       <use xlink:href="#mae7f631378" x="840.62125" y="344.009051" style="stroke: #000000; stroke-width: 0.8"/>
      </g>
     </g>
     <g id="text_24">
      <!-- 0.45 -->
      <g transform="translate(450.858466 349.327958) scale(0.14 -0.14)">
       <use xlink:href="#DejaVuSans-30"/>
       <use xlink:href="#DejaVuSans-2e" transform="translate(63.623047 0)"/>
       <use xlink:href="#DejaVuSans-34" transform="translate(95.410156 0)"/>
       <use xlink:href="#DejaVuSans-35" transform="translate(159.033203 0)"/>
      </g>
     </g>
    </g>
    <g id="ytick_9">
     <g id="line2d_72">
      <path d="M 485.530341 287.430233 
L 840.62125 287.430233 
" clip-path="url(#p60440b7c6a)" style="fill: none; stroke: #b0b0b0; stroke-width: 0.8; stroke-linecap: square"/>
     </g>
     <g id="line2d_73">
      <g>
       <use xlink:href="#mf18af424fb" x="485.530341" y="287.430233" style="stroke: #000000; stroke-width: 0.8"/>
      </g>
     </g>
     <g id="line2d_74">
      <g>
       <use xlink:href="#mae7f631378" x="840.62125" y="287.430233" style="stroke: #000000; stroke-width: 0.8"/>
      </g>
     </g>
     <g id="text_25">
      <!-- 0.50 -->
      <g transform="translate(450.858466 292.749139) scale(0.14 -0.14)">
       <use xlink:href="#DejaVuSans-30"/>
       <use xlink:href="#DejaVuSans-2e" transform="translate(63.623047 0)"/>
       <use xlink:href="#DejaVuSans-35" transform="translate(95.410156 0)"/>
       <use xlink:href="#DejaVuSans-30" transform="translate(159.033203 0)"/>
      </g>
     </g>
    </g>
    <g id="ytick_10">
     <g id="line2d_75">
      <path d="M 485.530341 230.851415 
L 840.62125 230.851415 
" clip-path="url(#p60440b7c6a)" style="fill: none; stroke: #b0b0b0; stroke-width: 0.8; stroke-linecap: square"/>
     </g>
     <g id="line2d_76">
      <g>
       <use xlink:href="#mf18af424fb" x="485.530341" y="230.851415" style="stroke: #000000; stroke-width: 0.8"/>
      </g>
     </g>
     <g id="line2d_77">
      <g>
       <use xlink:href="#mae7f631378" x="840.62125" y="230.851415" style="stroke: #000000; stroke-width: 0.8"/>
      </g>
     </g>
     <g id="text_26">
      <!-- 0.55 -->
      <g transform="translate(450.858466 236.170321) scale(0.14 -0.14)">
       <use xlink:href="#DejaVuSans-30"/>
       <use xlink:href="#DejaVuSans-2e" transform="translate(63.623047 0)"/>
       <use xlink:href="#DejaVuSans-35" transform="translate(95.410156 0)"/>
       <use xlink:href="#DejaVuSans-35" transform="translate(159.033203 0)"/>
      </g>
     </g>
    </g>
    <g id="ytick_11">
     <g id="line2d_78">
      <path d="M 485.530341 174.272597 
L 840.62125 174.272597 
" clip-path="url(#p60440b7c6a)" style="fill: none; stroke: #b0b0b0; stroke-width: 0.8; stroke-linecap: square"/>
     </g>
     <g id="line2d_79">
      <g>
       <use xlink:href="#mf18af424fb" x="485.530341" y="174.272597" style="stroke: #000000; stroke-width: 0.8"/>
      </g>
     </g>
     <g id="line2d_80">
      <g>
       <use xlink:href="#mae7f631378" x="840.62125" y="174.272597" style="stroke: #000000; stroke-width: 0.8"/>
      </g>
     </g>
     <g id="text_27">
      <!-- 0.60 -->
      <g transform="translate(450.858466 179.591503) scale(0.14 -0.14)">
       <use xlink:href="#DejaVuSans-30"/>
       <use xlink:href="#DejaVuSans-2e" transform="translate(63.623047 0)"/>
       <use xlink:href="#DejaVuSans-36" transform="translate(95.410156 0)"/>
       <use xlink:href="#DejaVuSans-30" transform="translate(159.033203 0)"/>
      </g>
     </g>
    </g>
    <g id="ytick_12">
     <g id="line2d_81">
      <path d="M 485.530341 117.693779 
L 840.62125 117.693779 
" clip-path="url(#p60440b7c6a)" style="fill: none; stroke: #b0b0b0; stroke-width: 0.8; stroke-linecap: square"/>
     </g>
     <g id="line2d_82">
      <g>
       <use xlink:href="#mf18af424fb" x="485.530341" y="117.693779" style="stroke: #000000; stroke-width: 0.8"/>
      </g>
     </g>
     <g id="line2d_83">
      <g>
       <use xlink:href="#mae7f631378" x="840.62125" y="117.693779" style="stroke: #000000; stroke-width: 0.8"/>
      </g>
     </g>
     <g id="text_28">
      <!-- 0.65 -->
      <g transform="translate(450.858466 123.012685) scale(0.14 -0.14)">
       <use xlink:href="#DejaVuSans-30"/>
       <use xlink:href="#DejaVuSans-2e" transform="translate(63.623047 0)"/>
       <use xlink:href="#DejaVuSans-36" transform="translate(95.410156 0)"/>
       <use xlink:href="#DejaVuSans-35" transform="translate(159.033203 0)"/>
      </g>
     </g>
    </g>
    <g id="ytick_13">
     <g id="line2d_84">
      <path d="M 485.530341 61.114961 
L 840.62125 61.114961 
" clip-path="url(#p60440b7c6a)" style="fill: none; stroke: #b0b0b0; stroke-width: 0.8; stroke-linecap: square"/>
     </g>
     <g id="line2d_85">
      <g>
       <use xlink:href="#mf18af424fb" x="485.530341" y="61.114961" style="stroke: #000000; stroke-width: 0.8"/>
      </g>
     </g>
     <g id="line2d_86">
      <g>
       <use xlink:href="#mae7f631378" x="840.62125" y="61.114961" style="stroke: #000000; stroke-width: 0.8"/>
      </g>
     </g>
     <g id="text_29">
      <!-- 0.70 -->
      <g transform="translate(450.858466 66.433867) scale(0.14 -0.14)">
       <use xlink:href="#DejaVuSans-30"/>
       <use xlink:href="#DejaVuSans-2e" transform="translate(63.623047 0)"/>
       <use xlink:href="#DejaVuSans-37" transform="translate(95.410156 0)"/>
       <use xlink:href="#DejaVuSans-30" transform="translate(159.033203 0)"/>
      </g>
     </g>
    </g>
    <g id="text_30">
     <!-- Lift coefficient $C_L$ -->
     <g transform="translate(443.946903 251.2) rotate(-90) scale(0.14 -0.14)">
      <use xlink:href="#DejaVuSans-4c" transform="translate(0 0.015625)"/>
      <use xlink:href="#DejaVuSans-69" transform="translate(55.712891 0.015625)"/>
      <use xlink:href="#DejaVuSans-66" transform="translate(83.496094 0.015625)"/>
      <use xlink:href="#DejaVuSans-74" transform="translate(118.701172 0.015625)"/>
      <use xlink:href="#DejaVuSans-20" transform="translate(157.910156 0.015625)"/>
      <use xlink:href="#DejaVuSans-63" transform="translate(189.697266 0.015625)"/>
      <use xlink:href="#DejaVuSans-6f" transform="translate(244.677734 0.015625)"/>
      <use xlink:href="#DejaVuSans-65" transform="translate(305.859375 0.015625)"/>
      <use xlink:href="#DejaVuSans-66" transform="translate(367.382812 0.015625)"/>
      <use xlink:href="#DejaVuSans-66" transform="translate(402.587891 0.015625)"/>
      <use xlink:href="#DejaVuSans-69" transform="translate(437.792969 0.015625)"/>
      <use xlink:href="#DejaVuSans-63" transform="translate(465.576172 0.015625)"/>
      <use xlink:href="#DejaVuSans-69" transform="translate(520.556641 0.015625)"/>
      <use xlink:href="#DejaVuSans-65" transform="translate(548.339844 0.015625)"/>
      <use xlink:href="#DejaVuSans-6e" transform="translate(609.863281 0.015625)"/>
      <use xlink:href="#DejaVuSans-74" transform="translate(673.242188 0.015625)"/>
      <use xlink:href="#DejaVuSans-20" transform="translate(712.451172 0.015625)"/>
      <use xlink:href="#DejaVuSans-Oblique-43" transform="translate(744.238281 0.015625)"/>
      <use xlink:href="#DejaVuSans-Oblique-4c" transform="translate(814.0625 -16.390625) scale(0.7)"/>
     </g>
    </g>
   </g>
   <g id="LineCollection_7"/>
   <g id="LineCollection_8"/>
   <g id="LineCollection_9"/>
   <g id="LineCollection_10"/>
   <g id="LineCollection_11">
    <path d="M 501.670837 342.48 
L 501.670837 63.172929 
" clip-path="url(#p60440b7c6a)" style="fill: none; stroke: #b71c1c"/>
   </g>
   <g id="line2d_87">
    <g clip-path="url(#p60440b7c6a)">
     <use xlink:href="#m7f4f7728de" x="501.670837" y="342.48" style="fill: #b71c1c; stroke: #b71c1c"/>
    </g>
   </g>
   <g id="line2d_88">
    <g clip-path="url(#p60440b7c6a)">
     <use xlink:href="#m7f4f7728de" x="501.670837" y="63.172929" style="fill: #b71c1c; stroke: #b71c1c"/>
    </g>
   </g>
   <g id="LineCollection_12">
    <path d="M 824.480754 332.661371 
L 824.480754 40.08 
" clip-path="url(#p60440b7c6a)" style="fill: none; stroke: #1a237e"/>
   </g>
   <g id="line2d_89">
    <g clip-path="url(#p60440b7c6a)">
     <use xlink:href="#m312499b76d" x="824.480754" y="332.661371" style="fill: #1a237e; stroke: #1a237e"/>
    </g>
   </g>
   <g id="line2d_90">
    <g clip-path="url(#p60440b7c6a)">
     <use xlink:href="#m312499b76d" x="824.480754" y="40.08" style="fill: #1a237e; stroke: #1a237e"/>
    </g>
   </g>
   <g id="line2d_91"/>
   <g id="line2d_92"/>
   <g id="line2d_93"/>
   <g id="line2d_94"/>
   <g id="line2d_95">
    <g clip-path="url(#p60440b7c6a)">
     <use xlink:href="#m895f221682" x="501.670837" y="202.826465" style="fill-opacity: 0; stroke: #b71c1c"/>
    </g>
   </g>
   <g id="line2d_96">
    <g clip-path="url(#p60440b7c6a)">
     <use xlink:href="#mcbd725bff1" x="824.480754" y="186.370686" style="fill-opacity: 0; stroke: #1a237e; stroke-linejoin: miter"/>
    </g>
   </g>
   <g id="patch_9">
    <path d="M 485.530341 357.6 
L 485.530341 24.96 
" style="fill: none; stroke: #000000; stroke-width: 0.8; stroke-linejoin: miter; stroke-linecap: square"/>
   </g>
   <g id="patch_10">
    <path d="M 840.62125 357.6 
L 840.62125 24.96 
" style="fill: none; stroke: #000000; stroke-width: 0.8; stroke-linejoin: miter; stroke-linecap: square"/>
   </g>
   <g id="patch_11">
    <path d="M 485.530341 357.6 
L 840.62125 357.6 
" style="fill: none; stroke: #000000; stroke-width: 0.8; stroke-linejoin: miter; stroke-linecap: square"/>
   </g>
   <g id="patch_12">
    <path d="M 485.530341 24.96 
L 840.62125 24.96 
" style="fill: none; stroke: #000000; stroke-width: 0.8; stroke-linejoin: miter; stroke-linecap: square"/>
   </g>
   <g id="text_31">
    <!-- $\text{Joukowsky, } r=1.15 \text{, } \beta = -\frac{\pi}{36}$ -->
    <g transform="translate(564.375795 18.96) scale(0.14 -0.14)">
     <defs>
      <path id="DejaVuSans-4a" d="M 628 4666 
L 1259 4666 
L 1259 325 
Q 1259 -519 939 -900 
Q 619 -1281 -91 -1281 
L -331 -1281 
L -331 -750 
L -134 -750 
Q 284 -750 456 -515 
Q 628 -281 628 325 
L 628 4666 
z
" transform="scale(0.015625)"/>
      <path id="DejaVuSans-77" d="M 269 3500 
L 844 3500 
L 1563 769 
L 2278 3500 
L 2956 3500 
L 3675 769 
L 4391 3500 
L 4966 3500 
L 4050 0 
L 3372 0 
L 2619 2869 
L 1863 0 
L 1184 0 
L 269 3500 
z
" transform="scale(0.015625)"/>
      <path id="DejaVuSans-2c" d="M 750 794 
L 1409 794 
L 1409 256 
L 897 -744 
L 494 -744 
L 750 256 
L 750 794 
z
" transform="scale(0.015625)"/>
      <path id="DejaVuSans-Oblique-72" d="M 2853 2969 
Q 2766 3016 2653 3041 
Q 2541 3066 2413 3066 
Q 1953 3066 1609 2717 
Q 1266 2369 1153 1784 
L 800 0 
L 225 0 
L 909 3500 
L 1484 3500 
L 1375 2956 
Q 1603 3259 1920 3421 
Q 2238 3584 2597 3584 
Q 2691 3584 2781 3573 
Q 2872 3563 2963 3538 
L 2853 2969 
z
" transform="scale(0.015625)"/>
      <path id="DejaVuSans-3d" d="M 678 2906 
L 4684 2906 
L 4684 2381 
L 678 2381 
L 678 2906 
z
M 678 1631 
L 4684 1631 
L 4684 1100 
L 678 1100 
L 678 1631 
z
" transform="scale(0.015625)"/>
      <path id="DejaVuSans-Oblique-3b2" d="M 872 216 
L 572 -1331 
L -6 -1331 
L 928 3478 
Q 1206 4903 2538 4903 
Q 3888 4903 3659 3700 
Q 3503 2844 2894 2531 
Q 3713 2250 3553 1416 
Q 3272 -69 1759 -66 
Q 1097 -63 872 216 
z
M 1019 966 
Q 1259 422 1875 425 
Q 2775 425 2966 1406 
Q 3138 2288 1675 2219 
L 1778 2750 
Q 2909 2731 3106 3750 
Q 3241 4438 2509 4434 
Q 1691 4434 1503 3459 
L 1019 966 
z
" transform="scale(0.015625)"/>
      <path id="DejaVuSans-2212" d="M 678 2272 
L 4684 2272 
L 4684 1741 
L 678 1741 
L 678 2272 
z
" transform="scale(0.015625)"/>
      <path id="DejaVuSans-Oblique-3c0" d="M 584 3500 
L 3938 3500 
L 3825 2925 
L 3384 2925 
L 2966 775 
Q 2922 550 2981 450 
Q 3038 353 3209 353 
Q 3256 353 3325 363 
Q 3397 369 3419 372 
L 3338 -44 
Q 3222 -84 3103 -103 
Q 2981 -122 2866 -122 
Q 2491 -122 2388 81 
Q 2284 288 2391 838 
L 2797 2925 
L 1506 2925 
L 938 0 
L 350 0 
L 919 2925 
L 472 2925 
L 584 3500 
z
" transform="scale(0.015625)"/>
      <path id="DejaVuSans-33" d="M 2597 2516 
Q 3050 2419 3304 2112 
Q 3559 1806 3559 1356 
Q 3559 666 3084 287 
Q 2609 -91 1734 -91 
Q 1441 -91 1130 -33 
Q 819 25 488 141 
L 488 750 
Q 750 597 1062 519 
Q 1375 441 1716 441 
Q 2309 441 2620 675 
Q 2931 909 2931 1356 
Q 2931 1769 2642 2001 
Q 2353 2234 1838 2234 
L 1294 2234 
L 1294 2753 
L 1863 2753 
Q 2328 2753 2575 2939 
Q 2822 3125 2822 3475 
Q 2822 3834 2567 4026 
Q 2313 4219 1838 4219 
Q 1578 4219 1281 4162 
Q 984 4106 628 3988 
L 628 4550 
Q 988 4650 1302 4700 
Q 1616 4750 1894 4750 
Q 2613 4750 3031 4423 
Q 3450 4097 3450 3541 
Q 3450 3153 3228 2886 
Q 3006 2619 2597 2516 
z
" transform="scale(0.015625)"/>
     </defs>
     <use xlink:href="#DejaVuSans-4a" transform="translate(0 0.5875)"/>
     <use xlink:href="#DejaVuSans-6f" transform="translate(29.492188 0.5875)"/>
     <use xlink:href="#DejaVuSans-75" transform="translate(90.673828 0.5875)"/>
     <use xlink:href="#DejaVuSans-6b" transform="translate(154.052734 0.5875)"/>
     <use xlink:href="#DejaVuSans-6f" transform="translate(211.962891 0.5875)"/>
     <use xlink:href="#DejaVuSans-77" transform="translate(273.144531 0.5875)"/>
     <use xlink:href="#DejaVuSans-73" transform="translate(354.931641 0.5875)"/>
     <use xlink:href="#DejaVuSans-6b" transform="translate(407.03125 0.5875)"/>
     <use xlink:href="#DejaVuSans-79" transform="translate(464.941406 0.5875)"/>
     <use xlink:href="#DejaVuSans-2c" transform="translate(524.121094 0.5875)"/>
     <use xlink:href="#DejaVuSans-20" transform="translate(555.908203 0.5875)"/>
     <use xlink:href="#DejaVuSans-Oblique-72" transform="translate(587.695312 0.5875)"/>
     <use xlink:href="#DejaVuSans-3d" transform="translate(648.291016 0.5875)"/>
     <use xlink:href="#DejaVuSans-31" transform="translate(751.5625 0.5875)"/>
     <use xlink:href="#DejaVuSans-2e" transform="translate(815.185547 0.5875)"/>
     <use xlink:href="#DejaVuSans-31" transform="translate(846.972656 0.5875)"/>
     <use xlink:href="#DejaVuSans-35" transform="translate(910.595703 0.5875)"/>
     <use xlink:href="#DejaVuSans-2c" transform="translate(974.21875 0.5875)"/>
     <use xlink:href="#DejaVuSans-20" transform="translate(1006.005859 0.5875)"/>
     <use xlink:href="#DejaVuSans-Oblique-3b2" transform="translate(1037.792969 0.5875)"/>
     <use xlink:href="#DejaVuSans-3d" transform="translate(1121.09375 0.5875)"/>
     <use xlink:href="#DejaVuSans-2212" transform="translate(1224.365234 0.5875)"/>
     <use xlink:href="#DejaVuSans-Oblique-3c0" transform="translate(1331.154297 45.71875) scale(0.7)"/>
     <use xlink:href="#DejaVuSans-33" transform="translate(1308.154297 -38.81875) scale(0.7)"/>
     <use xlink:href="#DejaVuSans-36" transform="translate(1352.69043 -38.81875) scale(0.7)"/>
     <path d="M 1308.154297 19.384375 
L 1308.154297 25.634375 
L 1397.226562 25.634375 
L 1397.226562 19.384375 
L 1308.154297 19.384375 
z
"/>
    </g>
   </g>
  </g>
 </g>
 <defs>
  <clipPath id="pa18729d49c">
   <rect x="59.42125" y="24.96" width="355.090909" height="332.64"/>
  </clipPath>
  <clipPath id="p60440b7c6a">
   <rect x="485.530341" y="24.96" width="355.090909" height="332.64"/>
  </clipPath>
 </defs>
</svg>
