<?xml version="1.0" encoding="utf-8" standalone="no"?>
<!DOCTYPE svg PUBLIC "-//W3C//DTD SVG 1.1//EN"
  "http://www.w3.org/Graphics/SVG/1.1/DTD/svg11.dtd">
<svg xmlns:xlink="http://www.w3.org/1999/xlink" width="425.781765pt" height="315.141375pt" viewBox="0 0 425.781765 315.141375" xmlns="http://www.w3.org/2000/svg" version="1.1">
 <metadata>
  <rdf:RDF xmlns:dc="http://purl.org/dc/elements/1.1/" xmlns:cc="http://creativecommons.org/ns#" xmlns:rdf="http://www.w3.org/1999/02/22-rdf-syntax-ns#">
   <cc:Work>
    <dc:type rdf:resource="http://purl.org/dc/dcmitype/StillImage"/>
    <dc:date>2025-05-27T11:51:16.214821</dc:date>
    <dc:format>image/svg+xml</dc:format>
    <dc:creator>
     <cc:Agent>
      <dc:title>Matplotlib v3.10.1, https://matplotlib.org/</dc:title>
     </cc:Agent>
    </dc:creator>
   </cc:Work>
  </rdf:RDF>
 </metadata>
 <defs>
  <style type="text/css">*{stroke-linejoin: round; stroke-linecap: butt}</style>
 </defs>
 <g id="figure_1">
  <g id="patch_1">
   <path d="M 0 315.141375 
L 425.781765 315.141375 
L 425.781765 0 
L 0 0 
z
" style="fill: #ffffff"/>
  </g>
  <g id="axes_1">
   <g id="patch_2">
    <path d="M 50.51375 273.312 
L 407.63375 273.312 
L 407.63375 7.2 
L 50.51375 7.2 
z
" style="fill: #ffffff"/>
   </g>
   <g id="matplotlib.axis_1">
    <g id="xtick_1">
     <g id="line2d_1">
      <defs>
       <path id="m3759f4b4ac" d="M 0 0 
L 0 -3.5 
" style="stroke: #000000; stroke-width: 0.8"/>
      </defs>
      <g>
       <use xlink:href="#m3759f4b4ac" x="55.151672" y="273.312" style="stroke: #000000; stroke-width: 0.8"/>
      </g>
     </g>
     <g id="line2d_2">
      <defs>
       <path id="m637044ee8f" d="M 0 0 
L 0 3.5 
" style="stroke: #000000; stroke-width: 0.8"/>
      </defs>
      <g>
       <use xlink:href="#m637044ee8f" x="55.151672" y="7.2" style="stroke: #000000; stroke-width: 0.8"/>
      </g>
     </g>
     <g id="text_1">
      <!-- 15.5 -->
      <g transform="translate(39.565735 287.449813) scale(0.14 -0.14)">
       <defs>
        <path id="DejaVuSans-31" d="M 794 531 
L 1825 531 
L 1825 4091 
L 703 3866 
L 703 4441 
L 1819 4666 
L 2450 4666 
L 2450 531 
L 3481 531 
L 3481 0 
L 794 0 
L 794 531 
z
" transform="scale(0.015625)"/>
        <path id="DejaVuSans-35" d="M 691 4666 
L 3169 4666 
L 3169 4134 
L 1269 4134 
L 1269 2991 
Q 1406 3038 1543 3061 
Q 1681 3084 1819 3084 
Q 2600 3084 3056 2656 
Q 3513 2228 3513 1497 
Q 3513 744 3044 326 
Q 2575 -91 1722 -91 
Q 1428 -91 1123 -41 
Q 819 9 494 109 
L 494 744 
Q 775 591 1075 516 
Q 1375 441 1709 441 
Q 2250 441 2565 725 
Q 2881 1009 2881 1497 
Q 2881 1984 2565 2268 
Q 2250 2553 1709 2553 
Q 1456 2553 1204 2497 
Q 953 2441 691 2322 
L 691 4666 
z
" transform="scale(0.015625)"/>
        <path id="DejaVuSans-2e" d="M 684 794 
L 1344 794 
L 1344 0 
L 684 0 
L 684 794 
z
" transform="scale(0.015625)"/>
       </defs>
       <use xlink:href="#DejaVuSans-31"/>
       <use xlink:href="#DejaVuSans-35" transform="translate(63.623047 0)"/>
       <use xlink:href="#DejaVuSans-2e" transform="translate(127.246094 0)"/>
       <use xlink:href="#DejaVuSans-35" transform="translate(159.033203 0)"/>
      </g>
     </g>
    </g>
    <g id="xtick_2">
     <g id="line2d_3">
      <g>
       <use xlink:href="#m3759f4b4ac" x="113.125698" y="273.312" style="stroke: #000000; stroke-width: 0.8"/>
      </g>
     </g>
     <g id="line2d_4">
      <g>
       <use xlink:href="#m637044ee8f" x="113.125698" y="7.2" style="stroke: #000000; stroke-width: 0.8"/>
      </g>
     </g>
     <g id="text_2">
      <!-- 16.0 -->
      <g transform="translate(97.539761 287.449813) scale(0.14 -0.14)">
       <defs>
        <path id="DejaVuSans-36" d="M 2113 2584 
Q 1688 2584 1439 2293 
Q 1191 2003 1191 1497 
Q 1191 994 1439 701 
Q 1688 409 2113 409 
Q 2538 409 2786 701 
Q 3034 994 3034 1497 
Q 3034 2003 2786 2293 
Q 2538 2584 2113 2584 
z
M 3366 4563 
L 3366 3988 
Q 3128 4100 2886 4159 
Q 2644 4219 2406 4219 
Q 1781 4219 1451 3797 
Q 1122 3375 1075 2522 
Q 1259 2794 1537 2939 
Q 1816 3084 2150 3084 
Q 2853 3084 3261 2657 
Q 3669 2231 3669 1497 
Q 3669 778 3244 343 
Q 2819 -91 2113 -91 
Q 1303 -91 875 529 
Q 447 1150 447 2328 
Q 447 3434 972 4092 
Q 1497 4750 2381 4750 
Q 2619 4750 2861 4703 
Q 3103 4656 3366 4563 
z
" transform="scale(0.015625)"/>
        <path id="DejaVuSans-30" d="M 2034 4250 
Q 1547 4250 1301 3770 
Q 1056 3291 1056 2328 
Q 1056 1369 1301 889 
Q 1547 409 2034 409 
Q 2525 409 2770 889 
Q 3016 1369 3016 2328 
Q 3016 3291 2770 3770 
Q 2525 4250 2034 4250 
z
M 2034 4750 
Q 2819 4750 3233 4129 
Q 3647 3509 3647 2328 
Q 3647 1150 3233 529 
Q 2819 -91 2034 -91 
Q 1250 -91 836 529 
Q 422 1150 422 2328 
Q 422 3509 836 4129 
Q 1250 4750 2034 4750 
z
" transform="scale(0.015625)"/>
       </defs>
       <use xlink:href="#DejaVuSans-31"/>
       <use xlink:href="#DejaVuSans-36" transform="translate(63.623047 0)"/>
       <use xlink:href="#DejaVuSans-2e" transform="translate(127.246094 0)"/>
       <use xlink:href="#DejaVuSans-30" transform="translate(159.033203 0)"/>
      </g>
     </g>
    </g>
    <g id="xtick_3">
     <g id="line2d_5">
      <g>
       <use xlink:href="#m3759f4b4ac" x="171.099724" y="273.312" style="stroke: #000000; stroke-width: 0.8"/>
      </g>
     </g>
     <g id="line2d_6">
      <g>
       <use xlink:href="#m637044ee8f" x="171.099724" y="7.2" style="stroke: #000000; stroke-width: 0.8"/>
      </g>
     </g>
     <g id="text_3">
      <!-- 16.5 -->
      <g transform="translate(155.513787 287.449813) scale(0.14 -0.14)">
       <use xlink:href="#DejaVuSans-31"/>
       <use xlink:href="#DejaVuSans-36" transform="translate(63.623047 0)"/>
       <use xlink:href="#DejaVuSans-2e" transform="translate(127.246094 0)"/>
       <use xlink:href="#DejaVuSans-35" transform="translate(159.033203 0)"/>
      </g>
     </g>
    </g>
    <g id="xtick_4">
     <g id="line2d_7">
      <g>
       <use xlink:href="#m3759f4b4ac" x="229.07375" y="273.312" style="stroke: #000000; stroke-width: 0.8"/>
      </g>
     </g>
     <g id="line2d_8">
      <g>
       <use xlink:href="#m637044ee8f" x="229.07375" y="7.2" style="stroke: #000000; stroke-width: 0.8"/>
      </g>
     </g>
     <g id="text_4">
      <!-- 17.0 -->
      <g transform="translate(213.487813 287.449813) scale(0.14 -0.14)">
       <defs>
        <path id="DejaVuSans-37" d="M 525 4666 
L 3525 4666 
L 3525 4397 
L 1831 0 
L 1172 0 
L 2766 4134 
L 525 4134 
L 525 4666 
z
" transform="scale(0.015625)"/>
       </defs>
       <use xlink:href="#DejaVuSans-31"/>
       <use xlink:href="#DejaVuSans-37" transform="translate(63.623047 0)"/>
       <use xlink:href="#DejaVuSans-2e" transform="translate(127.246094 0)"/>
       <use xlink:href="#DejaVuSans-30" transform="translate(159.033203 0)"/>
      </g>
     </g>
    </g>
    <g id="xtick_5">
     <g id="line2d_9">
      <g>
       <use xlink:href="#m3759f4b4ac" x="287.047776" y="273.312" style="stroke: #000000; stroke-width: 0.8"/>
      </g>
     </g>
     <g id="line2d_10">
      <g>
       <use xlink:href="#m637044ee8f" x="287.047776" y="7.2" style="stroke: #000000; stroke-width: 0.8"/>
      </g>
     </g>
     <g id="text_5">
      <!-- 17.5 -->
      <g transform="translate(271.461838 287.449813) scale(0.14 -0.14)">
       <use xlink:href="#DejaVuSans-31"/>
       <use xlink:href="#DejaVuSans-37" transform="translate(63.623047 0)"/>
       <use xlink:href="#DejaVuSans-2e" transform="translate(127.246094 0)"/>
       <use xlink:href="#DejaVuSans-35" transform="translate(159.033203 0)"/>
      </g>
     </g>
    </g>
    <g id="xtick_6">
     <g id="line2d_11">
      <g>
       <use xlink:href="#m3759f4b4ac" x="345.021802" y="273.312" style="stroke: #000000; stroke-width: 0.8"/>
      </g>
     </g>
     <g id="line2d_12">
      <g>
       <use xlink:href="#m637044ee8f" x="345.021802" y="7.2" style="stroke: #000000; stroke-width: 0.8"/>
      </g>
     </g>
     <g id="text_6">
      <!-- 18.0 -->
      <g transform="translate(329.435864 287.449813) scale(0.14 -0.14)">
       <defs>
        <path id="DejaVuSans-38" d="M 2034 2216 
Q 1584 2216 1326 1975 
Q 1069 1734 1069 1313 
Q 1069 891 1326 650 
Q 1584 409 2034 409 
Q 2484 409 2743 651 
Q 3003 894 3003 1313 
Q 3003 1734 2745 1975 
Q 2488 2216 2034 2216 
z
M 1403 2484 
Q 997 2584 770 2862 
Q 544 3141 544 3541 
Q 544 4100 942 4425 
Q 1341 4750 2034 4750 
Q 2731 4750 3128 4425 
Q 3525 4100 3525 3541 
Q 3525 3141 3298 2862 
Q 3072 2584 2669 2484 
Q 3125 2378 3379 2068 
Q 3634 1759 3634 1313 
Q 3634 634 3220 271 
Q 2806 -91 2034 -91 
Q 1263 -91 848 271 
Q 434 634 434 1313 
Q 434 1759 690 2068 
Q 947 2378 1403 2484 
z
M 1172 3481 
Q 1172 3119 1398 2916 
Q 1625 2713 2034 2713 
Q 2441 2713 2670 2916 
Q 2900 3119 2900 3481 
Q 2900 3844 2670 4047 
Q 2441 4250 2034 4250 
Q 1625 4250 1398 4047 
Q 1172 3844 1172 3481 
z
" transform="scale(0.015625)"/>
       </defs>
       <use xlink:href="#DejaVuSans-31"/>
       <use xlink:href="#DejaVuSans-38" transform="translate(63.623047 0)"/>
       <use xlink:href="#DejaVuSans-2e" transform="translate(127.246094 0)"/>
       <use xlink:href="#DejaVuSans-30" transform="translate(159.033203 0)"/>
      </g>
     </g>
    </g>
    <g id="xtick_7">
     <g id="line2d_13">
      <g>
       <use xlink:href="#m3759f4b4ac" x="402.995828" y="273.312" style="stroke: #000000; stroke-width: 0.8"/>
      </g>
     </g>
     <g id="line2d_14">
      <g>
       <use xlink:href="#m637044ee8f" x="402.995828" y="7.2" style="stroke: #000000; stroke-width: 0.8"/>
      </g>
     </g>
     <g id="text_7">
      <!-- 18.5 -->
      <g transform="translate(387.40989 287.449813) scale(0.14 -0.14)">
       <use xlink:href="#DejaVuSans-31"/>
       <use xlink:href="#DejaVuSans-38" transform="translate(63.623047 0)"/>
       <use xlink:href="#DejaVuSans-2e" transform="translate(127.246094 0)"/>
       <use xlink:href="#DejaVuSans-35" transform="translate(159.033203 0)"/>
      </g>
     </g>
    </g>
    <g id="text_8">
     <!-- Angle of attack $\alpha$ (°) -->
     <g transform="translate(157.95375 305.001375) scale(0.14 -0.14)">
      <defs>
       <path id="DejaVuSans-41" d="M 2188 4044 
L 1331 1722 
L 3047 1722 
L 2188 4044 
z
M 1831 4666 
L 2547 4666 
L 4325 0 
L 3669 0 
L 3244 1197 
L 1141 1197 
L 716 0 
L 50 0 
L 1831 4666 
z
" transform="scale(0.015625)"/>
       <path id="DejaVuSans-6e" d="M 3513 2113 
L 3513 0 
L 2938 0 
L 2938 2094 
Q 2938 2591 2744 2837 
Q 2550 3084 2163 3084 
Q 1697 3084 1428 2787 
Q 1159 2491 1159 1978 
L 1159 0 
L 581 0 
L 581 3500 
L 1159 3500 
L 1159 2956 
Q 1366 3272 1645 3428 
Q 1925 3584 2291 3584 
Q 2894 3584 3203 3211 
Q 3513 2838 3513 2113 
z
" transform="scale(0.015625)"/>
       <path id="DejaVuSans-67" d="M 2906 1791 
Q 2906 2416 2648 2759 
Q 2391 3103 1925 3103 
Q 1463 3103 1205 2759 
Q 947 2416 947 1791 
Q 947 1169 1205 825 
Q 1463 481 1925 481 
Q 2391 481 2648 825 
Q 2906 1169 2906 1791 
z
M 3481 434 
Q 3481 -459 3084 -895 
Q 2688 -1331 1869 -1331 
Q 1566 -1331 1297 -1286 
Q 1028 -1241 775 -1147 
L 775 -588 
Q 1028 -725 1275 -790 
Q 1522 -856 1778 -856 
Q 2344 -856 2625 -561 
Q 2906 -266 2906 331 
L 2906 616 
Q 2728 306 2450 153 
Q 2172 0 1784 0 
Q 1141 0 747 490 
Q 353 981 353 1791 
Q 353 2603 747 3093 
Q 1141 3584 1784 3584 
Q 2172 3584 2450 3431 
Q 2728 3278 2906 2969 
L 2906 3500 
L 3481 3500 
L 3481 434 
z
" transform="scale(0.015625)"/>
       <path id="DejaVuSans-6c" d="M 603 4863 
L 1178 4863 
L 1178 0 
L 603 0 
L 603 4863 
z
" transform="scale(0.015625)"/>
       <path id="DejaVuSans-65" d="M 3597 1894 
L 3597 1613 
L 953 1613 
Q 991 1019 1311 708 
Q 1631 397 2203 397 
Q 2534 397 2845 478 
Q 3156 559 3463 722 
L 3463 178 
Q 3153 47 2828 -22 
Q 2503 -91 2169 -91 
Q 1331 -91 842 396 
Q 353 884 353 1716 
Q 353 2575 817 3079 
Q 1281 3584 2069 3584 
Q 2775 3584 3186 3129 
Q 3597 2675 3597 1894 
z
M 3022 2063 
Q 3016 2534 2758 2815 
Q 2500 3097 2075 3097 
Q 1594 3097 1305 2825 
Q 1016 2553 972 2059 
L 3022 2063 
z
" transform="scale(0.015625)"/>
       <path id="DejaVuSans-20" transform="scale(0.015625)"/>
       <path id="DejaVuSans-6f" d="M 1959 3097 
Q 1497 3097 1228 2736 
Q 959 2375 959 1747 
Q 959 1119 1226 758 
Q 1494 397 1959 397 
Q 2419 397 2687 759 
Q 2956 1122 2956 1747 
Q 2956 2369 2687 2733 
Q 2419 3097 1959 3097 
z
M 1959 3584 
Q 2709 3584 3137 3096 
Q 3566 2609 3566 1747 
Q 3566 888 3137 398 
Q 2709 -91 1959 -91 
Q 1206 -91 779 398 
Q 353 888 353 1747 
Q 353 2609 779 3096 
Q 1206 3584 1959 3584 
z
" transform="scale(0.015625)"/>
       <path id="DejaVuSans-66" d="M 2375 4863 
L 2375 4384 
L 1825 4384 
Q 1516 4384 1395 4259 
Q 1275 4134 1275 3809 
L 1275 3500 
L 2222 3500 
L 2222 3053 
L 1275 3053 
L 1275 0 
L 697 0 
L 697 3053 
L 147 3053 
L 147 3500 
L 697 3500 
L 697 3744 
Q 697 4328 969 4595 
Q 1241 4863 1831 4863 
L 2375 4863 
z
" transform="scale(0.015625)"/>
       <path id="DejaVuSans-61" d="M 2194 1759 
Q 1497 1759 1228 1600 
Q 959 1441 959 1056 
Q 959 750 1161 570 
Q 1363 391 1709 391 
Q 2188 391 2477 730 
Q 2766 1069 2766 1631 
L 2766 1759 
L 2194 1759 
z
M 3341 1997 
L 3341 0 
L 2766 0 
L 2766 531 
Q 2569 213 2275 61 
Q 1981 -91 1556 -91 
Q 1019 -91 701 211 
Q 384 513 384 1019 
Q 384 1609 779 1909 
Q 1175 2209 1959 2209 
L 2766 2209 
L 2766 2266 
Q 2766 2663 2505 2880 
Q 2244 3097 1772 3097 
Q 1472 3097 1187 3025 
Q 903 2953 641 2809 
L 641 3341 
Q 956 3463 1253 3523 
Q 1550 3584 1831 3584 
Q 2591 3584 2966 3190 
Q 3341 2797 3341 1997 
z
" transform="scale(0.015625)"/>
       <path id="DejaVuSans-74" d="M 1172 4494 
L 1172 3500 
L 2356 3500 
L 2356 3053 
L 1172 3053 
L 1172 1153 
Q 1172 725 1289 603 
Q 1406 481 1766 481 
L 2356 481 
L 2356 0 
L 1766 0 
Q 1100 0 847 248 
Q 594 497 594 1153 
L 594 3053 
L 172 3053 
L 172 3500 
L 594 3500 
L 594 4494 
L 1172 4494 
z
" transform="scale(0.015625)"/>
       <path id="DejaVuSans-63" d="M 3122 3366 
L 3122 2828 
Q 2878 2963 2633 3030 
Q 2388 3097 2138 3097 
Q 1578 3097 1268 2742 
Q 959 2388 959 1747 
Q 959 1106 1268 751 
Q 1578 397 2138 397 
Q 2388 397 2633 464 
Q 2878 531 3122 666 
L 3122 134 
Q 2881 22 2623 -34 
Q 2366 -91 2075 -91 
Q 1284 -91 818 406 
Q 353 903 353 1747 
Q 353 2603 823 3093 
Q 1294 3584 2113 3584 
Q 2378 3584 2631 3529 
Q 2884 3475 3122 3366 
z
" transform="scale(0.015625)"/>
       <path id="DejaVuSans-6b" d="M 581 4863 
L 1159 4863 
L 1159 1991 
L 2875 3500 
L 3609 3500 
L 1753 1863 
L 3688 0 
L 2938 0 
L 1159 1709 
L 1159 0 
L 581 0 
L 581 4863 
z
" transform="scale(0.015625)"/>
       <path id="DejaVuSans-Oblique-3b1" d="M 2619 1628 
L 2622 2350 
Q 2625 3088 2069 3091 
Q 1653 3094 1394 2747 
Q 1069 2319 959 1747 
Q 825 1059 994 731 
Q 1169 397 1547 397 
Q 1966 397 2319 1063 
L 2619 1628 
z
M 2166 3578 
Q 3141 3594 3128 2584 
Q 3128 2584 3616 3500 
L 4128 3500 
L 3119 1603 
L 3109 919 
Q 3109 766 3194 638 
Q 3291 488 3391 488 
L 3669 488 
L 3575 0 
L 3228 0 
Q 2934 0 2722 263 
Q 2622 394 2619 669 
Q 2416 334 2066 50 
Q 1900 -81 1453 -78 
Q 722 -72 456 397 
Q 184 884 353 1747 
Q 534 2675 1009 3097 
Q 1544 3569 2166 3578 
z
" transform="scale(0.015625)"/>
       <path id="DejaVuSans-28" d="M 1984 4856 
Q 1566 4138 1362 3434 
Q 1159 2731 1159 2009 
Q 1159 1288 1364 580 
Q 1569 -128 1984 -844 
L 1484 -844 
Q 1016 -109 783 600 
Q 550 1309 550 2009 
Q 550 2706 781 3412 
Q 1013 4119 1484 4856 
L 1984 4856 
z
" transform="scale(0.015625)"/>
       <path id="DejaVuSans-b0" d="M 1600 4347 
Q 1350 4347 1178 4173 
Q 1006 4000 1006 3750 
Q 1006 3503 1178 3333 
Q 1350 3163 1600 3163 
Q 1850 3163 2022 3333 
Q 2194 3503 2194 3750 
Q 2194 3997 2020 4172 
Q 1847 4347 1600 4347 
z
M 1600 4750 
Q 1800 4750 1984 4673 
Q 2169 4597 2303 4453 
Q 2447 4313 2519 4134 
Q 2591 3956 2591 3750 
Q 2591 3338 2302 3052 
Q 2013 2766 1594 2766 
Q 1172 2766 890 3047 
Q 609 3328 609 3750 
Q 609 4169 896 4459 
Q 1184 4750 1600 4750 
z
" transform="scale(0.015625)"/>
       <path id="DejaVuSans-29" d="M 513 4856 
L 1013 4856 
Q 1481 4119 1714 3412 
Q 1947 2706 1947 2009 
Q 1947 1309 1714 600 
Q 1481 -109 1013 -844 
L 513 -844 
Q 928 -128 1133 580 
Q 1338 1288 1338 2009 
Q 1338 2731 1133 3434 
Q 928 4138 513 4856 
z
" transform="scale(0.015625)"/>
      </defs>
      <use xlink:href="#DejaVuSans-41" transform="translate(0 0.015625)"/>
      <use xlink:href="#DejaVuSans-6e" transform="translate(68.408203 0.015625)"/>
      <use xlink:href="#DejaVuSans-67" transform="translate(131.787109 0.015625)"/>
      <use xlink:href="#DejaVuSans-6c" transform="translate(195.263672 0.015625)"/>
      <use xlink:href="#DejaVuSans-65" transform="translate(223.046875 0.015625)"/>
      <use xlink:href="#DejaVuSans-20" transform="translate(284.570312 0.015625)"/>
      <use xlink:href="#DejaVuSans-6f" transform="translate(316.357422 0.015625)"/>
      <use xlink:href="#DejaVuSans-66" transform="translate(377.539062 0.015625)"/>
      <use xlink:href="#DejaVuSans-20" transform="translate(412.744141 0.015625)"/>
      <use xlink:href="#DejaVuSans-61" transform="translate(444.53125 0.015625)"/>
      <use xlink:href="#DejaVuSans-74" transform="translate(505.810547 0.015625)"/>
      <use xlink:href="#DejaVuSans-74" transform="translate(545.019531 0.015625)"/>
      <use xlink:href="#DejaVuSans-61" transform="translate(584.228516 0.015625)"/>
      <use xlink:href="#DejaVuSans-63" transform="translate(645.507812 0.015625)"/>
      <use xlink:href="#DejaVuSans-6b" transform="translate(700.488281 0.015625)"/>
      <use xlink:href="#DejaVuSans-20" transform="translate(758.398438 0.015625)"/>
      <use xlink:href="#DejaVuSans-Oblique-3b1" transform="translate(790.185547 0.015625)"/>
      <use xlink:href="#DejaVuSans-20" transform="translate(856.103516 0.015625)"/>
      <use xlink:href="#DejaVuSans-28" transform="translate(887.890625 0.015625)"/>
      <use xlink:href="#DejaVuSans-b0" transform="translate(926.904297 0.015625)"/>
      <use xlink:href="#DejaVuSans-29" transform="translate(976.904297 0.015625)"/>
     </g>
    </g>
   </g>
   <g id="matplotlib.axis_2">
    <g id="ytick_1">
     <g id="line2d_15">
      <defs>
       <path id="mb956fdb263" d="M 0 0 
L 3.5 0 
" style="stroke: #000000; stroke-width: 0.8"/>
      </defs>
      <g>
       <use xlink:href="#mb956fdb263" x="50.51375" y="244.808178" style="stroke: #000000; stroke-width: 0.8"/>
      </g>
     </g>
     <g id="line2d_16">
      <defs>
       <path id="m0f90431a80" d="M 0 0 
L -3.5 0 
" style="stroke: #000000; stroke-width: 0.8"/>
      </defs>
      <g>
       <use xlink:href="#m0f90431a80" x="407.63375" y="244.808178" style="stroke: #000000; stroke-width: 0.8"/>
      </g>
     </g>
     <g id="text_9">
      <!-- 0.5 -->
      <g transform="translate(24.749375 250.127084) scale(0.14 -0.14)">
       <use xlink:href="#DejaVuSans-30"/>
       <use xlink:href="#DejaVuSans-2e" transform="translate(63.623047 0)"/>
       <use xlink:href="#DejaVuSans-35" transform="translate(95.410156 0)"/>
      </g>
     </g>
    </g>
    <g id="ytick_2">
     <g id="line2d_17">
      <g>
       <use xlink:href="#mb956fdb263" x="50.51375" y="198.855505" style="stroke: #000000; stroke-width: 0.8"/>
      </g>
     </g>
     <g id="line2d_18">
      <g>
       <use xlink:href="#m0f90431a80" x="407.63375" y="198.855505" style="stroke: #000000; stroke-width: 0.8"/>
      </g>
     </g>
     <g id="text_10">
      <!-- 0.6 -->
      <g transform="translate(24.749375 204.174411) scale(0.14 -0.14)">
       <use xlink:href="#DejaVuSans-30"/>
       <use xlink:href="#DejaVuSans-2e" transform="translate(63.623047 0)"/>
       <use xlink:href="#DejaVuSans-36" transform="translate(95.410156 0)"/>
      </g>
     </g>
    </g>
    <g id="ytick_3">
     <g id="line2d_19">
      <g>
       <use xlink:href="#mb956fdb263" x="50.51375" y="152.902831" style="stroke: #000000; stroke-width: 0.8"/>
      </g>
     </g>
     <g id="line2d_20">
      <g>
       <use xlink:href="#m0f90431a80" x="407.63375" y="152.902831" style="stroke: #000000; stroke-width: 0.8"/>
      </g>
     </g>
     <g id="text_11">
      <!-- 0.7 -->
      <g transform="translate(24.749375 158.221738) scale(0.14 -0.14)">
       <use xlink:href="#DejaVuSans-30"/>
       <use xlink:href="#DejaVuSans-2e" transform="translate(63.623047 0)"/>
       <use xlink:href="#DejaVuSans-37" transform="translate(95.410156 0)"/>
      </g>
     </g>
    </g>
    <g id="ytick_4">
     <g id="line2d_21">
      <g>
       <use xlink:href="#mb956fdb263" x="50.51375" y="106.950158" style="stroke: #000000; stroke-width: 0.8"/>
      </g>
     </g>
     <g id="line2d_22">
      <g>
       <use xlink:href="#m0f90431a80" x="407.63375" y="106.950158" style="stroke: #000000; stroke-width: 0.8"/>
      </g>
     </g>
     <g id="text_12">
      <!-- 0.8 -->
      <g transform="translate(24.749375 112.269064) scale(0.14 -0.14)">
       <use xlink:href="#DejaVuSans-30"/>
       <use xlink:href="#DejaVuSans-2e" transform="translate(63.623047 0)"/>
       <use xlink:href="#DejaVuSans-38" transform="translate(95.410156 0)"/>
      </g>
     </g>
    </g>
    <g id="ytick_5">
     <g id="line2d_23">
      <g>
       <use xlink:href="#mb956fdb263" x="50.51375" y="60.997485" style="stroke: #000000; stroke-width: 0.8"/>
      </g>
     </g>
     <g id="line2d_24">
      <g>
       <use xlink:href="#m0f90431a80" x="407.63375" y="60.997485" style="stroke: #000000; stroke-width: 0.8"/>
      </g>
     </g>
     <g id="text_13">
      <!-- 0.9 -->
      <g transform="translate(24.749375 66.316391) scale(0.14 -0.14)">
       <defs>
        <path id="DejaVuSans-39" d="M 703 97 
L 703 672 
Q 941 559 1184 500 
Q 1428 441 1663 441 
Q 2288 441 2617 861 
Q 2947 1281 2994 2138 
Q 2813 1869 2534 1725 
Q 2256 1581 1919 1581 
Q 1219 1581 811 2004 
Q 403 2428 403 3163 
Q 403 3881 828 4315 
Q 1253 4750 1959 4750 
Q 2769 4750 3195 4129 
Q 3622 3509 3622 2328 
Q 3622 1225 3098 567 
Q 2575 -91 1691 -91 
Q 1453 -91 1209 -44 
Q 966 3 703 97 
z
M 1959 2075 
Q 2384 2075 2632 2365 
Q 2881 2656 2881 3163 
Q 2881 3666 2632 3958 
Q 2384 4250 1959 4250 
Q 1534 4250 1286 3958 
Q 1038 3666 1038 3163 
Q 1038 2656 1286 2365 
Q 1534 2075 1959 2075 
z
" transform="scale(0.015625)"/>
       </defs>
       <use xlink:href="#DejaVuSans-30"/>
       <use xlink:href="#DejaVuSans-2e" transform="translate(63.623047 0)"/>
       <use xlink:href="#DejaVuSans-39" transform="translate(95.410156 0)"/>
      </g>
     </g>
    </g>
    <g id="ytick_6">
     <g id="line2d_25">
      <g>
       <use xlink:href="#mb956fdb263" x="50.51375" y="15.044811" style="stroke: #000000; stroke-width: 0.8"/>
      </g>
     </g>
     <g id="line2d_26">
      <g>
       <use xlink:href="#m0f90431a80" x="407.63375" y="15.044811" style="stroke: #000000; stroke-width: 0.8"/>
      </g>
     </g>
     <g id="text_14">
      <!-- 1.0 -->
      <g transform="translate(24.749375 20.363718) scale(0.14 -0.14)">
       <use xlink:href="#DejaVuSans-31"/>
       <use xlink:href="#DejaVuSans-2e" transform="translate(63.623047 0)"/>
       <use xlink:href="#DejaVuSans-30" transform="translate(95.410156 0)"/>
      </g>
     </g>
    </g>
    <g id="text_15">
     <!-- Lift coefficient $C_L$ -->
     <g transform="translate(17.837813 200.176) rotate(-90) scale(0.14 -0.14)">
      <defs>
       <path id="DejaVuSans-4c" d="M 628 4666 
L 1259 4666 
L 1259 531 
L 3531 531 
L 3531 0 
L 628 0 
L 628 4666 
z
" transform="scale(0.015625)"/>
       <path id="DejaVuSans-69" d="M 603 3500 
L 1178 3500 
L 1178 0 
L 603 0 
L 603 3500 
z
M 603 4863 
L 1178 4863 
L 1178 4134 
L 603 4134 
L 603 4863 
z
" transform="scale(0.015625)"/>
       <path id="DejaVuSans-Oblique-43" d="M 4447 4306 
L 4319 3641 
Q 4019 3944 3683 4091 
Q 3347 4238 2956 4238 
Q 2422 4238 2017 3981 
Q 1613 3725 1319 3200 
Q 1131 2863 1032 2486 
Q 934 2109 934 1728 
Q 934 1091 1264 756 
Q 1594 422 2222 422 
Q 2656 422 3056 561 
Q 3456 700 3834 978 
L 3688 231 
Q 3316 72 2936 -9 
Q 2556 -91 2175 -91 
Q 1278 -91 773 396 
Q 269 884 269 1753 
Q 269 2309 461 2846 
Q 653 3384 1013 3828 
Q 1394 4300 1883 4525 
Q 2372 4750 3022 4750 
Q 3422 4750 3780 4639 
Q 4138 4528 4447 4306 
z
" transform="scale(0.015625)"/>
       <path id="DejaVuSans-Oblique-4c" d="M 1075 4666 
L 1709 4666 
L 909 525 
L 3181 525 
L 3078 0 
L 172 0 
L 1075 4666 
z
" transform="scale(0.015625)"/>
      </defs>
      <use xlink:href="#DejaVuSans-4c" transform="translate(0 0.015625)"/>
      <use xlink:href="#DejaVuSans-69" transform="translate(55.712891 0.015625)"/>
      <use xlink:href="#DejaVuSans-66" transform="translate(83.496094 0.015625)"/>
      <use xlink:href="#DejaVuSans-74" transform="translate(118.701172 0.015625)"/>
      <use xlink:href="#DejaVuSans-20" transform="translate(157.910156 0.015625)"/>
      <use xlink:href="#DejaVuSans-63" transform="translate(189.697266 0.015625)"/>
      <use xlink:href="#DejaVuSans-6f" transform="translate(244.677734 0.015625)"/>
      <use xlink:href="#DejaVuSans-65" transform="translate(305.859375 0.015625)"/>
      <use xlink:href="#DejaVuSans-66" transform="translate(367.382812 0.015625)"/>
      <use xlink:href="#DejaVuSans-66" transform="translate(402.587891 0.015625)"/>
      <use xlink:href="#DejaVuSans-69" transform="translate(437.792969 0.015625)"/>
      <use xlink:href="#DejaVuSans-63" transform="translate(465.576172 0.015625)"/>
      <use xlink:href="#DejaVuSans-69" transform="translate(520.556641 0.015625)"/>
      <use xlink:href="#DejaVuSans-65" transform="translate(548.339844 0.015625)"/>
      <use xlink:href="#DejaVuSans-6e" transform="translate(609.863281 0.015625)"/>
      <use xlink:href="#DejaVuSans-74" transform="translate(673.242188 0.015625)"/>
      <use xlink:href="#DejaVuSans-20" transform="translate(712.451172 0.015625)"/>
      <use xlink:href="#DejaVuSans-Oblique-43" transform="translate(744.238281 0.015625)"/>
      <use xlink:href="#DejaVuSans-Oblique-4c" transform="translate(814.0625 -16.390625) scale(0.7)"/>
     </g>
    </g>
   </g>
   <g id="LineCollection_1">
    <path d="M 113.125698 170.950266 
L 113.125698 55.088652 
" clip-path="url(#pfb838617ef)" style="fill: none; stroke: #1a237e"/>
    <path d="M 345.021802 243.563412 
L 345.021802 110.55143 
" clip-path="url(#pfb838617ef)" style="fill: none; stroke: #1a237e"/>
    <path d="M 66.746477 181.485537 
L 66.746477 24.931613 
" clip-path="url(#pfb838617ef)" style="fill: none; stroke: #1a237e"/>
    <path d="M 89.936088 180.174606 
L 89.936088 19.296 
" clip-path="url(#pfb838617ef)" style="fill: none; stroke: #1a237e"/>
    <path d="M 136.315308 180.464015 
L 136.315308 20.164326 
" clip-path="url(#pfb838617ef)" style="fill: none; stroke: #1a237e"/>
    <path d="M 159.504919 178.049478 
L 159.504919 24.925985 
" clip-path="url(#pfb838617ef)" style="fill: none; stroke: #1a237e"/>
    <path d="M 182.694529 261.216 
L 182.694529 117.390602 
" clip-path="url(#pfb838617ef)" style="fill: none; stroke: #1a237e"/>
    <path d="M 205.88414 257.841703 
L 205.88414 121.465928 
" clip-path="url(#pfb838617ef)" style="fill: none; stroke: #1a237e"/>
    <path d="M 229.07375 257.797281 
L 229.07375 126.720071 
" clip-path="url(#pfb838617ef)" style="fill: none; stroke: #1a237e"/>
    <path d="M 252.26336 258.046887 
L 252.26336 129.670411 
" clip-path="url(#pfb838617ef)" style="fill: none; stroke: #1a237e"/>
    <path d="M 275.452971 256.375578 
L 275.452971 130.705756 
" clip-path="url(#pfb838617ef)" style="fill: none; stroke: #1a237e"/>
    <path d="M 298.642581 256.573656 
L 298.642581 132.064204 
" clip-path="url(#pfb838617ef)" style="fill: none; stroke: #1a237e"/>
    <path d="M 321.832192 256.276593 
L 321.832192 132.302569 
" clip-path="url(#pfb838617ef)" style="fill: none; stroke: #1a237e"/>
    <path d="M 368.211412 256.56155 
L 368.211412 130.929101 
" clip-path="url(#pfb838617ef)" style="fill: none; stroke: #1a237e"/>
    <path d="M 391.401023 256.035876 
L 391.401023 130.712852 
" clip-path="url(#pfb838617ef)" style="fill: none; stroke: #1a237e"/>
   </g>
   <g id="line2d_27">
    <defs>
     <path id="mb1b2697764" d="M 3 0 
L -3 -0 
" style="stroke: #1a237e"/>
    </defs>
    <g clip-path="url(#pfb838617ef)">
     <use xlink:href="#mb1b2697764" x="113.125698" y="170.950266" style="fill: #1a237e; stroke: #1a237e"/>
     <use xlink:href="#mb1b2697764" x="345.021802" y="243.563412" style="fill: #1a237e; stroke: #1a237e"/>
     <use xlink:href="#mb1b2697764" x="66.746477" y="181.485537" style="fill: #1a237e; stroke: #1a237e"/>
     <use xlink:href="#mb1b2697764" x="89.936088" y="180.174606" style="fill: #1a237e; stroke: #1a237e"/>
     <use xlink:href="#mb1b2697764" x="136.315308" y="180.464015" style="fill: #1a237e; stroke: #1a237e"/>
     <use xlink:href="#mb1b2697764" x="159.504919" y="178.049478" style="fill: #1a237e; stroke: #1a237e"/>
     <use xlink:href="#mb1b2697764" x="182.694529" y="261.216" style="fill: #1a237e; stroke: #1a237e"/>
     <use xlink:href="#mb1b2697764" x="205.88414" y="257.841703" style="fill: #1a237e; stroke: #1a237e"/>
     <use xlink:href="#mb1b2697764" x="229.07375" y="257.797281" style="fill: #1a237e; stroke: #1a237e"/>
     <use xlink:href="#mb1b2697764" x="252.26336" y="258.046887" style="fill: #1a237e; stroke: #1a237e"/>
     <use xlink:href="#mb1b2697764" x="275.452971" y="256.375578" style="fill: #1a237e; stroke: #1a237e"/>
     <use xlink:href="#mb1b2697764" x="298.642581" y="256.573656" style="fill: #1a237e; stroke: #1a237e"/>
     <use xlink:href="#mb1b2697764" x="321.832192" y="256.276593" style="fill: #1a237e; stroke: #1a237e"/>
     <use xlink:href="#mb1b2697764" x="368.211412" y="256.56155" style="fill: #1a237e; stroke: #1a237e"/>
     <use xlink:href="#mb1b2697764" x="391.401023" y="256.035876" style="fill: #1a237e; stroke: #1a237e"/>
    </g>
   </g>
   <g id="line2d_28">
    <g clip-path="url(#pfb838617ef)">
     <use xlink:href="#mb1b2697764" x="113.125698" y="55.088652" style="fill: #1a237e; stroke: #1a237e"/>
     <use xlink:href="#mb1b2697764" x="345.021802" y="110.55143" style="fill: #1a237e; stroke: #1a237e"/>
     <use xlink:href="#mb1b2697764" x="66.746477" y="24.931613" style="fill: #1a237e; stroke: #1a237e"/>
     <use xlink:href="#mb1b2697764" x="89.936088" y="19.296" style="fill: #1a237e; stroke: #1a237e"/>
     <use xlink:href="#mb1b2697764" x="136.315308" y="20.164326" style="fill: #1a237e; stroke: #1a237e"/>
     <use xlink:href="#mb1b2697764" x="159.504919" y="24.925985" style="fill: #1a237e; stroke: #1a237e"/>
     <use xlink:href="#mb1b2697764" x="182.694529" y="117.390602" style="fill: #1a237e; stroke: #1a237e"/>
     <use xlink:href="#mb1b2697764" x="205.88414" y="121.465928" style="fill: #1a237e; stroke: #1a237e"/>
     <use xlink:href="#mb1b2697764" x="229.07375" y="126.720071" style="fill: #1a237e; stroke: #1a237e"/>
     <use xlink:href="#mb1b2697764" x="252.26336" y="129.670411" style="fill: #1a237e; stroke: #1a237e"/>
     <use xlink:href="#mb1b2697764" x="275.452971" y="130.705756" style="fill: #1a237e; stroke: #1a237e"/>
     <use xlink:href="#mb1b2697764" x="298.642581" y="132.064204" style="fill: #1a237e; stroke: #1a237e"/>
     <use xlink:href="#mb1b2697764" x="321.832192" y="132.302569" style="fill: #1a237e; stroke: #1a237e"/>
     <use xlink:href="#mb1b2697764" x="368.211412" y="130.929101" style="fill: #1a237e; stroke: #1a237e"/>
     <use xlink:href="#mb1b2697764" x="391.401023" y="130.712852" style="fill: #1a237e; stroke: #1a237e"/>
    </g>
   </g>
   <g id="line2d_29">
    <defs>
     <path id="mdc044a4494" d="M -0 3 
L 3 -3 
L -3 -3 
z
" style="stroke: #1a237e; stroke-linejoin: miter"/>
    </defs>
    <g clip-path="url(#pfb838617ef)">
     <use xlink:href="#mdc044a4494" x="113.125698" y="113.019459" style="fill-opacity: 0; stroke: #1a237e; stroke-linejoin: miter"/>
     <use xlink:href="#mdc044a4494" x="345.021802" y="177.057421" style="fill-opacity: 0; stroke: #1a237e; stroke-linejoin: miter"/>
     <use xlink:href="#mdc044a4494" x="66.746477" y="103.208575" style="fill-opacity: 0; stroke: #1a237e; stroke-linejoin: miter"/>
     <use xlink:href="#mdc044a4494" x="89.936088" y="99.735303" style="fill-opacity: 0; stroke: #1a237e; stroke-linejoin: miter"/>
     <use xlink:href="#mdc044a4494" x="136.315308" y="100.314171" style="fill-opacity: 0; stroke: #1a237e; stroke-linejoin: miter"/>
     <use xlink:href="#mdc044a4494" x="159.504919" y="101.487732" style="fill-opacity: 0; stroke: #1a237e; stroke-linejoin: miter"/>
     <use xlink:href="#mdc044a4494" x="182.694529" y="189.303301" style="fill-opacity: 0; stroke: #1a237e; stroke-linejoin: miter"/>
     <use xlink:href="#mdc044a4494" x="205.88414" y="189.653815" style="fill-opacity: 0; stroke: #1a237e; stroke-linejoin: miter"/>
     <use xlink:href="#mdc044a4494" x="229.07375" y="192.258676" style="fill-opacity: 0; stroke: #1a237e; stroke-linejoin: miter"/>
     <use xlink:href="#mdc044a4494" x="252.26336" y="193.858649" style="fill-opacity: 0; stroke: #1a237e; stroke-linejoin: miter"/>
     <use xlink:href="#mdc044a4494" x="275.452971" y="193.540667" style="fill-opacity: 0; stroke: #1a237e; stroke-linejoin: miter"/>
     <use xlink:href="#mdc044a4494" x="298.642581" y="194.31893" style="fill-opacity: 0; stroke: #1a237e; stroke-linejoin: miter"/>
     <use xlink:href="#mdc044a4494" x="321.832192" y="194.289581" style="fill-opacity: 0; stroke: #1a237e; stroke-linejoin: miter"/>
     <use xlink:href="#mdc044a4494" x="368.211412" y="193.745325" style="fill-opacity: 0; stroke: #1a237e; stroke-linejoin: miter"/>
     <use xlink:href="#mdc044a4494" x="391.401023" y="193.374364" style="fill-opacity: 0; stroke: #1a237e; stroke-linejoin: miter"/>
    </g>
   </g>
   <g id="patch_3">
    <path d="M 50.51375 273.312 
L 50.51375 7.2 
" style="fill: none; stroke: #000000; stroke-width: 0.8; stroke-linejoin: miter; stroke-linecap: square"/>
   </g>
   <g id="patch_4">
    <path d="M 407.63375 273.312 
L 407.63375 7.2 
" style="fill: none; stroke: #000000; stroke-width: 0.8; stroke-linejoin: miter; stroke-linecap: square"/>
   </g>
   <g id="patch_5">
    <path d="M 50.51375 273.312 
L 407.63375 273.312 
" style="fill: none; stroke: #000000; stroke-width: 0.8; stroke-linejoin: miter; stroke-linecap: square"/>
   </g>
   <g id="patch_6">
    <path d="M 50.51375 7.2 
L 407.63375 7.2 
" style="fill: none; stroke: #000000; stroke-width: 0.8; stroke-linejoin: miter; stroke-linecap: square"/>
   </g>
  </g>
 </g>
 <defs>
  <clipPath id="pfb838617ef">
   <rect x="50.51375" y="7.2" width="357.12" height="266.112"/>
  </clipPath>
 </defs>
</svg>
