<?xml version="1.0" encoding="utf-8" standalone="no"?>
<!DOCTYPE svg PUBLIC "-//W3C//DTD SVG 1.1//EN"
  "http://www.w3.org/Graphics/SVG/1.1/DTD/svg11.dtd">
<svg xmlns:xlink="http://www.w3.org/1999/xlink" width="828.594064pt" height="438.188003pt" viewBox="0 0 828.594064 438.188003" xmlns="http://www.w3.org/2000/svg" version="1.1">
 <metadata>
  <rdf:RDF xmlns:dc="http://purl.org/dc/elements/1.1/" xmlns:cc="http://creativecommons.org/ns#" xmlns:rdf="http://www.w3.org/1999/02/22-rdf-syntax-ns#">
   <cc:Work>
    <dc:type rdf:resource="http://purl.org/dc/dcmitype/StillImage"/>
    <dc:date>2025-05-30T10:49:32.355651</dc:date>
    <dc:format>image/svg+xml</dc:format>
    <dc:creator>
     <cc:Agent>
      <dc:title>Matplotlib v3.10.1, https://matplotlib.org/</dc:title>
     </cc:Agent>
    </dc:creator>
   </cc:Work>
  </rdf:RDF>
 </metadata>
 <defs>
  <style type="text/css">*{stroke-linejoin: round; stroke-linecap: butt}</style>
 </defs>
 <g id="figure_1">
  <g id="patch_1">
   <path d="M 0 438.188003 
L 828.594064 438.188003 
L 828.594064 0 
L 0 0 
z
" style="fill: #ffffff"/>
  </g>
  <g id="axes_1">
   <g id="patch_2">
    <path d="M 39.1475 357.6 
L 394.238409 357.6 
L 394.238409 24.96 
L 39.1475 24.96 
z
" style="fill: #ffffff"/>
   </g>
   <g id="matplotlib.axis_1">
    <g id="xtick_1">
     <g id="line2d_1">
      <defs>
       <path id="m7cda38c8f4" d="M 0 0 
L 0 -3.5 
" style="stroke: #000000; stroke-width: 0.8"/>
      </defs>
      <g>
       <use xlink:href="#m7cda38c8f4" x="55.287996" y="357.6" style="stroke: #000000; stroke-width: 0.8"/>
      </g>
     </g>
     <g id="line2d_2">
      <defs>
       <path id="mcf342c2f1b" d="M 0 0 
L 0 3.5 
" style="stroke: #000000; stroke-width: 0.8"/>
      </defs>
      <g>
       <use xlink:href="#mcf342c2f1b" x="55.287996" y="24.96" style="stroke: #000000; stroke-width: 0.8"/>
      </g>
     </g>
     <g id="text_1">
      <!-- 0.0e+00 -->
      <g transform="translate(36.656064 411.349218) rotate(-45) scale(0.14 -0.14)">
       <defs>
        <path id="DejaVuSans-30" d="M 2034 4250 
Q 1547 4250 1301 3770 
Q 1056 3291 1056 2328 
Q 1056 1369 1301 889 
Q 1547 409 2034 409 
Q 2525 409 2770 889 
Q 3016 1369 3016 2328 
Q 3016 3291 2770 3770 
Q 2525 4250 2034 4250 
z
M 2034 4750 
Q 2819 4750 3233 4129 
Q 3647 3509 3647 2328 
Q 3647 1150 3233 529 
Q 2819 -91 2034 -91 
Q 1250 -91 836 529 
Q 422 1150 422 2328 
Q 422 3509 836 4129 
Q 1250 4750 2034 4750 
z
" transform="scale(0.015625)"/>
        <path id="DejaVuSans-2e" d="M 684 794 
L 1344 794 
L 1344 0 
L 684 0 
L 684 794 
z
" transform="scale(0.015625)"/>
        <path id="DejaVuSans-65" d="M 3597 1894 
L 3597 1613 
L 953 1613 
Q 991 1019 1311 708 
Q 1631 397 2203 397 
Q 2534 397 2845 478 
Q 3156 559 3463 722 
L 3463 178 
Q 3153 47 2828 -22 
Q 2503 -91 2169 -91 
Q 1331 -91 842 396 
Q 353 884 353 1716 
Q 353 2575 817 3079 
Q 1281 3584 2069 3584 
Q 2775 3584 3186 3129 
Q 3597 2675 3597 1894 
z
M 3022 2063 
Q 3016 2534 2758 2815 
Q 2500 3097 2075 3097 
Q 1594 3097 1305 2825 
Q 1016 2553 972 2059 
L 3022 2063 
z
" transform="scale(0.015625)"/>
        <path id="DejaVuSans-2b" d="M 2944 4013 
L 2944 2272 
L 4684 2272 
L 4684 1741 
L 2944 1741 
L 2944 0 
L 2419 0 
L 2419 1741 
L 678 1741 
L 678 2272 
L 2419 2272 
L 2419 4013 
L 2944 4013 
z
" transform="scale(0.015625)"/>
       </defs>
       <use xlink:href="#DejaVuSans-30"/>
       <use xlink:href="#DejaVuSans-2e" transform="translate(63.623047 0)"/>
       <use xlink:href="#DejaVuSans-30" transform="translate(95.410156 0)"/>
       <use xlink:href="#DejaVuSans-65" transform="translate(159.033203 0)"/>
       <use xlink:href="#DejaVuSans-2b" transform="translate(220.556641 0)"/>
       <use xlink:href="#DejaVuSans-30" transform="translate(304.345703 0)"/>
       <use xlink:href="#DejaVuSans-30" transform="translate(367.96875 0)"/>
      </g>
     </g>
    </g>
    <g id="xtick_2">
     <g id="line2d_3">
      <g>
       <use xlink:href="#m7cda38c8f4" x="100.122707" y="357.6" style="stroke: #000000; stroke-width: 0.8"/>
      </g>
     </g>
     <g id="line2d_4">
      <g>
       <use xlink:href="#mcf342c2f1b" x="100.122707" y="24.96" style="stroke: #000000; stroke-width: 0.8"/>
      </g>
     </g>
     <g id="text_2">
      <!-- 2.5e+04 -->
      <g transform="translate(81.490774 411.349218) rotate(-45) scale(0.14 -0.14)">
       <defs>
        <path id="DejaVuSans-32" d="M 1228 531 
L 3431 531 
L 3431 0 
L 469 0 
L 469 531 
Q 828 903 1448 1529 
Q 2069 2156 2228 2338 
Q 2531 2678 2651 2914 
Q 2772 3150 2772 3378 
Q 2772 3750 2511 3984 
Q 2250 4219 1831 4219 
Q 1534 4219 1204 4116 
Q 875 4013 500 3803 
L 500 4441 
Q 881 4594 1212 4672 
Q 1544 4750 1819 4750 
Q 2544 4750 2975 4387 
Q 3406 4025 3406 3419 
Q 3406 3131 3298 2873 
Q 3191 2616 2906 2266 
Q 2828 2175 2409 1742 
Q 1991 1309 1228 531 
z
" transform="scale(0.015625)"/>
        <path id="DejaVuSans-35" d="M 691 4666 
L 3169 4666 
L 3169 4134 
L 1269 4134 
L 1269 2991 
Q 1406 3038 1543 3061 
Q 1681 3084 1819 3084 
Q 2600 3084 3056 2656 
Q 3513 2228 3513 1497 
Q 3513 744 3044 326 
Q 2575 -91 1722 -91 
Q 1428 -91 1123 -41 
Q 819 9 494 109 
L 494 744 
Q 775 591 1075 516 
Q 1375 441 1709 441 
Q 2250 441 2565 725 
Q 2881 1009 2881 1497 
Q 2881 1984 2565 2268 
Q 2250 2553 1709 2553 
Q 1456 2553 1204 2497 
Q 953 2441 691 2322 
L 691 4666 
z
" transform="scale(0.015625)"/>
        <path id="DejaVuSans-34" d="M 2419 4116 
L 825 1625 
L 2419 1625 
L 2419 4116 
z
M 2253 4666 
L 3047 4666 
L 3047 1625 
L 3713 1625 
L 3713 1100 
L 3047 1100 
L 3047 0 
L 2419 0 
L 2419 1100 
L 313 1100 
L 313 1709 
L 2253 4666 
z
" transform="scale(0.015625)"/>
       </defs>
       <use xlink:href="#DejaVuSans-32"/>
       <use xlink:href="#DejaVuSans-2e" transform="translate(63.623047 0)"/>
       <use xlink:href="#DejaVuSans-35" transform="translate(95.410156 0)"/>
       <use xlink:href="#DejaVuSans-65" transform="translate(159.033203 0)"/>
       <use xlink:href="#DejaVuSans-2b" transform="translate(220.556641 0)"/>
       <use xlink:href="#DejaVuSans-30" transform="translate(304.345703 0)"/>
       <use xlink:href="#DejaVuSans-34" transform="translate(367.96875 0)"/>
      </g>
     </g>
    </g>
    <g id="xtick_3">
     <g id="line2d_5">
      <g>
       <use xlink:href="#m7cda38c8f4" x="144.957417" y="357.6" style="stroke: #000000; stroke-width: 0.8"/>
      </g>
     </g>
     <g id="line2d_6">
      <g>
       <use xlink:href="#mcf342c2f1b" x="144.957417" y="24.96" style="stroke: #000000; stroke-width: 0.8"/>
      </g>
     </g>
     <g id="text_3">
      <!-- 5.0e+04 -->
      <g transform="translate(126.325485 411.349218) rotate(-45) scale(0.14 -0.14)">
       <use xlink:href="#DejaVuSans-35"/>
       <use xlink:href="#DejaVuSans-2e" transform="translate(63.623047 0)"/>
       <use xlink:href="#DejaVuSans-30" transform="translate(95.410156 0)"/>
       <use xlink:href="#DejaVuSans-65" transform="translate(159.033203 0)"/>
       <use xlink:href="#DejaVuSans-2b" transform="translate(220.556641 0)"/>
       <use xlink:href="#DejaVuSans-30" transform="translate(304.345703 0)"/>
       <use xlink:href="#DejaVuSans-34" transform="translate(367.96875 0)"/>
      </g>
     </g>
    </g>
    <g id="xtick_4">
     <g id="line2d_7">
      <g>
       <use xlink:href="#m7cda38c8f4" x="189.792128" y="357.6" style="stroke: #000000; stroke-width: 0.8"/>
      </g>
     </g>
     <g id="line2d_8">
      <g>
       <use xlink:href="#mcf342c2f1b" x="189.792128" y="24.96" style="stroke: #000000; stroke-width: 0.8"/>
      </g>
     </g>
     <g id="text_4">
      <!-- 7.5e+04 -->
      <g transform="translate(171.160196 411.349218) rotate(-45) scale(0.14 -0.14)">
       <defs>
        <path id="DejaVuSans-37" d="M 525 4666 
L 3525 4666 
L 3525 4397 
L 1831 0 
L 1172 0 
L 2766 4134 
L 525 4134 
L 525 4666 
z
" transform="scale(0.015625)"/>
       </defs>
       <use xlink:href="#DejaVuSans-37"/>
       <use xlink:href="#DejaVuSans-2e" transform="translate(63.623047 0)"/>
       <use xlink:href="#DejaVuSans-35" transform="translate(95.410156 0)"/>
       <use xlink:href="#DejaVuSans-65" transform="translate(159.033203 0)"/>
       <use xlink:href="#DejaVuSans-2b" transform="translate(220.556641 0)"/>
       <use xlink:href="#DejaVuSans-30" transform="translate(304.345703 0)"/>
       <use xlink:href="#DejaVuSans-34" transform="translate(367.96875 0)"/>
      </g>
     </g>
    </g>
    <g id="xtick_5">
     <g id="line2d_9">
      <g>
       <use xlink:href="#m7cda38c8f4" x="234.626839" y="357.6" style="stroke: #000000; stroke-width: 0.8"/>
      </g>
     </g>
     <g id="line2d_10">
      <g>
       <use xlink:href="#mcf342c2f1b" x="234.626839" y="24.96" style="stroke: #000000; stroke-width: 0.8"/>
      </g>
     </g>
     <g id="text_5">
      <!-- 1.0e+05 -->
      <g transform="translate(215.994907 411.349218) rotate(-45) scale(0.14 -0.14)">
       <defs>
        <path id="DejaVuSans-31" d="M 794 531 
L 1825 531 
L 1825 4091 
L 703 3866 
L 703 4441 
L 1819 4666 
L 2450 4666 
L 2450 531 
L 3481 531 
L 3481 0 
L 794 0 
L 794 531 
z
" transform="scale(0.015625)"/>
       </defs>
       <use xlink:href="#DejaVuSans-31"/>
       <use xlink:href="#DejaVuSans-2e" transform="translate(63.623047 0)"/>
       <use xlink:href="#DejaVuSans-30" transform="translate(95.410156 0)"/>
       <use xlink:href="#DejaVuSans-65" transform="translate(159.033203 0)"/>
       <use xlink:href="#DejaVuSans-2b" transform="translate(220.556641 0)"/>
       <use xlink:href="#DejaVuSans-30" transform="translate(304.345703 0)"/>
       <use xlink:href="#DejaVuSans-35" transform="translate(367.96875 0)"/>
      </g>
     </g>
    </g>
    <g id="xtick_6">
     <g id="line2d_11">
      <g>
       <use xlink:href="#m7cda38c8f4" x="279.46155" y="357.6" style="stroke: #000000; stroke-width: 0.8"/>
      </g>
     </g>
     <g id="line2d_12">
      <g>
       <use xlink:href="#mcf342c2f1b" x="279.46155" y="24.96" style="stroke: #000000; stroke-width: 0.8"/>
      </g>
     </g>
     <g id="text_6">
      <!-- 1.2e+05 -->
      <g transform="translate(260.829617 411.349218) rotate(-45) scale(0.14 -0.14)">
       <use xlink:href="#DejaVuSans-31"/>
       <use xlink:href="#DejaVuSans-2e" transform="translate(63.623047 0)"/>
       <use xlink:href="#DejaVuSans-32" transform="translate(95.410156 0)"/>
       <use xlink:href="#DejaVuSans-65" transform="translate(159.033203 0)"/>
       <use xlink:href="#DejaVuSans-2b" transform="translate(220.556641 0)"/>
       <use xlink:href="#DejaVuSans-30" transform="translate(304.345703 0)"/>
       <use xlink:href="#DejaVuSans-35" transform="translate(367.96875 0)"/>
      </g>
     </g>
    </g>
    <g id="xtick_7">
     <g id="line2d_13">
      <g>
       <use xlink:href="#m7cda38c8f4" x="324.29626" y="357.6" style="stroke: #000000; stroke-width: 0.8"/>
      </g>
     </g>
     <g id="line2d_14">
      <g>
       <use xlink:href="#mcf342c2f1b" x="324.29626" y="24.96" style="stroke: #000000; stroke-width: 0.8"/>
      </g>
     </g>
     <g id="text_7">
      <!-- 1.5e+05 -->
      <g transform="translate(305.664328 411.349218) rotate(-45) scale(0.14 -0.14)">
       <use xlink:href="#DejaVuSans-31"/>
       <use xlink:href="#DejaVuSans-2e" transform="translate(63.623047 0)"/>
       <use xlink:href="#DejaVuSans-35" transform="translate(95.410156 0)"/>
       <use xlink:href="#DejaVuSans-65" transform="translate(159.033203 0)"/>
       <use xlink:href="#DejaVuSans-2b" transform="translate(220.556641 0)"/>
       <use xlink:href="#DejaVuSans-30" transform="translate(304.345703 0)"/>
       <use xlink:href="#DejaVuSans-35" transform="translate(367.96875 0)"/>
      </g>
     </g>
    </g>
    <g id="xtick_8">
     <g id="line2d_15">
      <g>
       <use xlink:href="#m7cda38c8f4" x="369.130971" y="357.6" style="stroke: #000000; stroke-width: 0.8"/>
      </g>
     </g>
     <g id="line2d_16">
      <g>
       <use xlink:href="#mcf342c2f1b" x="369.130971" y="24.96" style="stroke: #000000; stroke-width: 0.8"/>
      </g>
     </g>
     <g id="text_8">
      <!-- 1.8e+05 -->
      <g transform="translate(350.499039 411.349218) rotate(-45) scale(0.14 -0.14)">
       <defs>
        <path id="DejaVuSans-38" d="M 2034 2216 
Q 1584 2216 1326 1975 
Q 1069 1734 1069 1313 
Q 1069 891 1326 650 
Q 1584 409 2034 409 
Q 2484 409 2743 651 
Q 3003 894 3003 1313 
Q 3003 1734 2745 1975 
Q 2488 2216 2034 2216 
z
M 1403 2484 
Q 997 2584 770 2862 
Q 544 3141 544 3541 
Q 544 4100 942 4425 
Q 1341 4750 2034 4750 
Q 2731 4750 3128 4425 
Q 3525 4100 3525 3541 
Q 3525 3141 3298 2862 
Q 3072 2584 2669 2484 
Q 3125 2378 3379 2068 
Q 3634 1759 3634 1313 
Q 3634 634 3220 271 
Q 2806 -91 2034 -91 
Q 1263 -91 848 271 
Q 434 634 434 1313 
Q 434 1759 690 2068 
Q 947 2378 1403 2484 
z
M 1172 3481 
Q 1172 3119 1398 2916 
Q 1625 2713 2034 2713 
Q 2441 2713 2670 2916 
Q 2900 3119 2900 3481 
Q 2900 3844 2670 4047 
Q 2441 4250 2034 4250 
Q 1625 4250 1398 4047 
Q 1172 3844 1172 3481 
z
" transform="scale(0.015625)"/>
       </defs>
       <use xlink:href="#DejaVuSans-31"/>
       <use xlink:href="#DejaVuSans-2e" transform="translate(63.623047 0)"/>
       <use xlink:href="#DejaVuSans-38" transform="translate(95.410156 0)"/>
       <use xlink:href="#DejaVuSans-65" transform="translate(159.033203 0)"/>
       <use xlink:href="#DejaVuSans-2b" transform="translate(220.556641 0)"/>
       <use xlink:href="#DejaVuSans-30" transform="translate(304.345703 0)"/>
       <use xlink:href="#DejaVuSans-35" transform="translate(367.96875 0)"/>
      </g>
     </g>
    </g>
    <g id="text_9">
     <!-- Reynolds Number $Re$ -->
     <g transform="translate(142.842955 428.048003) scale(0.14 -0.14)">
      <defs>
       <path id="DejaVuSans-52" d="M 2841 2188 
Q 3044 2119 3236 1894 
Q 3428 1669 3622 1275 
L 4263 0 
L 3584 0 
L 2988 1197 
Q 2756 1666 2539 1819 
Q 2322 1972 1947 1972 
L 1259 1972 
L 1259 0 
L 628 0 
L 628 4666 
L 2053 4666 
Q 2853 4666 3247 4331 
Q 3641 3997 3641 3322 
Q 3641 2881 3436 2590 
Q 3231 2300 2841 2188 
z
M 1259 4147 
L 1259 2491 
L 2053 2491 
Q 2509 2491 2742 2702 
Q 2975 2913 2975 3322 
Q 2975 3731 2742 3939 
Q 2509 4147 2053 4147 
L 1259 4147 
z
" transform="scale(0.015625)"/>
       <path id="DejaVuSans-79" d="M 2059 -325 
Q 1816 -950 1584 -1140 
Q 1353 -1331 966 -1331 
L 506 -1331 
L 506 -850 
L 844 -850 
Q 1081 -850 1212 -737 
Q 1344 -625 1503 -206 
L 1606 56 
L 191 3500 
L 800 3500 
L 1894 763 
L 2988 3500 
L 3597 3500 
L 2059 -325 
z
" transform="scale(0.015625)"/>
       <path id="DejaVuSans-6e" d="M 3513 2113 
L 3513 0 
L 2938 0 
L 2938 2094 
Q 2938 2591 2744 2837 
Q 2550 3084 2163 3084 
Q 1697 3084 1428 2787 
Q 1159 2491 1159 1978 
L 1159 0 
L 581 0 
L 581 3500 
L 1159 3500 
L 1159 2956 
Q 1366 3272 1645 3428 
Q 1925 3584 2291 3584 
Q 2894 3584 3203 3211 
Q 3513 2838 3513 2113 
z
" transform="scale(0.015625)"/>
       <path id="DejaVuSans-6f" d="M 1959 3097 
Q 1497 3097 1228 2736 
Q 959 2375 959 1747 
Q 959 1119 1226 758 
Q 1494 397 1959 397 
Q 2419 397 2687 759 
Q 2956 1122 2956 1747 
Q 2956 2369 2687 2733 
Q 2419 3097 1959 3097 
z
M 1959 3584 
Q 2709 3584 3137 3096 
Q 3566 2609 3566 1747 
Q 3566 888 3137 398 
Q 2709 -91 1959 -91 
Q 1206 -91 779 398 
Q 353 888 353 1747 
Q 353 2609 779 3096 
Q 1206 3584 1959 3584 
z
" transform="scale(0.015625)"/>
       <path id="DejaVuSans-6c" d="M 603 4863 
L 1178 4863 
L 1178 0 
L 603 0 
L 603 4863 
z
" transform="scale(0.015625)"/>
       <path id="DejaVuSans-64" d="M 2906 2969 
L 2906 4863 
L 3481 4863 
L 3481 0 
L 2906 0 
L 2906 525 
Q 2725 213 2448 61 
Q 2172 -91 1784 -91 
Q 1150 -91 751 415 
Q 353 922 353 1747 
Q 353 2572 751 3078 
Q 1150 3584 1784 3584 
Q 2172 3584 2448 3432 
Q 2725 3281 2906 2969 
z
M 947 1747 
Q 947 1113 1208 752 
Q 1469 391 1925 391 
Q 2381 391 2643 752 
Q 2906 1113 2906 1747 
Q 2906 2381 2643 2742 
Q 2381 3103 1925 3103 
Q 1469 3103 1208 2742 
Q 947 2381 947 1747 
z
" transform="scale(0.015625)"/>
       <path id="DejaVuSans-73" d="M 2834 3397 
L 2834 2853 
Q 2591 2978 2328 3040 
Q 2066 3103 1784 3103 
Q 1356 3103 1142 2972 
Q 928 2841 928 2578 
Q 928 2378 1081 2264 
Q 1234 2150 1697 2047 
L 1894 2003 
Q 2506 1872 2764 1633 
Q 3022 1394 3022 966 
Q 3022 478 2636 193 
Q 2250 -91 1575 -91 
Q 1294 -91 989 -36 
Q 684 19 347 128 
L 347 722 
Q 666 556 975 473 
Q 1284 391 1588 391 
Q 1994 391 2212 530 
Q 2431 669 2431 922 
Q 2431 1156 2273 1281 
Q 2116 1406 1581 1522 
L 1381 1569 
Q 847 1681 609 1914 
Q 372 2147 372 2553 
Q 372 3047 722 3315 
Q 1072 3584 1716 3584 
Q 2034 3584 2315 3537 
Q 2597 3491 2834 3397 
z
" transform="scale(0.015625)"/>
       <path id="DejaVuSans-20" transform="scale(0.015625)"/>
       <path id="DejaVuSans-4e" d="M 628 4666 
L 1478 4666 
L 3547 763 
L 3547 4666 
L 4159 4666 
L 4159 0 
L 3309 0 
L 1241 3903 
L 1241 0 
L 628 0 
L 628 4666 
z
" transform="scale(0.015625)"/>
       <path id="DejaVuSans-75" d="M 544 1381 
L 544 3500 
L 1119 3500 
L 1119 1403 
Q 1119 906 1312 657 
Q 1506 409 1894 409 
Q 2359 409 2629 706 
Q 2900 1003 2900 1516 
L 2900 3500 
L 3475 3500 
L 3475 0 
L 2900 0 
L 2900 538 
Q 2691 219 2414 64 
Q 2138 -91 1772 -91 
Q 1169 -91 856 284 
Q 544 659 544 1381 
z
M 1991 3584 
L 1991 3584 
z
" transform="scale(0.015625)"/>
       <path id="DejaVuSans-6d" d="M 3328 2828 
Q 3544 3216 3844 3400 
Q 4144 3584 4550 3584 
Q 5097 3584 5394 3201 
Q 5691 2819 5691 2113 
L 5691 0 
L 5113 0 
L 5113 2094 
Q 5113 2597 4934 2840 
Q 4756 3084 4391 3084 
Q 3944 3084 3684 2787 
Q 3425 2491 3425 1978 
L 3425 0 
L 2847 0 
L 2847 2094 
Q 2847 2600 2669 2842 
Q 2491 3084 2119 3084 
Q 1678 3084 1418 2786 
Q 1159 2488 1159 1978 
L 1159 0 
L 581 0 
L 581 3500 
L 1159 3500 
L 1159 2956 
Q 1356 3278 1631 3431 
Q 1906 3584 2284 3584 
Q 2666 3584 2933 3390 
Q 3200 3197 3328 2828 
z
" transform="scale(0.015625)"/>
       <path id="DejaVuSans-62" d="M 3116 1747 
Q 3116 2381 2855 2742 
Q 2594 3103 2138 3103 
Q 1681 3103 1420 2742 
Q 1159 2381 1159 1747 
Q 1159 1113 1420 752 
Q 1681 391 2138 391 
Q 2594 391 2855 752 
Q 3116 1113 3116 1747 
z
M 1159 2969 
Q 1341 3281 1617 3432 
Q 1894 3584 2278 3584 
Q 2916 3584 3314 3078 
Q 3713 2572 3713 1747 
Q 3713 922 3314 415 
Q 2916 -91 2278 -91 
Q 1894 -91 1617 61 
Q 1341 213 1159 525 
L 1159 0 
L 581 0 
L 581 4863 
L 1159 4863 
L 1159 2969 
z
" transform="scale(0.015625)"/>
       <path id="DejaVuSans-72" d="M 2631 2963 
Q 2534 3019 2420 3045 
Q 2306 3072 2169 3072 
Q 1681 3072 1420 2755 
Q 1159 2438 1159 1844 
L 1159 0 
L 581 0 
L 581 3500 
L 1159 3500 
L 1159 2956 
Q 1341 3275 1631 3429 
Q 1922 3584 2338 3584 
Q 2397 3584 2469 3576 
Q 2541 3569 2628 3553 
L 2631 2963 
z
" transform="scale(0.015625)"/>
       <path id="DejaVuSans-Oblique-52" d="M 1613 4147 
L 1294 2491 
L 2106 2491 
Q 2584 2491 2879 2755 
Q 3175 3019 3175 3444 
Q 3175 3784 2976 3965 
Q 2778 4147 2406 4147 
L 1613 4147 
z
M 2772 2241 
Q 2972 2194 3105 2009 
Q 3238 1825 3413 1275 
L 3809 0 
L 3144 0 
L 2778 1197 
Q 2638 1659 2453 1815 
Q 2269 1972 1888 1972 
L 1191 1972 
L 806 0 
L 172 0 
L 1081 4666 
L 2503 4666 
Q 3150 4666 3495 4373 
Q 3841 4081 3841 3531 
Q 3841 3044 3547 2687 
Q 3253 2331 2772 2241 
z
" transform="scale(0.015625)"/>
       <path id="DejaVuSans-Oblique-65" d="M 3078 2063 
Q 3088 2113 3092 2166 
Q 3097 2219 3097 2272 
Q 3097 2653 2873 2875 
Q 2650 3097 2266 3097 
Q 1838 3097 1509 2826 
Q 1181 2556 1013 2059 
L 3078 2063 
z
M 3578 1613 
L 903 1613 
Q 884 1494 878 1425 
Q 872 1356 872 1306 
Q 872 872 1139 634 
Q 1406 397 1894 397 
Q 2269 397 2603 481 
Q 2938 566 3225 728 
L 3116 159 
Q 2806 34 2476 -28 
Q 2147 -91 1806 -91 
Q 1078 -91 686 257 
Q 294 606 294 1247 
Q 294 1794 489 2264 
Q 684 2734 1063 3103 
Q 1306 3334 1642 3459 
Q 1978 3584 2356 3584 
Q 2950 3584 3301 3228 
Q 3653 2872 3653 2272 
Q 3653 2128 3634 1964 
Q 3616 1800 3578 1613 
z
" transform="scale(0.015625)"/>
      </defs>
      <use xlink:href="#DejaVuSans-52" transform="translate(0 0.015625)"/>
      <use xlink:href="#DejaVuSans-65" transform="translate(69.482422 0.015625)"/>
      <use xlink:href="#DejaVuSans-79" transform="translate(131.005859 0.015625)"/>
      <use xlink:href="#DejaVuSans-6e" transform="translate(190.185547 0.015625)"/>
      <use xlink:href="#DejaVuSans-6f" transform="translate(253.564453 0.015625)"/>
      <use xlink:href="#DejaVuSans-6c" transform="translate(314.746094 0.015625)"/>
      <use xlink:href="#DejaVuSans-64" transform="translate(342.529297 0.015625)"/>
      <use xlink:href="#DejaVuSans-73" transform="translate(406.005859 0.015625)"/>
      <use xlink:href="#DejaVuSans-20" transform="translate(458.105469 0.015625)"/>
      <use xlink:href="#DejaVuSans-4e" transform="translate(489.892578 0.015625)"/>
      <use xlink:href="#DejaVuSans-75" transform="translate(564.697266 0.015625)"/>
      <use xlink:href="#DejaVuSans-6d" transform="translate(628.076172 0.015625)"/>
      <use xlink:href="#DejaVuSans-62" transform="translate(725.488281 0.015625)"/>
      <use xlink:href="#DejaVuSans-65" transform="translate(788.964844 0.015625)"/>
      <use xlink:href="#DejaVuSans-72" transform="translate(850.488281 0.015625)"/>
      <use xlink:href="#DejaVuSans-20" transform="translate(891.601562 0.015625)"/>
      <use xlink:href="#DejaVuSans-Oblique-52" transform="translate(923.388672 0.015625)"/>
      <use xlink:href="#DejaVuSans-Oblique-65" transform="translate(992.871094 0.015625)"/>
     </g>
    </g>
   </g>
   <g id="matplotlib.axis_2">
    <g id="ytick_1">
     <g id="line2d_17">
      <defs>
       <path id="m39a8acce80" d="M 0 0 
L 3.5 0 
" style="stroke: #000000; stroke-width: 0.8"/>
      </defs>
      <g>
       <use xlink:href="#m39a8acce80" x="39.1475" y="337.817036" style="stroke: #000000; stroke-width: 0.8"/>
      </g>
     </g>
     <g id="line2d_18">
      <defs>
       <path id="m2bafeebeb5" d="M 0 0 
L -3.5 0 
" style="stroke: #000000; stroke-width: 0.8"/>
      </defs>
      <g>
       <use xlink:href="#m2bafeebeb5" x="394.238409" y="337.817036" style="stroke: #000000; stroke-width: 0.8"/>
      </g>
     </g>
     <g id="text_10">
      <!-- 2 -->
      <g transform="translate(26.74 343.135942) scale(0.14 -0.14)">
       <use xlink:href="#DejaVuSans-32"/>
      </g>
     </g>
    </g>
    <g id="ytick_2">
     <g id="line2d_19">
      <g>
       <use xlink:href="#m39a8acce80" x="39.1475" y="268.304042" style="stroke: #000000; stroke-width: 0.8"/>
      </g>
     </g>
     <g id="line2d_20">
      <g>
       <use xlink:href="#m2bafeebeb5" x="394.238409" y="268.304042" style="stroke: #000000; stroke-width: 0.8"/>
      </g>
     </g>
     <g id="text_11">
      <!-- 3 -->
      <g transform="translate(26.74 273.622948) scale(0.14 -0.14)">
       <defs>
        <path id="DejaVuSans-33" d="M 2597 2516 
Q 3050 2419 3304 2112 
Q 3559 1806 3559 1356 
Q 3559 666 3084 287 
Q 2609 -91 1734 -91 
Q 1441 -91 1130 -33 
Q 819 25 488 141 
L 488 750 
Q 750 597 1062 519 
Q 1375 441 1716 441 
Q 2309 441 2620 675 
Q 2931 909 2931 1356 
Q 2931 1769 2642 2001 
Q 2353 2234 1838 2234 
L 1294 2234 
L 1294 2753 
L 1863 2753 
Q 2328 2753 2575 2939 
Q 2822 3125 2822 3475 
Q 2822 3834 2567 4026 
Q 2313 4219 1838 4219 
Q 1578 4219 1281 4162 
Q 984 4106 628 3988 
L 628 4550 
Q 988 4650 1302 4700 
Q 1616 4750 1894 4750 
Q 2613 4750 3031 4423 
Q 3450 4097 3450 3541 
Q 3450 3153 3228 2886 
Q 3006 2619 2597 2516 
z
" transform="scale(0.015625)"/>
       </defs>
       <use xlink:href="#DejaVuSans-33"/>
      </g>
     </g>
    </g>
    <g id="ytick_3">
     <g id="line2d_21">
      <g>
       <use xlink:href="#m39a8acce80" x="39.1475" y="198.791047" style="stroke: #000000; stroke-width: 0.8"/>
      </g>
     </g>
     <g id="line2d_22">
      <g>
       <use xlink:href="#m2bafeebeb5" x="394.238409" y="198.791047" style="stroke: #000000; stroke-width: 0.8"/>
      </g>
     </g>
     <g id="text_12">
      <!-- 4 -->
      <g transform="translate(26.74 204.109954) scale(0.14 -0.14)">
       <use xlink:href="#DejaVuSans-34"/>
      </g>
     </g>
    </g>
    <g id="ytick_4">
     <g id="line2d_23">
      <g>
       <use xlink:href="#m39a8acce80" x="39.1475" y="129.278053" style="stroke: #000000; stroke-width: 0.8"/>
      </g>
     </g>
     <g id="line2d_24">
      <g>
       <use xlink:href="#m2bafeebeb5" x="394.238409" y="129.278053" style="stroke: #000000; stroke-width: 0.8"/>
      </g>
     </g>
     <g id="text_13">
      <!-- 5 -->
      <g transform="translate(26.74 134.596959) scale(0.14 -0.14)">
       <use xlink:href="#DejaVuSans-35"/>
      </g>
     </g>
    </g>
    <g id="ytick_5">
     <g id="line2d_25">
      <g>
       <use xlink:href="#m39a8acce80" x="39.1475" y="59.765059" style="stroke: #000000; stroke-width: 0.8"/>
      </g>
     </g>
     <g id="line2d_26">
      <g>
       <use xlink:href="#m2bafeebeb5" x="394.238409" y="59.765059" style="stroke: #000000; stroke-width: 0.8"/>
      </g>
     </g>
     <g id="text_14">
      <!-- 6 -->
      <g transform="translate(26.74 65.083965) scale(0.14 -0.14)">
       <defs>
        <path id="DejaVuSans-36" d="M 2113 2584 
Q 1688 2584 1439 2293 
Q 1191 2003 1191 1497 
Q 1191 994 1439 701 
Q 1688 409 2113 409 
Q 2538 409 2786 701 
Q 3034 994 3034 1497 
Q 3034 2003 2786 2293 
Q 2538 2584 2113 2584 
z
M 3366 4563 
L 3366 3988 
Q 3128 4100 2886 4159 
Q 2644 4219 2406 4219 
Q 1781 4219 1451 3797 
Q 1122 3375 1075 2522 
Q 1259 2794 1537 2939 
Q 1816 3084 2150 3084 
Q 2853 3084 3261 2657 
Q 3669 2231 3669 1497 
Q 3669 778 3244 343 
Q 2819 -91 2113 -91 
Q 1303 -91 875 529 
Q 447 1150 447 2328 
Q 447 3434 972 4092 
Q 1497 4750 2381 4750 
Q 2619 4750 2861 4703 
Q 3103 4656 3366 4563 
z
" transform="scale(0.015625)"/>
       </defs>
       <use xlink:href="#DejaVuSans-36"/>
      </g>
     </g>
    </g>
    <g id="text_15">
     <!-- Lift coefficient slope ($\text{rad}^{-1}$) -->
     <g transform="translate(19.8 288.79) rotate(-90) scale(0.14 -0.14)">
      <defs>
       <path id="DejaVuSans-4c" d="M 628 4666 
L 1259 4666 
L 1259 531 
L 3531 531 
L 3531 0 
L 628 0 
L 628 4666 
z
" transform="scale(0.015625)"/>
       <path id="DejaVuSans-69" d="M 603 3500 
L 1178 3500 
L 1178 0 
L 603 0 
L 603 3500 
z
M 603 4863 
L 1178 4863 
L 1178 4134 
L 603 4134 
L 603 4863 
z
" transform="scale(0.015625)"/>
       <path id="DejaVuSans-66" d="M 2375 4863 
L 2375 4384 
L 1825 4384 
Q 1516 4384 1395 4259 
Q 1275 4134 1275 3809 
L 1275 3500 
L 2222 3500 
L 2222 3053 
L 1275 3053 
L 1275 0 
L 697 0 
L 697 3053 
L 147 3053 
L 147 3500 
L 697 3500 
L 697 3744 
Q 697 4328 969 4595 
Q 1241 4863 1831 4863 
L 2375 4863 
z
" transform="scale(0.015625)"/>
       <path id="DejaVuSans-74" d="M 1172 4494 
L 1172 3500 
L 2356 3500 
L 2356 3053 
L 1172 3053 
L 1172 1153 
Q 1172 725 1289 603 
Q 1406 481 1766 481 
L 2356 481 
L 2356 0 
L 1766 0 
Q 1100 0 847 248 
Q 594 497 594 1153 
L 594 3053 
L 172 3053 
L 172 3500 
L 594 3500 
L 594 4494 
L 1172 4494 
z
" transform="scale(0.015625)"/>
       <path id="DejaVuSans-63" d="M 3122 3366 
L 3122 2828 
Q 2878 2963 2633 3030 
Q 2388 3097 2138 3097 
Q 1578 3097 1268 2742 
Q 959 2388 959 1747 
Q 959 1106 1268 751 
Q 1578 397 2138 397 
Q 2388 397 2633 464 
Q 2878 531 3122 666 
L 3122 134 
Q 2881 22 2623 -34 
Q 2366 -91 2075 -91 
Q 1284 -91 818 406 
Q 353 903 353 1747 
Q 353 2603 823 3093 
Q 1294 3584 2113 3584 
Q 2378 3584 2631 3529 
Q 2884 3475 3122 3366 
z
" transform="scale(0.015625)"/>
       <path id="DejaVuSans-70" d="M 1159 525 
L 1159 -1331 
L 581 -1331 
L 581 3500 
L 1159 3500 
L 1159 2969 
Q 1341 3281 1617 3432 
Q 1894 3584 2278 3584 
Q 2916 3584 3314 3078 
Q 3713 2572 3713 1747 
Q 3713 922 3314 415 
Q 2916 -91 2278 -91 
Q 1894 -91 1617 61 
Q 1341 213 1159 525 
z
M 3116 1747 
Q 3116 2381 2855 2742 
Q 2594 3103 2138 3103 
Q 1681 3103 1420 2742 
Q 1159 2381 1159 1747 
Q 1159 1113 1420 752 
Q 1681 391 2138 391 
Q 2594 391 2855 752 
Q 3116 1113 3116 1747 
z
" transform="scale(0.015625)"/>
       <path id="DejaVuSans-28" d="M 1984 4856 
Q 1566 4138 1362 3434 
Q 1159 2731 1159 2009 
Q 1159 1288 1364 580 
Q 1569 -128 1984 -844 
L 1484 -844 
Q 1016 -109 783 600 
Q 550 1309 550 2009 
Q 550 2706 781 3412 
Q 1013 4119 1484 4856 
L 1984 4856 
z
" transform="scale(0.015625)"/>
       <path id="DejaVuSans-61" d="M 2194 1759 
Q 1497 1759 1228 1600 
Q 959 1441 959 1056 
Q 959 750 1161 570 
Q 1363 391 1709 391 
Q 2188 391 2477 730 
Q 2766 1069 2766 1631 
L 2766 1759 
L 2194 1759 
z
M 3341 1997 
L 3341 0 
L 2766 0 
L 2766 531 
Q 2569 213 2275 61 
Q 1981 -91 1556 -91 
Q 1019 -91 701 211 
Q 384 513 384 1019 
Q 384 1609 779 1909 
Q 1175 2209 1959 2209 
L 2766 2209 
L 2766 2266 
Q 2766 2663 2505 2880 
Q 2244 3097 1772 3097 
Q 1472 3097 1187 3025 
Q 903 2953 641 2809 
L 641 3341 
Q 956 3463 1253 3523 
Q 1550 3584 1831 3584 
Q 2591 3584 2966 3190 
Q 3341 2797 3341 1997 
z
" transform="scale(0.015625)"/>
       <path id="DejaVuSans-2212" d="M 678 2272 
L 4684 2272 
L 4684 1741 
L 678 1741 
L 678 2272 
z
" transform="scale(0.015625)"/>
       <path id="DejaVuSans-29" d="M 513 4856 
L 1013 4856 
Q 1481 4119 1714 3412 
Q 1947 2706 1947 2009 
Q 1947 1309 1714 600 
Q 1481 -109 1013 -844 
L 513 -844 
Q 928 -128 1133 580 
Q 1338 1288 1338 2009 
Q 1338 2731 1133 3434 
Q 928 4138 513 4856 
z
" transform="scale(0.015625)"/>
      </defs>
      <use xlink:href="#DejaVuSans-4c" transform="translate(0 0.684375)"/>
      <use xlink:href="#DejaVuSans-69" transform="translate(55.712891 0.684375)"/>
      <use xlink:href="#DejaVuSans-66" transform="translate(83.496094 0.684375)"/>
      <use xlink:href="#DejaVuSans-74" transform="translate(118.701172 0.684375)"/>
      <use xlink:href="#DejaVuSans-20" transform="translate(157.910156 0.684375)"/>
      <use xlink:href="#DejaVuSans-63" transform="translate(189.697266 0.684375)"/>
      <use xlink:href="#DejaVuSans-6f" transform="translate(244.677734 0.684375)"/>
      <use xlink:href="#DejaVuSans-65" transform="translate(305.859375 0.684375)"/>
      <use xlink:href="#DejaVuSans-66" transform="translate(367.382812 0.684375)"/>
      <use xlink:href="#DejaVuSans-66" transform="translate(402.587891 0.684375)"/>
      <use xlink:href="#DejaVuSans-69" transform="translate(437.792969 0.684375)"/>
      <use xlink:href="#DejaVuSans-63" transform="translate(465.576172 0.684375)"/>
      <use xlink:href="#DejaVuSans-69" transform="translate(520.556641 0.684375)"/>
      <use xlink:href="#DejaVuSans-65" transform="translate(548.339844 0.684375)"/>
      <use xlink:href="#DejaVuSans-6e" transform="translate(609.863281 0.684375)"/>
      <use xlink:href="#DejaVuSans-74" transform="translate(673.242188 0.684375)"/>
      <use xlink:href="#DejaVuSans-20" transform="translate(712.451172 0.684375)"/>
      <use xlink:href="#DejaVuSans-73" transform="translate(744.238281 0.684375)"/>
      <use xlink:href="#DejaVuSans-6c" transform="translate(796.337891 0.684375)"/>
      <use xlink:href="#DejaVuSans-6f" transform="translate(824.121094 0.684375)"/>
      <use xlink:href="#DejaVuSans-70" transform="translate(885.302734 0.684375)"/>
      <use xlink:href="#DejaVuSans-65" transform="translate(948.779297 0.684375)"/>
      <use xlink:href="#DejaVuSans-20" transform="translate(1010.302734 0.684375)"/>
      <use xlink:href="#DejaVuSans-28" transform="translate(1042.089844 0.684375)"/>
      <use xlink:href="#DejaVuSans-72" transform="translate(1081.103516 0.684375)"/>
      <use xlink:href="#DejaVuSans-61" transform="translate(1122.216797 0.684375)"/>
      <use xlink:href="#DejaVuSans-64" transform="translate(1183.496094 0.684375)"/>
      <use xlink:href="#DejaVuSans-2212" transform="translate(1247.929688 38.965625) scale(0.7)"/>
      <use xlink:href="#DejaVuSans-31" transform="translate(1306.582031 38.965625) scale(0.7)"/>
      <use xlink:href="#DejaVuSans-29" transform="translate(1353.852539 0.684375)"/>
     </g>
    </g>
   </g>
   <g id="LineCollection_1">
    <path d="M 55.287996 40.08 
L 378.097913 40.08 
" clip-path="url(#p504d5cff10)" style="fill: none; stroke: #1f77b4; stroke-width: 1.5"/>
   </g>
   <g id="line2d_27">
    <defs>
     <path id="me42f7fc4ee" d="M 0 3 
C 0.795609 3 1.55874 2.683901 2.12132 2.12132 
C 2.683901 1.55874 3 0.795609 3 0 
C 3 -0.795609 2.683901 -1.55874 2.12132 -2.12132 
C 1.55874 -2.683901 0.795609 -3 0 -3 
C -0.795609 -3 -1.55874 -2.683901 -2.12132 -2.12132 
C -2.683901 -1.55874 -3 -0.795609 -3 0 
C -3 0.795609 -2.683901 1.55874 -2.12132 2.12132 
C -1.55874 2.683901 -0.795609 3 0 3 
z
" style="stroke: #b71c1c"/>
    </defs>
    <g clip-path="url(#p504d5cff10)">
     <use xlink:href="#me42f7fc4ee" x="129.887574" y="342.48" style="fill-opacity: 0; stroke: #b71c1c"/>
     <use xlink:href="#me42f7fc4ee" x="211.877707" y="320.075867" style="fill-opacity: 0; stroke: #b71c1c"/>
     <use xlink:href="#me42f7fc4ee" x="294.065112" y="327.392952" style="fill-opacity: 0; stroke: #b71c1c"/>
     <use xlink:href="#me42f7fc4ee" x="373.017244" y="327.560145" style="fill-opacity: 0; stroke: #b71c1c"/>
    </g>
   </g>
   <g id="patch_3">
    <path d="M 39.1475 357.6 
L 39.1475 24.96 
" style="fill: none; stroke: #000000; stroke-width: 0.8; stroke-linejoin: miter; stroke-linecap: square"/>
   </g>
   <g id="patch_4">
    <path d="M 394.238409 357.6 
L 394.238409 24.96 
" style="fill: none; stroke: #000000; stroke-width: 0.8; stroke-linejoin: miter; stroke-linecap: square"/>
   </g>
   <g id="patch_5">
    <path d="M 39.1475 357.6 
L 394.238409 357.6 
" style="fill: none; stroke: #000000; stroke-width: 0.8; stroke-linejoin: miter; stroke-linecap: square"/>
   </g>
   <g id="patch_6">
    <path d="M 39.1475 24.96 
L 394.238409 24.96 
" style="fill: none; stroke: #000000; stroke-width: 0.8; stroke-linejoin: miter; stroke-linecap: square"/>
   </g>
   <g id="text_16">
    <!-- NACA4412 -->
    <g transform="translate(179.298736 18.96) scale(0.14 -0.14)">
     <defs>
      <path id="DejaVuSans-41" d="M 2188 4044 
L 1331 1722 
L 3047 1722 
L 2188 4044 
z
M 1831 4666 
L 2547 4666 
L 4325 0 
L 3669 0 
L 3244 1197 
L 1141 1197 
L 716 0 
L 50 0 
L 1831 4666 
z
" transform="scale(0.015625)"/>
      <path id="DejaVuSans-43" d="M 4122 4306 
L 4122 3641 
Q 3803 3938 3442 4084 
Q 3081 4231 2675 4231 
Q 1875 4231 1450 3742 
Q 1025 3253 1025 2328 
Q 1025 1406 1450 917 
Q 1875 428 2675 428 
Q 3081 428 3442 575 
Q 3803 722 4122 1019 
L 4122 359 
Q 3791 134 3420 21 
Q 3050 -91 2638 -91 
Q 1578 -91 968 557 
Q 359 1206 359 2328 
Q 359 3453 968 4101 
Q 1578 4750 2638 4750 
Q 3056 4750 3426 4639 
Q 3797 4528 4122 4306 
z
" transform="scale(0.015625)"/>
     </defs>
     <use xlink:href="#DejaVuSans-4e"/>
     <use xlink:href="#DejaVuSans-41" transform="translate(74.804688 0)"/>
     <use xlink:href="#DejaVuSans-43" transform="translate(141.462891 0)"/>
     <use xlink:href="#DejaVuSans-41" transform="translate(211.287109 0)"/>
     <use xlink:href="#DejaVuSans-34" transform="translate(279.695312 0)"/>
     <use xlink:href="#DejaVuSans-34" transform="translate(343.318359 0)"/>
     <use xlink:href="#DejaVuSans-31" transform="translate(406.941406 0)"/>
     <use xlink:href="#DejaVuSans-32" transform="translate(470.564453 0)"/>
    </g>
   </g>
  </g>
  <g id="axes_2">
   <g id="patch_7">
    <path d="M 465.256591 357.6 
L 820.3475 357.6 
L 820.3475 24.96 
L 465.256591 24.96 
z
" style="fill: #ffffff"/>
   </g>
   <g id="matplotlib.axis_3">
    <g id="xtick_9">
     <g id="line2d_28">
      <g>
       <use xlink:href="#m7cda38c8f4" x="481.397087" y="357.6" style="stroke: #000000; stroke-width: 0.8"/>
      </g>
     </g>
     <g id="line2d_29">
      <g>
       <use xlink:href="#mcf342c2f1b" x="481.397087" y="24.96" style="stroke: #000000; stroke-width: 0.8"/>
      </g>
     </g>
     <g id="text_17">
      <!-- 0.0e+00 -->
      <g transform="translate(462.765155 411.349218) rotate(-45) scale(0.14 -0.14)">
       <use xlink:href="#DejaVuSans-30"/>
       <use xlink:href="#DejaVuSans-2e" transform="translate(63.623047 0)"/>
       <use xlink:href="#DejaVuSans-30" transform="translate(95.410156 0)"/>
       <use xlink:href="#DejaVuSans-65" transform="translate(159.033203 0)"/>
       <use xlink:href="#DejaVuSans-2b" transform="translate(220.556641 0)"/>
       <use xlink:href="#DejaVuSans-30" transform="translate(304.345703 0)"/>
       <use xlink:href="#DejaVuSans-30" transform="translate(367.96875 0)"/>
      </g>
     </g>
    </g>
    <g id="xtick_10">
     <g id="line2d_30">
      <g>
       <use xlink:href="#m7cda38c8f4" x="526.231798" y="357.6" style="stroke: #000000; stroke-width: 0.8"/>
      </g>
     </g>
     <g id="line2d_31">
      <g>
       <use xlink:href="#mcf342c2f1b" x="526.231798" y="24.96" style="stroke: #000000; stroke-width: 0.8"/>
      </g>
     </g>
     <g id="text_18">
      <!-- 2.5e+04 -->
      <g transform="translate(507.599865 411.349218) rotate(-45) scale(0.14 -0.14)">
       <use xlink:href="#DejaVuSans-32"/>
       <use xlink:href="#DejaVuSans-2e" transform="translate(63.623047 0)"/>
       <use xlink:href="#DejaVuSans-35" transform="translate(95.410156 0)"/>
       <use xlink:href="#DejaVuSans-65" transform="translate(159.033203 0)"/>
       <use xlink:href="#DejaVuSans-2b" transform="translate(220.556641 0)"/>
       <use xlink:href="#DejaVuSans-30" transform="translate(304.345703 0)"/>
       <use xlink:href="#DejaVuSans-34" transform="translate(367.96875 0)"/>
      </g>
     </g>
    </g>
    <g id="xtick_11">
     <g id="line2d_32">
      <g>
       <use xlink:href="#m7cda38c8f4" x="571.066508" y="357.6" style="stroke: #000000; stroke-width: 0.8"/>
      </g>
     </g>
     <g id="line2d_33">
      <g>
       <use xlink:href="#mcf342c2f1b" x="571.066508" y="24.96" style="stroke: #000000; stroke-width: 0.8"/>
      </g>
     </g>
     <g id="text_19">
      <!-- 5.0e+04 -->
      <g transform="translate(552.434576 411.349218) rotate(-45) scale(0.14 -0.14)">
       <use xlink:href="#DejaVuSans-35"/>
       <use xlink:href="#DejaVuSans-2e" transform="translate(63.623047 0)"/>
       <use xlink:href="#DejaVuSans-30" transform="translate(95.410156 0)"/>
       <use xlink:href="#DejaVuSans-65" transform="translate(159.033203 0)"/>
       <use xlink:href="#DejaVuSans-2b" transform="translate(220.556641 0)"/>
       <use xlink:href="#DejaVuSans-30" transform="translate(304.345703 0)"/>
       <use xlink:href="#DejaVuSans-34" transform="translate(367.96875 0)"/>
      </g>
     </g>
    </g>
    <g id="xtick_12">
     <g id="line2d_34">
      <g>
       <use xlink:href="#m7cda38c8f4" x="615.901219" y="357.6" style="stroke: #000000; stroke-width: 0.8"/>
      </g>
     </g>
     <g id="line2d_35">
      <g>
       <use xlink:href="#mcf342c2f1b" x="615.901219" y="24.96" style="stroke: #000000; stroke-width: 0.8"/>
      </g>
     </g>
     <g id="text_20">
      <!-- 7.5e+04 -->
      <g transform="translate(597.269287 411.349218) rotate(-45) scale(0.14 -0.14)">
       <use xlink:href="#DejaVuSans-37"/>
       <use xlink:href="#DejaVuSans-2e" transform="translate(63.623047 0)"/>
       <use xlink:href="#DejaVuSans-35" transform="translate(95.410156 0)"/>
       <use xlink:href="#DejaVuSans-65" transform="translate(159.033203 0)"/>
       <use xlink:href="#DejaVuSans-2b" transform="translate(220.556641 0)"/>
       <use xlink:href="#DejaVuSans-30" transform="translate(304.345703 0)"/>
       <use xlink:href="#DejaVuSans-34" transform="translate(367.96875 0)"/>
      </g>
     </g>
    </g>
    <g id="xtick_13">
     <g id="line2d_36">
      <g>
       <use xlink:href="#m7cda38c8f4" x="660.73593" y="357.6" style="stroke: #000000; stroke-width: 0.8"/>
      </g>
     </g>
     <g id="line2d_37">
      <g>
       <use xlink:href="#mcf342c2f1b" x="660.73593" y="24.96" style="stroke: #000000; stroke-width: 0.8"/>
      </g>
     </g>
     <g id="text_21">
      <!-- 1.0e+05 -->
      <g transform="translate(642.103998 411.349218) rotate(-45) scale(0.14 -0.14)">
       <use xlink:href="#DejaVuSans-31"/>
       <use xlink:href="#DejaVuSans-2e" transform="translate(63.623047 0)"/>
       <use xlink:href="#DejaVuSans-30" transform="translate(95.410156 0)"/>
       <use xlink:href="#DejaVuSans-65" transform="translate(159.033203 0)"/>
       <use xlink:href="#DejaVuSans-2b" transform="translate(220.556641 0)"/>
       <use xlink:href="#DejaVuSans-30" transform="translate(304.345703 0)"/>
       <use xlink:href="#DejaVuSans-35" transform="translate(367.96875 0)"/>
      </g>
     </g>
    </g>
    <g id="xtick_14">
     <g id="line2d_38">
      <g>
       <use xlink:href="#m7cda38c8f4" x="705.57064" y="357.6" style="stroke: #000000; stroke-width: 0.8"/>
      </g>
     </g>
     <g id="line2d_39">
      <g>
       <use xlink:href="#mcf342c2f1b" x="705.57064" y="24.96" style="stroke: #000000; stroke-width: 0.8"/>
      </g>
     </g>
     <g id="text_22">
      <!-- 1.2e+05 -->
      <g transform="translate(686.938708 411.349218) rotate(-45) scale(0.14 -0.14)">
       <use xlink:href="#DejaVuSans-31"/>
       <use xlink:href="#DejaVuSans-2e" transform="translate(63.623047 0)"/>
       <use xlink:href="#DejaVuSans-32" transform="translate(95.410156 0)"/>
       <use xlink:href="#DejaVuSans-65" transform="translate(159.033203 0)"/>
       <use xlink:href="#DejaVuSans-2b" transform="translate(220.556641 0)"/>
       <use xlink:href="#DejaVuSans-30" transform="translate(304.345703 0)"/>
       <use xlink:href="#DejaVuSans-35" transform="translate(367.96875 0)"/>
      </g>
     </g>
    </g>
    <g id="xtick_15">
     <g id="line2d_40">
      <g>
       <use xlink:href="#m7cda38c8f4" x="750.405351" y="357.6" style="stroke: #000000; stroke-width: 0.8"/>
      </g>
     </g>
     <g id="line2d_41">
      <g>
       <use xlink:href="#mcf342c2f1b" x="750.405351" y="24.96" style="stroke: #000000; stroke-width: 0.8"/>
      </g>
     </g>
     <g id="text_23">
      <!-- 1.5e+05 -->
      <g transform="translate(731.773419 411.349218) rotate(-45) scale(0.14 -0.14)">
       <use xlink:href="#DejaVuSans-31"/>
       <use xlink:href="#DejaVuSans-2e" transform="translate(63.623047 0)"/>
       <use xlink:href="#DejaVuSans-35" transform="translate(95.410156 0)"/>
       <use xlink:href="#DejaVuSans-65" transform="translate(159.033203 0)"/>
       <use xlink:href="#DejaVuSans-2b" transform="translate(220.556641 0)"/>
       <use xlink:href="#DejaVuSans-30" transform="translate(304.345703 0)"/>
       <use xlink:href="#DejaVuSans-35" transform="translate(367.96875 0)"/>
      </g>
     </g>
    </g>
    <g id="xtick_16">
     <g id="line2d_42">
      <g>
       <use xlink:href="#m7cda38c8f4" x="795.240062" y="357.6" style="stroke: #000000; stroke-width: 0.8"/>
      </g>
     </g>
     <g id="line2d_43">
      <g>
       <use xlink:href="#mcf342c2f1b" x="795.240062" y="24.96" style="stroke: #000000; stroke-width: 0.8"/>
      </g>
     </g>
     <g id="text_24">
      <!-- 1.8e+05 -->
      <g transform="translate(776.60813 411.349218) rotate(-45) scale(0.14 -0.14)">
       <use xlink:href="#DejaVuSans-31"/>
       <use xlink:href="#DejaVuSans-2e" transform="translate(63.623047 0)"/>
       <use xlink:href="#DejaVuSans-38" transform="translate(95.410156 0)"/>
       <use xlink:href="#DejaVuSans-65" transform="translate(159.033203 0)"/>
       <use xlink:href="#DejaVuSans-2b" transform="translate(220.556641 0)"/>
       <use xlink:href="#DejaVuSans-30" transform="translate(304.345703 0)"/>
       <use xlink:href="#DejaVuSans-35" transform="translate(367.96875 0)"/>
      </g>
     </g>
    </g>
    <g id="text_25">
     <!-- Reynolds Number $Re$ -->
     <g transform="translate(568.952045 428.048003) scale(0.14 -0.14)">
      <use xlink:href="#DejaVuSans-52" transform="translate(0 0.015625)"/>
      <use xlink:href="#DejaVuSans-65" transform="translate(69.482422 0.015625)"/>
      <use xlink:href="#DejaVuSans-79" transform="translate(131.005859 0.015625)"/>
      <use xlink:href="#DejaVuSans-6e" transform="translate(190.185547 0.015625)"/>
      <use xlink:href="#DejaVuSans-6f" transform="translate(253.564453 0.015625)"/>
      <use xlink:href="#DejaVuSans-6c" transform="translate(314.746094 0.015625)"/>
      <use xlink:href="#DejaVuSans-64" transform="translate(342.529297 0.015625)"/>
      <use xlink:href="#DejaVuSans-73" transform="translate(406.005859 0.015625)"/>
      <use xlink:href="#DejaVuSans-20" transform="translate(458.105469 0.015625)"/>
      <use xlink:href="#DejaVuSans-4e" transform="translate(489.892578 0.015625)"/>
      <use xlink:href="#DejaVuSans-75" transform="translate(564.697266 0.015625)"/>
      <use xlink:href="#DejaVuSans-6d" transform="translate(628.076172 0.015625)"/>
      <use xlink:href="#DejaVuSans-62" transform="translate(725.488281 0.015625)"/>
      <use xlink:href="#DejaVuSans-65" transform="translate(788.964844 0.015625)"/>
      <use xlink:href="#DejaVuSans-72" transform="translate(850.488281 0.015625)"/>
      <use xlink:href="#DejaVuSans-20" transform="translate(891.601562 0.015625)"/>
      <use xlink:href="#DejaVuSans-Oblique-52" transform="translate(923.388672 0.015625)"/>
      <use xlink:href="#DejaVuSans-Oblique-65" transform="translate(992.871094 0.015625)"/>
     </g>
    </g>
   </g>
   <g id="matplotlib.axis_4">
    <g id="ytick_6">
     <g id="line2d_44">
      <g>
       <use xlink:href="#m39a8acce80" x="465.256591" y="321.259401" style="stroke: #000000; stroke-width: 0.8"/>
      </g>
     </g>
     <g id="line2d_45">
      <g>
       <use xlink:href="#m2bafeebeb5" x="820.3475" y="321.259401" style="stroke: #000000; stroke-width: 0.8"/>
      </g>
     </g>
     <g id="text_26">
      <!-- 2 -->
      <g transform="translate(452.849091 326.578307) scale(0.14 -0.14)">
       <use xlink:href="#DejaVuSans-32"/>
      </g>
     </g>
    </g>
    <g id="ytick_7">
     <g id="line2d_46">
      <g>
       <use xlink:href="#m39a8acce80" x="465.256591" y="255.612136" style="stroke: #000000; stroke-width: 0.8"/>
      </g>
     </g>
     <g id="line2d_47">
      <g>
       <use xlink:href="#m2bafeebeb5" x="820.3475" y="255.612136" style="stroke: #000000; stroke-width: 0.8"/>
      </g>
     </g>
     <g id="text_27">
      <!-- 3 -->
      <g transform="translate(452.849091 260.931042) scale(0.14 -0.14)">
       <use xlink:href="#DejaVuSans-33"/>
      </g>
     </g>
    </g>
    <g id="ytick_8">
     <g id="line2d_48">
      <g>
       <use xlink:href="#m39a8acce80" x="465.256591" y="189.964871" style="stroke: #000000; stroke-width: 0.8"/>
      </g>
     </g>
     <g id="line2d_49">
      <g>
       <use xlink:href="#m2bafeebeb5" x="820.3475" y="189.964871" style="stroke: #000000; stroke-width: 0.8"/>
      </g>
     </g>
     <g id="text_28">
      <!-- 4 -->
      <g transform="translate(452.849091 195.283777) scale(0.14 -0.14)">
       <use xlink:href="#DejaVuSans-34"/>
      </g>
     </g>
    </g>
    <g id="ytick_9">
     <g id="line2d_50">
      <g>
       <use xlink:href="#m39a8acce80" x="465.256591" y="124.317606" style="stroke: #000000; stroke-width: 0.8"/>
      </g>
     </g>
     <g id="line2d_51">
      <g>
       <use xlink:href="#m2bafeebeb5" x="820.3475" y="124.317606" style="stroke: #000000; stroke-width: 0.8"/>
      </g>
     </g>
     <g id="text_29">
      <!-- 5 -->
      <g transform="translate(452.849091 129.636512) scale(0.14 -0.14)">
       <use xlink:href="#DejaVuSans-35"/>
      </g>
     </g>
    </g>
    <g id="ytick_10">
     <g id="line2d_52">
      <g>
       <use xlink:href="#m39a8acce80" x="465.256591" y="58.670341" style="stroke: #000000; stroke-width: 0.8"/>
      </g>
     </g>
     <g id="line2d_53">
      <g>
       <use xlink:href="#m2bafeebeb5" x="820.3475" y="58.670341" style="stroke: #000000; stroke-width: 0.8"/>
      </g>
     </g>
     <g id="text_30">
      <!-- 6 -->
      <g transform="translate(452.849091 63.989247) scale(0.14 -0.14)">
       <use xlink:href="#DejaVuSans-36"/>
      </g>
     </g>
    </g>
    <g id="text_31">
     <!-- Lift coefficient slope ($\text{rad}^{-1}$) -->
     <g transform="translate(445.909091 288.79) rotate(-90) scale(0.14 -0.14)">
      <use xlink:href="#DejaVuSans-4c" transform="translate(0 0.684375)"/>
      <use xlink:href="#DejaVuSans-69" transform="translate(55.712891 0.684375)"/>
      <use xlink:href="#DejaVuSans-66" transform="translate(83.496094 0.684375)"/>
      <use xlink:href="#DejaVuSans-74" transform="translate(118.701172 0.684375)"/>
      <use xlink:href="#DejaVuSans-20" transform="translate(157.910156 0.684375)"/>
      <use xlink:href="#DejaVuSans-63" transform="translate(189.697266 0.684375)"/>
      <use xlink:href="#DejaVuSans-6f" transform="translate(244.677734 0.684375)"/>
      <use xlink:href="#DejaVuSans-65" transform="translate(305.859375 0.684375)"/>
      <use xlink:href="#DejaVuSans-66" transform="translate(367.382812 0.684375)"/>
      <use xlink:href="#DejaVuSans-66" transform="translate(402.587891 0.684375)"/>
      <use xlink:href="#DejaVuSans-69" transform="translate(437.792969 0.684375)"/>
      <use xlink:href="#DejaVuSans-63" transform="translate(465.576172 0.684375)"/>
      <use xlink:href="#DejaVuSans-69" transform="translate(520.556641 0.684375)"/>
      <use xlink:href="#DejaVuSans-65" transform="translate(548.339844 0.684375)"/>
      <use xlink:href="#DejaVuSans-6e" transform="translate(609.863281 0.684375)"/>
      <use xlink:href="#DejaVuSans-74" transform="translate(673.242188 0.684375)"/>
      <use xlink:href="#DejaVuSans-20" transform="translate(712.451172 0.684375)"/>
      <use xlink:href="#DejaVuSans-73" transform="translate(744.238281 0.684375)"/>
      <use xlink:href="#DejaVuSans-6c" transform="translate(796.337891 0.684375)"/>
      <use xlink:href="#DejaVuSans-6f" transform="translate(824.121094 0.684375)"/>
      <use xlink:href="#DejaVuSans-70" transform="translate(885.302734 0.684375)"/>
      <use xlink:href="#DejaVuSans-65" transform="translate(948.779297 0.684375)"/>
      <use xlink:href="#DejaVuSans-20" transform="translate(1010.302734 0.684375)"/>
      <use xlink:href="#DejaVuSans-28" transform="translate(1042.089844 0.684375)"/>
      <use xlink:href="#DejaVuSans-72" transform="translate(1081.103516 0.684375)"/>
      <use xlink:href="#DejaVuSans-61" transform="translate(1122.216797 0.684375)"/>
      <use xlink:href="#DejaVuSans-64" transform="translate(1183.496094 0.684375)"/>
      <use xlink:href="#DejaVuSans-2212" transform="translate(1247.929688 38.965625) scale(0.7)"/>
      <use xlink:href="#DejaVuSans-31" transform="translate(1306.582031 38.965625) scale(0.7)"/>
      <use xlink:href="#DejaVuSans-29" transform="translate(1353.852539 0.684375)"/>
     </g>
    </g>
   </g>
   <g id="LineCollection_2">
    <path d="M 481.397087 40.08 
L 804.207004 40.08 
" clip-path="url(#p8991cc3f66)" style="fill: none; stroke: #1f77b4; stroke-width: 1.5"/>
   </g>
   <g id="line2d_54">
    <defs>
     <path id="m906d67303e" d="M -3 3 
L 3 3 
L 3 -3 
L -3 -3 
z
" style="stroke: #33691e; stroke-linejoin: miter"/>
    </defs>
    <g clip-path="url(#p8991cc3f66)">
     <use xlink:href="#m906d67303e" x="555.996665" y="342.48" style="fill-opacity: 0; stroke: #33691e; stroke-linejoin: miter"/>
     <use xlink:href="#m906d67303e" x="637.986798" y="321.46185" style="fill-opacity: 0; stroke: #33691e; stroke-linejoin: miter"/>
     <use xlink:href="#m906d67303e" x="720.174202" y="313.814435" style="fill-opacity: 0; stroke: #33691e; stroke-linejoin: miter"/>
     <use xlink:href="#m906d67303e" x="799.126335" y="312.541207" style="fill-opacity: 0; stroke: #33691e; stroke-linejoin: miter"/>
    </g>
   </g>
   <g id="patch_8">
    <path d="M 465.256591 357.6 
L 465.256591 24.96 
" style="fill: none; stroke: #000000; stroke-width: 0.8; stroke-linejoin: miter; stroke-linecap: square"/>
   </g>
   <g id="patch_9">
    <path d="M 820.3475 357.6 
L 820.3475 24.96 
" style="fill: none; stroke: #000000; stroke-width: 0.8; stroke-linejoin: miter; stroke-linecap: square"/>
   </g>
   <g id="patch_10">
    <path d="M 465.256591 357.6 
L 820.3475 357.6 
" style="fill: none; stroke: #000000; stroke-width: 0.8; stroke-linejoin: miter; stroke-linecap: square"/>
   </g>
   <g id="patch_11">
    <path d="M 465.256591 24.96 
L 820.3475 24.96 
" style="fill: none; stroke: #000000; stroke-width: 0.8; stroke-linejoin: miter; stroke-linecap: square"/>
   </g>
   <g id="text_32">
    <!-- $\text{Joukowsky, } r=1.15 \text{, } \beta = -\frac{\pi}{36}$ -->
    <g transform="translate(544.102045 18.96) scale(0.14 -0.14)">
     <defs>
      <path id="DejaVuSans-4a" d="M 628 4666 
L 1259 4666 
L 1259 325 
Q 1259 -519 939 -900 
Q 619 -1281 -91 -1281 
L -331 -1281 
L -331 -750 
L -134 -750 
Q 284 -750 456 -515 
Q 628 -281 628 325 
L 628 4666 
z
" transform="scale(0.015625)"/>
      <path id="DejaVuSans-6b" d="M 581 4863 
L 1159 4863 
L 1159 1991 
L 2875 3500 
L 3609 3500 
L 1753 1863 
L 3688 0 
L 2938 0 
L 1159 1709 
L 1159 0 
L 581 0 
L 581 4863 
z
" transform="scale(0.015625)"/>
      <path id="DejaVuSans-77" d="M 269 3500 
L 844 3500 
L 1563 769 
L 2278 3500 
L 2956 3500 
L 3675 769 
L 4391 3500 
L 4966 3500 
L 4050 0 
L 3372 0 
L 2619 2869 
L 1863 0 
L 1184 0 
L 269 3500 
z
" transform="scale(0.015625)"/>
      <path id="DejaVuSans-2c" d="M 750 794 
L 1409 794 
L 1409 256 
L 897 -744 
L 494 -744 
L 750 256 
L 750 794 
z
" transform="scale(0.015625)"/>
      <path id="DejaVuSans-Oblique-72" d="M 2853 2969 
Q 2766 3016 2653 3041 
Q 2541 3066 2413 3066 
Q 1953 3066 1609 2717 
Q 1266 2369 1153 1784 
L 800 0 
L 225 0 
L 909 3500 
L 1484 3500 
L 1375 2956 
Q 1603 3259 1920 3421 
Q 2238 3584 2597 3584 
Q 2691 3584 2781 3573 
Q 2872 3563 2963 3538 
L 2853 2969 
z
" transform="scale(0.015625)"/>
      <path id="DejaVuSans-3d" d="M 678 2906 
L 4684 2906 
L 4684 2381 
L 678 2381 
L 678 2906 
z
M 678 1631 
L 4684 1631 
L 4684 1100 
L 678 1100 
L 678 1631 
z
" transform="scale(0.015625)"/>
      <path id="DejaVuSans-Oblique-3b2" d="M 872 216 
L 572 -1331 
L -6 -1331 
L 928 3478 
Q 1206 4903 2538 4903 
Q 3888 4903 3659 3700 
Q 3503 2844 2894 2531 
Q 3713 2250 3553 1416 
Q 3272 -69 1759 -66 
Q 1097 -63 872 216 
z
M 1019 966 
Q 1259 422 1875 425 
Q 2775 425 2966 1406 
Q 3138 2288 1675 2219 
L 1778 2750 
Q 2909 2731 3106 3750 
Q 3241 4438 2509 4434 
Q 1691 4434 1503 3459 
L 1019 966 
z
" transform="scale(0.015625)"/>
      <path id="DejaVuSans-Oblique-3c0" d="M 584 3500 
L 3938 3500 
L 3825 2925 
L 3384 2925 
L 2966 775 
Q 2922 550 2981 450 
Q 3038 353 3209 353 
Q 3256 353 3325 363 
Q 3397 369 3419 372 
L 3338 -44 
Q 3222 -84 3103 -103 
Q 2981 -122 2866 -122 
Q 2491 -122 2388 81 
Q 2284 288 2391 838 
L 2797 2925 
L 1506 2925 
L 938 0 
L 350 0 
L 919 2925 
L 472 2925 
L 584 3500 
z
" transform="scale(0.015625)"/>
     </defs>
     <use xlink:href="#DejaVuSans-4a" transform="translate(0 0.5875)"/>
     <use xlink:href="#DejaVuSans-6f" transform="translate(29.492188 0.5875)"/>
     <use xlink:href="#DejaVuSans-75" transform="translate(90.673828 0.5875)"/>
     <use xlink:href="#DejaVuSans-6b" transform="translate(154.052734 0.5875)"/>
     <use xlink:href="#DejaVuSans-6f" transform="translate(211.962891 0.5875)"/>
     <use xlink:href="#DejaVuSans-77" transform="translate(273.144531 0.5875)"/>
     <use xlink:href="#DejaVuSans-73" transform="translate(354.931641 0.5875)"/>
     <use xlink:href="#DejaVuSans-6b" transform="translate(407.03125 0.5875)"/>
     <use xlink:href="#DejaVuSans-79" transform="translate(464.941406 0.5875)"/>
     <use xlink:href="#DejaVuSans-2c" transform="translate(524.121094 0.5875)"/>
     <use xlink:href="#DejaVuSans-20" transform="translate(555.908203 0.5875)"/>
     <use xlink:href="#DejaVuSans-Oblique-72" transform="translate(587.695312 0.5875)"/>
     <use xlink:href="#DejaVuSans-3d" transform="translate(648.291016 0.5875)"/>
     <use xlink:href="#DejaVuSans-31" transform="translate(751.5625 0.5875)"/>
     <use xlink:href="#DejaVuSans-2e" transform="translate(815.185547 0.5875)"/>
     <use xlink:href="#DejaVuSans-31" transform="translate(846.972656 0.5875)"/>
     <use xlink:href="#DejaVuSans-35" transform="translate(910.595703 0.5875)"/>
     <use xlink:href="#DejaVuSans-2c" transform="translate(974.21875 0.5875)"/>
     <use xlink:href="#DejaVuSans-20" transform="translate(1006.005859 0.5875)"/>
     <use xlink:href="#DejaVuSans-Oblique-3b2" transform="translate(1037.792969 0.5875)"/>
     <use xlink:href="#DejaVuSans-3d" transform="translate(1121.09375 0.5875)"/>
     <use xlink:href="#DejaVuSans-2212" transform="translate(1224.365234 0.5875)"/>
     <use xlink:href="#DejaVuSans-Oblique-3c0" transform="translate(1331.154297 45.71875) scale(0.7)"/>
     <use xlink:href="#DejaVuSans-33" transform="translate(1308.154297 -38.81875) scale(0.7)"/>
     <use xlink:href="#DejaVuSans-36" transform="translate(1352.69043 -38.81875) scale(0.7)"/>
     <path d="M 1308.154297 19.384375 
L 1308.154297 25.634375 
L 1397.226562 25.634375 
L 1397.226562 19.384375 
L 1308.154297 19.384375 
z
"/>
    </g>
   </g>
  </g>
 </g>
 <defs>
  <clipPath id="p504d5cff10">
   <rect x="39.1475" y="24.96" width="355.090909" height="332.64"/>
  </clipPath>
  <clipPath id="p8991cc3f66">
   <rect x="465.256591" y="24.96" width="355.090909" height="332.64"/>
  </clipPath>
 </defs>
</svg>
